<svg xmlns="http://www.w3.org/2000/svg" viewBox="0 0 24 24" width="24" height="24" fill="none">
  <path fill-rule="evenodd" clip-rule="evenodd" d="M20.838 21.25H23.748H23.758C24.028 21.25 24.278 21.11 24.408 20.88C24.538 20.65 24.538 20.36 24.408 20.13L20.658 13.5701L24.338 8.96997C24.518 8.74997 24.548 8.44005 24.428 8.18005C24.298 7.92005 24.038 7.75 23.748 7.75H20.748C20.208 7.75 19.678 8.01007 19.348 8.45007L16.948 11.65C16.898 11.71 16.828 11.75 16.748 11.75H16.498V3.5C16.498 3.09 16.158 2.75 15.748 2.75H12.748C12.338 2.75 11.998 3.09 11.998 3.5V20.5C11.998 20.91 12.338 21.25 12.748 21.25H15.748C16.158 21.25 16.498 20.91 16.498 20.5V15.75H16.658C16.738 15.75 16.828 15.8 16.868 15.88L19.308 20.3301C19.608 20.9001 20.198 21.25 20.838 21.25ZM16.658 14.25H15.748C15.338 14.25 14.998 14.59 14.998 15V19.75H13.498V4.25H14.998V12.5C14.998 12.91 15.338 13.25 15.748 13.25H16.748C17.288 13.25 17.818 12.99 18.148 12.55L20.548 9.34998C20.598 9.28998 20.668 9.25 20.748 9.25H22.188L19.168 13.03C18.968 13.27 18.948 13.6 19.098 13.87L22.458 19.75H20.838C20.758 19.75 20.668 19.7 20.628 19.62L18.188 15.17C17.888 14.6 17.298 14.25 16.658 14.25ZM1.35744 19.86C2.28744 20.42 4.48744 21.25 6.24744 21.25L6.26744 21.23C8.37744 21.23 11.5174 19.8901 11.5174 16.2001C11.5174 13.9129 9.27262 13.0695 7.62502 12.4504L7.59744 12.4401C7.02744 12.2301 6.08744 11.8801 5.97744 11.6801C5.99744 11.6001 6.02744 11.56 6.12744 11.52C6.73744 11.29 8.20744 11.72 8.86744 12.12C9.16744 12.3 9.54744 12.25 9.78744 12.01L11.2874 10.51C11.5574 10.24 11.5774 9.8 11.3274 9.5C11.2674 9.43 9.80744 7.72998 6.75744 7.72998C3.17744 7.72998 1.35744 9.30002 1.35744 12.4C1.35744 14.79 3.57744 15.6101 5.19744 16.2001C5.24234 16.2173 5.28898 16.2351 5.33688 16.2533C5.92916 16.479 6.71567 16.7787 6.81744 17.01C6.82744 17.03 6.81744 17.0901 6.77744 17.1901C6.76744 17.2201 6.74744 17.26 6.62744 17.29C5.90744 17.51 4.12744 16.8501 3.32744 16.3101C3.14744 16.1901 2.92744 16.1601 2.71744 16.2101C2.50744 16.2701 2.33744 16.41 2.23744 16.6L1.07744 18.88C0.897442 19.23 1.01744 19.66 1.35744 19.86ZM6.24744 19.75C5.13744 19.75 3.69744 19.31 2.75744 18.89L2.74744 18.9L3.21744 17.99C4.27744 18.52 5.91744 19.08 7.04744 18.75C7.56744 18.6 7.94744 18.2701 8.14744 17.8101C8.35744 17.3201 8.36744 16.8601 8.18744 16.4401C7.81744 15.6001 6.78744 15.2201 5.69744 14.8201C3.97744 14.1901 2.84744 13.6801 2.84744 12.4301C2.84744 10.1801 3.97744 9.26001 6.74744 9.26001C8.16744 9.26001 9.11744 9.70005 9.64744 10.05L9.10744 10.5901C8.17744 10.1701 6.63744 9.73002 5.57744 10.15C5.03744 10.36 4.67744 10.76 4.52744 11.3C4.11744 12.77 5.74744 13.38 7.05744 13.87C8.77744 14.51 9.99744 15.05 9.99744 16.22C9.99744 19.01 7.54744 19.75 6.24744 19.75Z" fill="currentColor"></path>
</svg>
