<svg version="1.2" xmlns="http://www.w3.org/2000/svg" viewBox="0 0 1516 338" width="1516" height="338">
	<title>MuangThai Capital</title>
	<style>
		.s0 { fill: #00a2e5 } 
	</style>
	<path id="Layer" fill-rule="evenodd" class="s0" d="m402.4 67h18.4v85.5h-18.4zm103.3 71.8q-2 5.2-5.7 8.6c-2.5 2.2-5.4 3.8-8.8 4.9q-5.2 1.5-11.2 1.5c-2.6 0-5-0.2-7.3-0.8-2.3-0.6-4.4-1.3-6.5-2.3q-3-1.4-5.6-3.2-2.5-1.8-4.6-3.7v8.7h-18.3v-85.5h18.3v54.4c0 1.8 0.6 3.9 1.7 5.9q1.7 3.2 4.6 5.8 2.9 2.6 7 4.3 4.2 1.7 9 1.7 5.4 0 8.3-3 2.9-2.9 2.9-9.4v-59.7h18.3v59.2q0 7.3-2.1 12.6zm-66.9-82.5l6.3-11.5h26.2v-11h11.9v11h6.4v-11h18.3v22.5zm160 53.5c0 7.7-1 14.4-3.2 20q-3.2 8.4-8.8 13.8c-3.6 3.5-7.9 6.2-12.8 7.9q-7.3 2.5-15.5 2.5c-5.5 0-10.5-0.8-15.4-2.5q-7.4-2.4-12.9-7.9c-3.7-3.5-6.6-8.1-8.8-13.7q-3.3-8.5-3.3-20.1c0-2.2 0.1-4.5 0.3-6.8q0.4-3.6 1-6.3h32.2v14.2h-15.2c0.1 4.7 0.6 8.8 1.8 12.3 1.1 3.5 2.7 6.5 4.6 8.8 2 2.4 4.2 4.2 6.9 5.4q4 1.7 8.8 1.7c3.2 0 6.3-0.6 9.1-1.8q4-1.9 6.9-5.6c2-2.4 3.5-5.5 4.5-9.2q1.6-5.5 1.6-12.7 0-7.2-1.6-12.7-1.5-5.5-4.5-9.1c-2-2.5-4.3-4.3-7-5.6q-4.1-1.8-8.9-1.8-3.4 0-6.2 0.9-2.9 0.8-5.2 2.4c-1.6 1-2.9 2.1-4 3.4q-1.8 2-2.7 4.1h-19.8c1.5-4.6 3.6-8.5 6.1-11.8 2.6-3.2 5.6-5.9 9-8q5-3.1 10.8-4.6 5.8-1.5 11.9-1.5 8.2 0 15.5 2.6 7.4 2.5 12.9 7.9 5.5 5.4 8.8 13.8 3.2 8.4 3.2 20zm75.8-1.7c0 8.3-1.2 15.5-3.6 21.7q-3.6 9.2-10.8 15-7.3 5.8-18.4 8-11.1 2.1-26 0.2l-12.2-75.3 17.2-11.3 10.8 71q5.1 0.1 9.6-1.6 4.4-1.7 7.8-5.3 3.4-3.6 5.3-9.1c1.4-3.7 2-8.2 2-13.3q0-6.6-1.3-11.6c-0.8-3.4-2.2-6.2-4.2-8.6q-3-3.4-8-5.2c-3.2-1.2-7.4-1.8-12.2-1.8v-14.9q10.7-0.6 18.9 1.6c5.5 1.4 10.1 3.8 13.8 7.3 3.7 3.3 6.5 7.8 8.4 13.3q2.8 8.2 2.8 19.9zm41.2-72.9c-1.6 1-3.1 2.4-4.2 4.2q-1.7 2.6-1.7 6.4v106.8h-18.3v-105.1q0-2.2 0.6-3.9c0.4-1.1 0.8-2 1.5-2.9q1-1.3 2.2-2.4 1.2-1.1 2.4-1.9c0-0.5-0.4-1.1-1.2-1.6q-1.3-0.8-3.3-0.8l-7.5 5.9q-2.4-1.9-5.8-3.8c-2-1-4.5-2-7.4-3.1-2.9-1-6.4-1.9-10.5-2.5l9.9-10.2c3.6 0.6 6.5 1.4 8.8 2.5q3.5 1.5 5.2 3l7.1-4.8c2.2-0.3 4.5-0.3 7.1 0.1 2.6 0.5 5 1.2 7.2 2.4q3.4 1.8 5.6 4.7 2.2 2.9 2.2 7zm65.1 117.4v-59.6c0-4.4-1-7.5-3-9.5-1.9-2-4.7-3-8.3-3-3.2 0-6.2 0.6-8.9 1.8q-4.1 1.7-7.1 4.3-2.9 2.6-4.6 5.8-1.6 3.1-1.6 5.9v54.3h-18.4v-85.5h18.4v8.7q2-1.9 4.6-3.7 2.5-1.8 5.6-3.2c2-1 4.2-1.7 6.5-2.3 2.2-0.5 4.7-0.8 7.2-0.8q6 0 11.2 1.6c3.4 1 6.3 2.6 8.8 4.9 2.5 2.2 4.4 5.1 5.8 8.5q2.1 5.3 2.1 12.6v59.2h-18.3zm63.2 0.4c-4.5 0.1-8.9-0.2-13.1-0.9q-6.3-1-11.2-3.9-5-3-8-8.3c-2-3.5-3-8-3-13.7q0-4.6 1.5-8.2c0.9-2.4 2.2-4.5 3.6-6.3 1.5-1.8 3.2-3.2 5-4.3q2.7-1.8 5.2-2.6c-1.6-0.3-3.2-0.9-4.9-1.8-1.7-1-3.2-2.2-4.5-3.6q-2-2.1-3.4-5c-0.8-1.9-1.3-4-1.3-6.2q0.1-6.4 3.1-11c1.9-3.1 4.7-5.5 8.1-7.3 3.5-1.8 7.5-3 12-3.6 4.6-0.5 9.5-0.5 14.7 0.2v14.8q-3.7-1-7.3-0.9c-2.3 0-4.4 0.4-6.3 1-1.8 0.7-3.3 1.6-4.4 2.8-1.1 1.2-1.6 2.7-1.6 4.4q0 2.4 1.4 4.2c1 1.2 2.2 2.1 3.8 2.8q2.3 1 5.3 1.4c2 0.2 4 0.3 6.1 0.1l6.3 13.2q-5.4-0.4-9.8 0.4c-3 0.6-5.5 1.5-7.6 2.8q-3.2 1.8-5 4.8-1.7 2.9-1.7 6.6 0 4.6 1.9 7.3 1.9 2.7 4.9 4c2.1 0.9 4.3 1.5 6.9 1.7 2.5 0.2 5 0.3 7.5 0.2l14.4-0.4v-70.7h18.3v85.6l-36.9 0.4zm106.9-86h18.3v85.6h-18.3zm32.1 0h18.3v85.5h-18.3zm89.5 85.5v-59q0-3.7-1.7-6.1-1.6-2.5-4.2-4.1-2.6-1.5-5.8-2.1-3.2-0.7-6.2-0.7-3 0-6.1 0.7c-2.1 0.4-4 1.2-5.8 2.1q-2.6 1.6-4.3 4.1-1.6 2.4-1.6 6.1v7h22.1v15.9h-22.1v36.1h-18.3v-60c0-5 1.1-9.2 3.2-12.7 2.2-3.4 5-6.2 8.5-8.3q5.2-3.2 11.6-4.6c4.3-1 8.6-1.5 12.9-1.5 4.3 0 8.5 0.5 12.8 1.5q6.5 1.4 11.7 4.6 5.1 3.2 8.4 8.3c2.1 3.5 3.2 7.7 3.2 12.7v60zm97.9-12.6q-3.1 5.1-8.1 8.3c-3.3 2.1-7.1 3.5-11.3 4.5q-6.2 1.3-12.5 1.3c-4.2 0-8.1-0.4-12.2-1.3q-6.3-1.4-11.3-4.5c-3.4-2.1-6.2-4.9-8.3-8.3-2.2-3.5-3.3-7.8-3.3-12.8v-60.1h18.4v59q0 3.7 1.5 6.2c1.1 1.6 2.4 3 4 4 1.6 1 3.4 1.7 5.4 2.2q3 0.7 5.8 0.7c1.9 0 3.9-0.3 5.9-0.7q2.9-0.7 5.4-2.2 2.4-1.5 4-4 1.5-2.5 1.5-6.2v-78.3h18.3v79.4c0 5-1.1 9.3-3.2 12.8zm82.9 0q-3.2 5.1-8.1 8.3c-3.4 2.1-7.1 3.5-11.3 4.5q-6.3 1.3-12.5 1.3c-4.2 0-8.1-0.4-12.3-1.3q-6.2-1.4-11.3-4.5c-3.3-2.1-6.1-4.9-8.3-8.3q-3.1-5.2-3.1-12.8v-60.1h18.3v59q0 3.7 1.6 6.2c1 1.6 2.3 3 3.9 4 1.6 1 3.4 1.7 5.4 2.2q3 0.7 5.8 0.7c1.9 0 3.9-0.3 5.9-0.7q2.9-0.7 5.4-2.2 2.5-1.5 4-4 1.5-2.5 1.5-6.2v-78.3h18.3v79.4c0 5-1.1 9.3-3.1 12.8zm-73.3-83.7l6.4-11.4h47.6v11.4zm145.3 96.3v-66.5l-8.9 8.1-13.2-11.6c-2.4 1-4.7 2.4-6.8 4.2-2.1 1.9-4 4-5.7 6.4q-2.4 3.6-3.9 8-1.4 4.4-1.4 9.3c0 4.6 0.7 8.7 2.2 12.4 1.4 3.7 3.6 6.8 6.4 9.3 2.9 2.5 6.4 4.2 10.6 5.2q6.3 1.5 14.4 0.1v15.3c-9.1 1.3-16.9 1-23.3-0.9q-9.8-2.7-16.2-8.7-6.4-5.9-9.4-14.4-3-8.5-3-18.3c0-5.8 0.9-11.3 2.8-16.3 1.8-4.9 4.4-9.4 7.8-13.3 3.4-3.8 7.4-7.1 12.1-9.7 4.7-2.7 9.9-4.5 15.6-5.7l11 9.6 9.8-8h17.4v85.5zm109.2-42.8c0 7.8-1 14.4-3.2 20q-3.2 8.5-8.8 13.8c-3.7 3.6-8 6.3-12.9 8q-7.3 2.5-15.5 2.5c-5.4 0-10.5-0.8-15.4-2.5q-7.3-2.5-12.8-7.9c-3.7-3.6-6.7-8.2-8.8-13.8q-3.3-8.4-3.3-20.1 0-3.2 0.3-6.8 0.3-3.5 0.9-6.2h32.3v14.2h-15.3c0.1 4.7 0.7 8.7 1.9 12.3 1.1 3.5 2.6 6.4 4.6 8.8 1.9 2.4 4.2 4.2 6.9 5.3q4 1.8 8.8 1.8c3.2 0 6.3-0.6 9-1.9q4.1-1.8 7-5.5c1.9-2.5 3.4-5.5 4.5-9.2q1.6-5.6 1.6-12.7 0-7.2-1.6-12.7-1.6-5.5-4.6-9.2-2.9-3.6-7-5.5-4-1.9-8.9-1.9c-2.2 0-4.2 0.3-6.2 0.9q-2.8 0.9-5.1 2.4c-1.6 1.1-3 2.2-4.1 3.5q-1.7 1.9-2.6 4.1h-19.9c1.5-4.6 3.6-8.5 6.2-11.8 2.6-3.3 5.6-5.9 8.9-8q5.1-3.2 10.8-4.6 5.8-1.5 12-1.5 8.2 0 15.5 2.5c4.9 1.7 9.2 4.4 12.8 8q5.6 5.3 8.8 13.8c2.2 5.6 3.3 12.3 3.3 20zm63.1 42.8v-47.7q-6-0.8-12.5-0.3-6.6 0.4-12.2 2.4-5.5 2-9.1 5.8-3.6 3.8-3.6 10.1c0 2.9 0.7 5.4 2 7.5 1.4 2.2 3.3 3.8 5.6 5.1q3.6 1.9 8.3 2.5 4.7 0.6 10.2-0.3v15.6c-6.3 1-12.2 1.2-17.6 0.3-5.5-0.8-10.1-2.5-14.1-5.1-4-2.5-7.1-5.9-9.4-10.2q-3.3-6.4-3.3-15.4c0-6 1.5-11.4 4.5-15.9 3-4.5 7-8 12-10.8q7.4-4.1 17.3-5.7c6.5-1 13.3-1.2 20.4-0.5q-0.2-1.9-1.6-3.6c-1-1.2-2.3-2.2-3.9-3.1-1.7-0.8-3.7-1.5-6-2-2.3-0.5-4.9-0.7-7.7-0.7-5 0-10.3 0.6-15.7 2-5.4 1.4-10.9 4-16.6 7.8v-16.3q6.2-3.9 14.6-6.2 8.4-2.4 20.7-2.4c4.5 0 8.9 0.5 13.2 1.5q6.5 1.4 11.5 4.5c3.4 2.1 6.1 4.8 8.1 8.2q3.1 5.1 3.1 12.4v60.6h-18.3zm-1043.7 122.6v-53.1l-15.9 33.4h-9l-15.8-33.4v53.1h-13.9v-76.1h17.3l17.4 36.6 17-36.6h17.3v76.1zm88.4-18.5c-1 3.9-2.7 7.3-4.9 10.3q-3.4 4.5-8.9 7.3-5.6 2.7-13.5 2.7-8.4 0-14.4-2.2c-4-1.4-7.2-3.5-9.7-6.2-2.5-2.8-4.4-6.2-5.5-10.1q-1.7-6-1.7-13.7v-45.7h14.2v45.4q0 4.2 0.6 7.9c0.4 2.4 1.3 4.5 2.5 6.2 1.2 1.7 2.9 3.1 5.1 4.1 2.2 0.9 5.1 1.4 8.7 1.4q4.1 0 6.9-1.5 2.8-1.6 4.5-4.3c1.2-1.8 2-3.9 2.5-6.4 0.5-2.4 0.8-5 0.8-7.7v-45.1h14.4v45.6c0 4.1-0.5 8.1-1.5 12zm64.1 18.5l-7.1-19.9h-27.8l-7 19.9h-14.7l28.5-76.1h14.8l28.5 76.1zm-20.9-57.1l-9.2 24.4h18.4zm87.6 57.1l-30.9-56.9v56.9h-13.9v-76h18.2l27.9 51.3v-51.3h13.8v76zm91.3-3.5c-1.8 0.8-3.9 1.7-6.3 2.5-2.5 0.8-5.2 1.5-8.4 2q-4.7 0.8-10.5 0.8-8.3 0-15.5-2.7c-4.7-1.8-9-4.4-12.5-7.8q-5.4-5.1-8.4-12.5-3.1-7.4-3.1-16.8c0-6.5 1.1-12.2 3.2-17.2q3.3-7.3 8.9-12.3 5.5-4.9 12.9-7.4 7.4-2.4 15.7-2.4c2.8 0 5.4 0.1 7.8 0.4 2.4 0.2 4.7 0.6 6.9 1.2q3.4 0.9 6.7 2.3c2.3 0.9 4.6 2.1 7 3.4v17.4c-4.6-4.3-9.2-7.5-13.8-9.3q-7-2.8-15.1-2.8c-3.6 0-6.9 0.6-10 1.7-3 1.2-5.8 3-8 5.3q-3.4 3.5-5.3 8.4-2 5-1.9 11.4c0 3.6 0.6 6.9 1.8 10.2q1.8 4.9 5 8.6c2.1 2.4 4.7 4.4 7.6 5.9 2.9 1.4 6.2 2.2 9.8 2.2q4.9 0 8.9-0.8 4-0.7 6.8-1.8v-13.9h-19.2v-12.8h33.8v34.2c-1.4 0.8-2.9 1.7-4.7 2.6zm50.8-59.6v63.1h-14.4v-63.1h-25.7v-13h66v13zm80.3 63.1v-35.2h-31.1v35.2h-14.5v-76h14.5v27.8h31.1v-27.8h14.4v76zm77.9 0l-7.2-19.9h-27.7l-7 19.9h-14.8l28.5-76h14.9l28.5 76zm-21-57.1l-9.2 24.4h18.4zm39.8 57.1v-11.7h9.5v-52.4h-9.5v-11.9h33.4v11.9h-9.4v52.4h9.4v11.7zm142.2-3.3q-2.7 1.3-5.9 2.4-3.3 1-7.3 1.7-4 0.7-9 0.7c-5.4 0-10.4-1-15-2.8-4.6-1.9-8.5-4.6-11.9-8q-5-5.2-7.9-12.6c-1.9-4.9-2.8-10.3-2.8-16.4q0-8.2 2.8-15.4 2.8-7.2 7.9-12.4c3.3-3.5 7.2-6.2 11.7-8.2q6.7-3 14.7-3c5.5 0 10.5 0.7 15.1 2.2q6.8 2.1 12.4 5.2v16.9q-3.6-3.5-6.7-5.7-3.1-2.3-6.2-3.6c-2.1-0.9-4.2-1.5-6.4-1.9-2.1-0.3-4.5-0.4-7.1-0.4-3.2 0-6.3 0.6-9.1 1.7-2.9 1.2-5.4 3-7.4 5.2-2.1 2.3-3.7 5-4.9 8.2q-1.8 4.9-1.8 10.8c0 4.3 0.6 8.2 1.8 11.6q1.8 5.2 5 8.7 3.2 3.6 7.6 5.5 4.4 1.9 9.6 1.9c2.6 0 5-0.2 7.2-0.7q3.3-0.7 6.3-2.2 3.1-1.5 6-3.7 2.9-2.3 6.2-5.4v17c-1.4 1-3 1.9-4.8 2.8zm63.6 3.4l-7.1-20h-27.7l-7.1 20h-14.7l28.5-76.1h14.8l28.5 76.1zm-20.9-57.1l-9.2 24.4h18.4zm95.5 5.8c-0.1 3.6-1 6.9-2.6 9.9-1.7 3-3.9 5.6-6.6 7.8-2.8 2.2-5.9 3.8-9.5 5q-5.3 1.8-11 1.8h-8.5v26.7h-14.5v-76.1h19.8c5 0 9.6 0.6 13.7 1.7q6.1 1.7 10.5 4.9 4.3 3.2 6.5 7.9c1.5 3 2.2 6.5 2.2 10.4zm-14.9-0.1q0 0 0 0 0 0 0 0.1zm-1.3-5.2c-0.8-1.5-2-2.8-3.5-3.8-1.6-1-3.5-1.8-5.6-2.3q-3.2-0.8-7.2-0.8h-5.7v23.9h4.9q3.8 0 7.1-0.7 3.4-0.7 5.8-2.1c1.7-1 3-2.2 3.9-3.7q1.5-2.2 1.6-5.3 0-3-1.3-5.2zm23 56.5v-11.8h9.5v-52.4h-9.5v-11.9h33.4v11.9h-9.4v52.4h9.4v11.8zm79.3-63.1v63.1h-14.4v-63.1h-25.7v-13h65.9v13zm82.2 63.1l-7.2-20h-27.7l-7.1 20h-14.7l28.5-76.1h14.8l28.6 76.1zm-21-57.1l-9.2 24.4h18.4zm42.9 57.1v-76.1h14.5v63.1h35.9v13zm-1294.1 61.9c-93.5 0-169.1-75.3-169.1-168.5 0-93.2 75.6-168.5 169.1-168.5 93.5 0 169.1 75.3 169.1 168.5 0 93.2-75.6 168.5-169.1 168.5zm-149.1-169.1c0 24.5 6 47.6 16.6 68 0.8-0.8 77-78.9 84.4-197.8 0 0 14.8 112.2 48.1 151.2 33.2-39 47.9-151.2 47.9-151.2 7.5 119.1 83.9 197.2 84.5 197.8 10.6-20.4 16.6-43.5 16.6-68 0-82.1-66.7-148.6-149-148.6-82.4 0-149.1 66.6-149.1 148.6zm271 85.4c-11.1-9.6-45.9-44.3-74-125.1 0 0-14.7 61.1-35.6 79.6 0 10.6 20.9 28.2 20.9 28.2v28.7c0 0-33.2-30.5-33.2-38.6 0 8.1-33.3 38.6-33.3 38.6v-28.7c0 0 20.9-17.6 20.9-28.2-20.9-18.5-35.7-79.6-35.7-79.6-27.9 80.8-62.8 115.5-73.9 125.1 27 38.2 71.5 63.2 122 63.2 50.4 0 94.9-25 121.9-63.2z"/>
</svg>