<svg version="1.2" xmlns="http://www.w3.org/2000/svg" viewBox="0 0 1516 338" width="1516" height="338">
	<title>MuangThai Capital</title>
	<defs>
		<clipPath clipPathUnits="userSpaceOnUse" id="cp1">
			<path d="m0 0h1516v337h-1516z"/>
		</clipPath>
	</defs>
	<g id="Clip-Path" clip-path="url(#cp1)">
		<g id="Layer">
			<path fill="#000000" d="m402.4 67h18.4v85.5h-18.4z"/>
			<path fill="#000000" d="m505.7 138.7q-2 5.3-5.7 8.6c-2.5 2.3-5.4 3.9-8.8 4.9q-5.2 1.6-11.2 1.6c-2.6 0-5-0.3-7.3-0.9-2.3-0.5-4.4-1.3-6.5-2.2q-3-1.4-5.6-3.2-2.5-1.9-4.6-3.8v8.8h-18.3v-85.5h18.3v54.3c0 1.9 0.6 3.9 1.7 6q1.7 3.1 4.6 5.7 2.9 2.6 7 4.4 4.2 1.7 9 1.7 5.4 0 8.3-3 2.9-2.9 2.9-9.5v-59.6h18.3v59.2q0 7.3-2.1 12.5z"/>
			<path fill="#000000" d="m438.8 56.2l6.4-11.4h26.1v-11h12v11h6.3v-11h18.4v22.4h-69.1z"/>
			<path fill="#000000" d="m598.8 109.7c0 7.8-1 14.4-3.2 20q-3.2 8.5-8.7 13.8c-3.7 3.6-8 6.3-12.9 8q-7.3 2.5-15.5 2.5c-5.5 0-10.5-0.8-15.4-2.5q-7.3-2.5-12.9-7.9c-3.7-3.6-6.6-8.2-8.8-13.8q-3.3-8.4-3.3-20.1c0-2.1 0.1-4.4 0.3-6.8q0.4-3.5 1-6.2h32.2v14.2h-15.2c0.1 4.7 0.7 8.7 1.8 12.3 1.2 3.5 2.7 6.4 4.6 8.8 2 2.4 4.2 4.2 6.9 5.3q4 1.8 8.8 1.8c3.2 0 6.4-0.6 9.1-1.9q4-1.8 6.9-5.5c2-2.5 3.5-5.5 4.5-9.2q1.6-5.6 1.6-12.7 0-7.2-1.6-12.7-1.5-5.5-4.5-9.2c-2-2.4-4.3-4.2-7-5.5q-4.1-1.9-8.9-1.9-3.4 0-6.2 0.9-2.9 0.9-5.2 2.4c-1.5 1.1-2.9 2.2-4 3.5q-1.8 1.9-2.7 4.1h-19.8c1.5-4.6 3.6-8.5 6.2-11.8 2.5-3.3 5.5-5.9 8.9-8q5-3.2 10.8-4.6 5.8-1.5 11.9-1.5 8.2 0 15.5 2.5 7.4 2.6 12.9 8 5.5 5.3 8.8 13.8 3.2 8.4 3.2 20z"/>
			<path fill="#000000" d="m674.7 108c0 8.3-1.2 15.5-3.6 21.7q-3.6 9.2-10.9 15-7.2 5.8-18.3 8-11.1 2.1-26 0.2l-12.2-75.3 17.2-11.3 10.8 71.1q5.1 0 9.5-1.7 4.5-1.7 7.9-5.3 3.4-3.6 5.3-9.1c1.3-3.7 1.9-8.1 1.9-13.3q0.1-6.5-1.2-11.6c-0.8-3.4-2.3-6.2-4.3-8.5q-3-3.5-7.9-5.3c-3.3-1.1-7.4-1.8-12.3-1.8v-14.9q10.8-0.5 19 1.6c5.5 1.4 10.1 3.8 13.7 7.3 3.7 3.4 6.6 7.8 8.4 13.3q2.9 8.2 2.9 19.9z"/>
			<path fill="#000000" d="m715.9 35.1c-1.7 1.1-3.1 2.5-4.3 4.2q-1.7 2.6-1.7 6.5v106.7h-18.3v-105q0-2.2 0.6-3.9c0.4-1.1 0.9-2.1 1.6-3q1-1.3 2.1-2.3 1.2-1.1 2.5-1.9c0-0.6-0.4-1.1-1.3-1.6q-1.2-0.8-3.2-0.8l-7.6 5.8q-2.4-1.9-5.8-3.7c-2-1-4.5-2-7.4-3.1-2.9-1.1-6.3-1.9-10.4-2.6l9.8-10.1c3.6 0.6 6.6 1.4 8.9 2.4q3.5 1.6 5.1 3.1l7.2-4.9c2.1-0.2 4.5-0.2 7.1 0.2 2.5 0.4 5 1.2 7.2 2.4q3.3 1.8 5.5 4.7 2.3 2.9 2.3 7z"/>
			<path fill="#000000" d="m780.9 152.5v-59.6c0-4.3-1-7.5-2.9-9.5-2-1.9-4.7-3-8.3-3-3.2 0-6.3 0.6-9 1.8q-4.1 1.7-7 4.3-3 2.6-4.6 5.8-1.7 3.1-1.7 5.9v54.3h-18.3v-85.5h18.3v8.8q2.1-1.9 4.6-3.7 2.6-1.8 5.6-3.3c2.1-0.9 4.2-1.7 6.5-2.2 2.3-0.6 4.7-0.9 7.3-0.9q6 0 11.1 1.6c3.5 1 6.4 2.7 8.9 4.9 2.4 2.2 4.4 5.1 5.7 8.6q2.1 5.2 2.1 12.5v59.2h-18.2z"/>
			<path fill="#000000" d="m844.1 152.9c-4.5 0.1-8.9-0.2-13.1-0.9q-6.3-0.9-11.3-3.9-4.9-2.9-7.9-8.2c-2-3.5-3-8.1-3-13.7q0-4.7 1.5-8.3c0.9-2.4 2.2-4.5 3.6-6.2 1.5-1.8 3.2-3.2 5-4.4q2.7-1.7 5.2-2.5c-1.6-0.3-3.2-0.9-4.9-1.9-1.7-0.9-3.2-2.1-4.5-3.5q-2-2.2-3.4-5c-0.8-1.9-1.3-4-1.3-6.2q0-6.4 3.1-11c1.9-3.1 4.7-5.5 8.1-7.3 3.5-1.9 7.5-3 12-3.6 4.6-0.5 9.5-0.5 14.7 0.2v14.7q-3.7-0.9-7.3-0.8c-2.3 0-4.4 0.4-6.3 1-1.8 0.7-3.3 1.6-4.4 2.8-1.1 1.2-1.6 2.7-1.6 4.3q0 2.5 1.4 4.3c1 1.2 2.2 2.1 3.7 2.8q2.4 1 5.4 1.3c2 0.2 4 0.3 6.1 0.2l6.3 13.2q-5.4-0.4-9.8 0.4c-3 0.5-5.5 1.5-7.6 2.7q-3.2 1.9-5 4.9-1.7 2.9-1.7 6.5 0 4.7 1.9 7.4 1.9 2.7 4.9 4c2.1 0.9 4.3 1.5 6.9 1.7 2.5 0.2 5 0.2 7.5 0.2l14.4-0.4v-70.7h18.3v85.5l-36.9 0.4z"/>
			<path fill="#000000" d="m951 67h18.4v85.5h-18.4zm32.2 0h18.2v85.6h-18.2z"/>
			<path fill="#000000" d="m1072.6 152.5v-59q0-3.7-1.6-6.1-1.7-2.5-4.3-4.1-2.6-1.5-5.8-2.1-3.1-0.7-6.1-0.7-3 0-6.1 0.7c-2.1 0.4-4 1.2-5.8 2.1q-2.7 1.6-4.3 4.1-1.7 2.4-1.6 6.1v7h22v15.9h-22v36.1h-18.4v-60c0-5 1.1-9.2 3.3-12.7 2.1-3.4 5-6.2 8.4-8.3q5.2-3.2 11.7-4.6c4.3-1 8.5-1.5 12.8-1.5 4.3 0 8.6 0.5 12.9 1.5q6.4 1.4 11.6 4.6 5.2 3.2 8.4 8.3c2.1 3.5 3.3 7.7 3.3 12.7v60h-18.3z"/>
			<path fill="#000000" d="m1170.5 139.9q-3.2 5.1-8.1 8.3c-3.4 2.1-7.1 3.5-11.3 4.5q-6.3 1.3-12.5 1.3c-4.2 0-8.1-0.4-12.3-1.3q-6.2-1.4-11.3-4.5c-3.3-2.1-6.1-4.9-8.3-8.3-2.1-3.5-3.2-7.8-3.2-12.9v-60h18.4v59q0 3.7 1.5 6.2c1 1.6 2.4 3 4 4 1.6 1 3.3 1.7 5.4 2.2q3 0.7 5.8 0.7c1.8 0 3.9-0.3 5.8-0.7q3-0.7 5.5-2.2 2.4-1.5 3.9-4 1.6-2.5 1.6-6.2v-78.3h18.3v79.3c0 5.1-1.1 9.4-3.2 12.9z"/>
			<path fill="#000000" d="m1253.4 139.9q-3.2 5.1-8.2 8.3c-3.3 2.1-7 3.5-11.2 4.5q-6.3 1.3-12.5 1.3c-4.2 0-8.1-0.4-12.3-1.3q-6.2-1.4-11.3-4.5c-3.4-2.1-6.1-4.9-8.3-8.3q-3.2-5.2-3.2-12.9v-60h18.4v59q0 3.7 1.5 6.2c1.1 1.6 2.4 3 4 4 1.6 1 3.4 1.7 5.4 2.2q3 0.7 5.8 0.7c1.9 0 3.9-0.3 5.9-0.7q2.9-0.7 5.4-2.2 2.4-1.5 4-4 1.5-2.5 1.5-6.2v-78.3h18.3v79.3c0 5.1-1.1 9.4-3.2 12.9z"/>
			<path fill="#000000" d="m1180.1 56.2l6.5-11.4h47.6v11.4h-54.1z"/>
			<path fill="#000000" d="m1325.5 152.5v-66.5l-9 8.1-13.1-11.6c-2.5 1-4.7 2.4-6.9 4.2-2.1 1.9-4 4-5.6 6.4q-2.5 3.6-3.9 8-1.5 4.4-1.5 9.3c0 4.6 0.7 8.7 2.2 12.4 1.4 3.7 3.6 6.8 6.4 9.3 2.9 2.4 6.4 4.2 10.6 5.2q6.3 1.5 14.4 0.1v15.3c-9 1.3-16.8 1-23.3-0.9q-9.8-2.7-16.2-8.7-6.4-5.9-9.4-14.4-3-8.5-3-18.3c0-5.8 1-11.3 2.8-16.3 1.8-5 4.4-9.4 7.8-13.3 3.4-3.8 7.4-7.1 12.1-9.7 4.7-2.7 9.9-4.5 15.6-5.7l11 9.6 9.8-8h17.4v85.5z"/>
			<path fill="#000000" d="m1434.7 109.7c0 7.8-1.1 14.4-3.3 20q-3.2 8.5-8.7 13.8c-3.7 3.6-8 6.3-12.9 8q-7.3 2.5-15.5 2.5c-5.5 0-10.5-0.8-15.4-2.5q-7.3-2.5-12.9-7.9c-3.7-3.6-6.6-8.2-8.8-13.8q-3.3-8.4-3.3-20.1 0-3.2 0.3-6.8 0.4-3.5 1-6.2h32.2v14.2h-15.2c0.1 4.7 0.7 8.7 1.8 12.3 1.2 3.5 2.7 6.4 4.6 8.8 2 2.4 4.2 4.2 6.9 5.3q4 1.8 8.8 1.8c3.2 0 6.4-0.6 9.1-1.9q4-1.8 6.9-5.5c2-2.5 3.5-5.5 4.5-9.2q1.6-5.6 1.6-12.7 0-7.2-1.6-12.7-1.5-5.5-4.5-9.2-3-3.6-7-5.5-4.1-1.9-8.9-1.9c-2.3 0-4.3 0.3-6.2 0.9q-2.9 0.9-5.2 2.4c-1.5 1.1-2.9 2.2-4 3.5q-1.8 1.9-2.7 4.1h-19.8c1.5-4.6 3.6-8.5 6.2-11.8 2.5-3.3 5.5-5.9 8.9-8q5-3.2 10.8-4.6 5.8-1.5 11.9-1.5 8.2 0 15.5 2.5c4.9 1.7 9.2 4.4 12.9 8q5.5 5.3 8.8 13.8c2.1 5.6 3.2 12.3 3.2 20z"/>
			<path fill="#000000" d="m1497.8 152.5v-47.7q-5.9-0.7-12.5-0.3-6.6 0.4-12.2 2.4-5.5 2-9.1 5.8-3.6 3.8-3.6 10.1c0 3 0.7 5.5 2 7.6 1.4 2.1 3.3 3.8 5.6 5.1q3.6 1.9 8.3 2.4 4.7 0.6 10.2-0.2v15.6c-6.3 1-12.2 1.1-17.6 0.3-5.4-0.9-10.1-2.6-14.1-5.1-4-2.6-7.1-6-9.4-10.2q-3.3-6.5-3.3-15.4c0-6 1.5-11.5 4.5-15.9 3-4.5 7-8.1 12-10.8q7.4-4.2 17.3-5.7c6.5-1 13.3-1.2 20.4-0.5q-0.2-1.9-1.6-3.7c-1-1.1-2.2-2.1-3.9-3-1.7-0.8-3.7-1.6-6-2.1-2.3-0.4-4.9-0.7-7.6-0.7-5.1 0-10.4 0.7-15.8 2.1-5.4 1.3-10.9 3.9-16.6 7.8v-16.3q6.2-3.9 14.6-6.2 8.4-2.4 20.7-2.4c4.5 0 8.9 0.4 13.2 1.4q6.5 1.4 11.5 4.6c3.4 2.1 6.1 4.8 8.1 8.2q3.1 5.1 3.1 12.4v60.5h-18.3z"/>
			<path fill="#000000" d="m454.1 275.1v-53.1l-15.9 33.5h-9l-15.8-33.5v53.1h-13.9v-76h17.2l17.5 36.6 17-36.6h17.3v76h-14.4z"/>
			<path fill="#000000" d="m542.5 256.6c-1 3.9-2.7 7.4-4.9 10.4q-3.4 4.5-8.9 7.2-5.5 2.8-13.5 2.8-8.4 0-14.4-2.2c-4-1.4-7.2-3.5-9.7-6.3-2.5-2.7-4.3-6.1-5.5-10.1q-1.7-5.9-1.7-13.6v-45.7h14.2v45.4q0 4.2 0.6 7.8c0.4 2.4 1.3 4.5 2.5 6.3 1.3 1.7 3 3.1 5.2 4 2.1 1 5.1 1.5 8.7 1.5q4 0 6.8-1.6 2.8-1.5 4.6-4.2c1.1-1.8 1.9-4 2.4-6.4 0.5-2.4 0.8-5 0.8-7.7v-45.1h14.4v45.5c0 4.2-0.5 8.2-1.5 12.1z"/>
			<path id="Layer" fill-rule="evenodd" fill="#000000" d="m606.6 275.1l-7.1-19.9h-27.7l-7.1 19.9h-14.7l28.5-76h14.8l28.5 76zm-20.9-57.1l-9.2 24.4h18.4z"/>
			<path fill="#000000" d="m673.4 275.1l-31-56.9v56.9h-13.9v-76h18.2l27.9 51.3v-51.3h13.8v76z"/>
			<path fill="#000000" d="m764.7 271.6c-1.8 0.8-3.9 1.7-6.3 2.5-2.5 0.8-5.2 1.5-8.4 2q-4.7 0.8-10.5 0.8-8.3 0-15.4-2.7c-4.8-1.8-9-4.4-12.6-7.8q-5.4-5.1-8.4-12.5-3.1-7.4-3.1-16.8c0-6.5 1.1-12.2 3.3-17.2q3.2-7.3 8.8-12.3 5.6-4.9 12.9-7.4 7.4-2.4 15.7-2.4c2.8 0 5.4 0.1 7.8 0.4 2.4 0.2 4.7 0.6 7 1.2q3.3 0.9 6.6 2.3c2.3 0.9 4.6 2.1 7.1 3.4v17.4c-4.7-4.3-9.3-7.5-13.9-9.3q-7-2.8-15.1-2.8c-3.6 0-6.9 0.6-10 1.7-3 1.2-5.7 3-8 5.3q-3.4 3.5-5.3 8.4-1.9 5-1.9 11.4c0 3.6 0.6 6.9 1.8 10.2q1.8 4.9 5 8.6c2.1 2.4 4.7 4.4 7.6 5.9 2.9 1.4 6.2 2.2 9.8 2.2q4.9 0 8.9-0.8 4-0.7 6.8-1.8v-13.9h-19.2v-12.8h33.8v34.2c-1.4 0.8-2.9 1.7-4.7 2.6z"/>
			<path fill="#000000" d="m815.6 212v63.1h-14.4v-63.1h-25.7v-13h65.9v13z"/>
			<path fill="#000000" d="m895.9 275.1v-35.2h-31.1v35.2h-14.5v-76h14.5v27.8h31.1v-27.8h14.4v76z"/>
			<path id="Layer" fill-rule="evenodd" fill="#000000" d="m973.8 275.1l-7.2-19.9h-27.7l-7.1 19.9h-14.7l28.5-76h14.9l28.5 76zm-21-57.1l-9.2 24.4h18.4z"/>
			<path fill="#000000" d="m992.7 275.1v-11.8h9.4v-52.3h-9.4v-11.9h33.3v11.9h-9.4v52.3h9.4v11.8z"/>
			<path fill="#000000" d="m1134.8 271.7q-2.6 1.4-5.8 2.4-3.3 1.1-7.3 1.8-4.1 0.7-9.1 0.7c-5.3 0-10.3-1-14.9-2.9-4.6-1.8-8.6-4.5-11.9-7.9q-5.1-5.2-7.9-12.6c-1.9-4.9-2.9-10.3-2.9-16.4q0-8.3 2.9-15.4 2.8-7.2 7.8-12.4c3.3-3.5 7.3-6.2 11.8-8.2q6.7-3 14.6-3c5.6 0 10.6 0.7 15.1 2.1q6.8 2.2 12.5 5.3v16.9q-3.6-3.6-6.7-5.8-3.2-2.2-6.3-3.5c-2-0.9-4.1-1.6-6.3-1.9-2.2-0.3-4.5-0.5-7.1-0.5-3.3 0-6.3 0.7-9.2 1.8-2.8 1.2-5.3 3-7.3 5.2-2.1 2.2-3.7 5-4.9 8.2q-1.8 4.9-1.8 10.8c0 4.3 0.6 8.2 1.8 11.6q1.8 5.1 5 8.7 3.2 3.5 7.6 5.5 4.4 1.9 9.6 1.9c2.6 0 4.9-0.2 7.1-0.7q3.3-0.7 6.4-2.2 3-1.5 6-3.8 2.9-2.2 6.1-5.4v17.1c-1.4 0.9-2.9 1.9-4.7 2.8z"/>
			<path id="Layer" fill-rule="evenodd" fill="#000000" d="m1198.4 275.1l-7.1-19.9h-27.7l-7.1 19.9h-14.7l28.5-76h14.8l28.5 76zm-20.9-57.1l-9.2 24.4h18.4z"/>
			<path id="Layer" fill-rule="evenodd" fill="#000000" d="m1272.9 223.8c0 3.6-0.9 7-2.5 9.9-1.7 3-3.9 5.6-6.6 7.8-2.8 2.2-5.9 3.9-9.5 5.1q-5.3 1.8-11 1.7h-8.5v26.7h-14.5v-76h19.7c5.1 0 9.7 0.5 13.8 1.7q6.1 1.6 10.5 4.9 4.3 3.2 6.5 7.8c1.5 3.1 2.2 6.5 2.1 10.4zm-14.9-0.1q0 0 0 0 0 0.1 0 0.1zm-1.2-5.2c-0.8-1.5-2-2.8-3.5-3.7-1.6-1.1-3.5-1.8-5.6-2.4q-3.2-0.8-7.2-0.8h-5.7v24h4.9q3.8 0 7.1-0.8 3.4-0.7 5.8-2.1c1.7-1 3-2.2 3.9-3.7q1.5-2.2 1.5-5.3 0.1-3-1.2-5.2z"/>
			<path fill="#000000" d="m1279.8 275.1v-11.8h9.5v-52.3h-9.5v-11.9h33.4v11.9h-9.4v52.3h9.4v11.8z"/>
			<path fill="#000000" d="m1359.1 212v63.1h-14.4v-63.1h-25.7v-13h66v13z"/>
			<path id="Layer" fill-rule="evenodd" fill="#000000" d="m1441.2 275.1l-7.1-19.9h-27.7l-7.1 19.9h-14.7l28.5-76h14.8l28.5 76zm-20.9-57.1l-9.2 24.4h18.4z"/>
			<path fill="#000000" d="m1463.2 275.1v-76h14.5v63h35.9v13z"/>
			<path id="Layer" fill-rule="evenodd" fill="#000000" d="m169.1 337c-93.5 0-169.1-75.3-169.1-168.5 0-93.2 75.6-168.5 169.1-168.5 93.5 0 169.1 75.3 169.1 168.5 0 93.2-75.6 168.5-169.1 168.5zm-149.1-169.1c0 24.6 6 47.6 16.6 68 0.8-0.8 77.1-78.9 84.5-197.8 0 0 14.7 112.3 48 151.2 33.2-38.9 48-151.2 48-151.2 7.4 119.1 83.9 197.3 84.4 197.8 10.6-20.4 16.6-43.5 16.6-68 0-82.1-66.7-148.6-149-148.6-82.4 0-149.1 66.6-149.1 148.6zm271 85.4c-11.1-9.6-45.9-44.3-73.9-125.1 0 0-14.8 61.1-35.6 79.6 0 10.6 20.8 28.2 20.8 28.2v28.7c0 0-33.2-30.5-33.2-38.6 0 8.1-33.3 38.6-33.3 38.6v-28.7c0 0 20.9-17.6 20.9-28.2-20.9-18.5-35.6-79.6-35.6-79.6-28 80.8-62.8 115.5-74 125.1 27 38.2 71.6 63.2 122 63.2 50.4 0 94.9-25 121.9-63.2z"/>
		</g>
	</g>
</svg>