<svg version="1.2" xmlns="http://www.w3.org/2000/svg" viewBox="0 0 1550 971" width="1550"
	height="971">
	<title>MDLZ</title>
	<path fill-rule="evenodd" fill="#4f2170"
		d="m459.6 890.2c-112.8 98.6-331 121.9-429.6-17.9-68-98.3-14.2-240 107.4-261.2 60.9-10.8 119.8 21.2 157.5 68 24.9 30.3 37.7 68 61 96.6 28.6 35.7 75 50.2 119.8 44.8 21.6-3.7 57.3-10.8 80.5-32.3q-40.4 59.2-96.6 102z" />
	<path fill-rule="evenodd" fill="#4f2170"
		d="m1347 729.3c-91.2-100.4-119.9-265.3-125.2-376.1-5.4-95 0-259.9 75-308.1-24.9-32.3-75-44.8-112.4-44.8-84.2 0-125.2 55.3-153.9 96.7-9.1 12.4-152.1 209.4-152.1 209.4 0 0-118.2-184.5-132.7-206.1-19.5-30.3-58.9-87.5-125.2-96.6-28.6-3.4-103.7-7.1-144.8 48.5 69.7 55.5 68 198.6 53.5 297.3-44.7 291.9-170 318.8-170 318.8 64.7 171.7 227.3 103.7 273.7-34 30.7-89.5 50.2-202.3 53.9-295.6l180.8 277.4 204-275.7c-34 487.2 134 626.9 280.8 626.9 146.8 0 196.9-134.3 196.9-134.3-80.4-5.4-148.4-46.5-202.3-103.7z" />
</svg>