<svg version="1.2" xmlns="http://www.w3.org/2000/svg" viewBox="0 0 1549 584" width="1549"
	height="584">
	<path fill-rule="evenodd" fill="#ffffff"
		d="m137.1 276.7c-33.5 29.3-98.3 36.2-127.6-5.3-20.2-29.2-4.2-71.3 31.9-77.6 18.1-3.2 35.6 6.3 46.8 20.2 7.4 9 11.2 20.2 18.1 28.7 8.5 10.6 22.3 14.9 35.6 13.3 6.4-1.1 17-3.2 23.9-9.6q-12 17.6-28.7 30.3zm1245.9-30.3c7.4 6.4 17.6 8.5 23.9 9.6 13.3 1.6 27.1-2.7 35.6-13.3 6.9-8.5 10.7-19.7 18.1-28.7 11.2-13.9 28.7-23.4 46.8-20.2 36.1 6.3 52.1 48.4 31.9 77.6-29.3 41.5-94.1 34.6-127.6 5.3q-15.9-12.7-28.7-30.3zm-102-202.1c-0.6 9-8 17.5-17.6 18.1h-87.7c-9.6-0.6-18.1-10.1-17.5-19.7 0.5-9.1 7.9-17.6 17.5-18.1h87.7c10.1 0.5 18.1 10.1 17.6 19.7z" />
	<path fill-rule="evenodd" fill="#ffffff"
		d="m732.4 226.2c0 0-10.1 13.8-27.1 13.8-20.2 0-34.6-9-41.5-22.3q-2.3-4-3.1-9.6c0-2.1-0.6-4.2-0.6-6.4v-67c0 0-1-13.8-13.3-13.8-9.5 0-15.9 11.7-18.6 22.9v69.6c0 13.9-10.6 27.2-28.1 27.2-17.6 0-27.2-13.3-27.7-27.2v-94.6c0-22.4-16.5-28.2-16.5-28.2 0 0 10.1-13.9 27.2-13.9 27.1 0 44.6 16 45.1 38.3 4.8-8 21.8-32.4 51.1-32.4 43 0 37.2 55.8 36.1 87.7v26.1c0.5 4.8 1.1 10.1 2.1 14.9 4.8 12.2 14.9 14.9 14.9 14.9zm413.5 0c0 0-10.1 13.8-27.1 13.8-20.2 0-36.6-10.6-43-23.9-6.4-12.2-5.3-25.5-5.3-38.8v-147.4c0-15.9 13.3-29.2 29.2-29.2 15.9 0 29.2 13.3 29.2 29.2v166.5c0 4.8 1.1 10.1 2.2 14.9 4.7 12.2 14.8 14.9 14.8 14.9zm-669.7 14.4c-44.1 0-79.7-35.7-79.7-79.8 0-44.2 35.6-79.8 79.7-79.8 44.1 0 79.7 35.6 79.7 79.8 0 44.1-35.6 79.8-79.7 79.8zm0-125.6c-12.7 0-22.3 17.6-22.3 45.8 0 28.2 7.4 45.2 22.8 45.7 15.5 0 22.9-17.5 21.8-45.7 0-28.2-9.5-45.2-22.3-45.8z" />
	<path fill-rule="evenodd" fill="#ffffff"
		d="m865.3 0.7c15.9 0 29.2 13.3 29.2 29.2v166.5c0.6 4.8 1.1 10.1 2.2 14.9 4.7 12.2 14.8 14.4 14.8 14.4 0 0-10.1 13.8-27.1 13.8-20.2 0-36.1-10.6-43-23.9-0.6-1.1-0.6-1.6-1.1-2.7-2.6 12.2-19.1 22.3-29.2 25-14.9 4.3-34.6 2.1-47.3-6.4-46.3-29.8-42-149.5 25.5-149.5 24.4 0 39.9 17.1 46.8 26.6v-78.7c0-15.9 13.2-29.2 29.2-29.2zm-56.3 121.2c-12.8 0-22.4 15.5-22.4 39.9 0 24.5 7.5 39.9 22.9 39.9 14.9-0.5 22.3-15.4 21.8-39.9 0-24.4-9.1-39.3-22.3-39.9z" />
	<path fill-rule="evenodd" fill="#ffffff"
		d="m985.4 82c26.1 0 70.7 12.8 70.7 52.2 0 39.3-40.9 42.5-89.3 42.5 0 0 6.9 26.1 40.4 26.1 33.5 0 42-11.7 42-11.7 0 0-3.2 49.5-63.2 49.5-34.6 0-76.1-26.1-76.1-77.7 0-46.3 31.9-80.9 75.5-80.9zm1.7 32c-2.5 0-5.1 0.6-7.5 2.1-11.2 7.4-14.4 22.9-16 35.6 0 1.6 18.6 0.6 19.7 0.6 11.2-2.7 19.1-11.2 19.1-23.4-0.4-8.8-7.6-14.9-15.3-14.9zm232.7-32c26.1 0 70.7 12.8 70.7 52.2 0 39.3-40.9 42.5-89.3 42.5 0 0 6.9 26.1 40.4 26.1 33.5 0 42-11.7 42-11.7 0 0-3.2 49.5-63.2 49.5-34.6 0-76.1-26.1-76.1-77.7 0-46.3 31.9-80.9 75.5-80.9zm1.7 32c-2.5 0-5.1 0.6-7.5 2.1-11.2 7.4-14.4 22.9-16 35.6 0 1.6 18.6 0.6 19.7 0.6 11.2-2.7 19.1-11.2 19.1-23.4-0.4-8.8-7.6-14.9-15.3-14.9z" />
	<path fill-rule="evenodd" fill="#ffffff"
		d="m1393.6 195.3h-33.4c2.6 0 27.1-20.7 35.6-27.6 21.2-18.1 60-44.7 48.9-78.7-2.2-8-8.5-12.8-8.5-12.8 0 0-2.2 6.4-10.1 9.6-3.2 0.5-6.4 1.6-9.6 1.6h-93.6c-12.2 0-22.3 10.1-22.8 21.2 0 11.7 9.6 21.3 21.8 21.3l53.1 0.6c-24.4 13.8-53.6 29.7-68.5 54.7-8.5 14.4-17.6 36.2-14.4 52.7 11.7-10.6 42.5-20.7 65.9-15.4 9.1 1.6 18.1 6.4 25.5 11.1 44.2 27.7 70.7-26.5 49.5-49.9-0.1 0.5-12.4 11.6-39.4 11.6zm-992.9 33.6c-27.1-29.8-35.6-78.8-37.2-111.7-1.6-28.2 0-77.2 22.3-91.5-7.4-9.6-22.3-13.3-33.4-13.3-25 0-37.2 16.4-45.7 28.7-2.7 3.7-45.2 62.2-45.2 62.2 0 0-35.1-54.8-39.4-61.2-5.8-9-17.5-26-37.2-28.7-8.5-1-30.8-2.1-43 14.4 20.7 16.5 20.2 59 15.9 88.3-13.3 86.7-50.5 94.7-50.5 94.7 19.2 51 67.5 30.8 81.3-10.1 9.1-26.6 14.9-60.1 16-87.8l53.7 82.4 60.6-81.9c-10.1 144.7 39.8 186.2 83.4 186.2 43.6 0 58.5-39.9 58.5-39.9-23.9-1.6-44.1-13.8-60.1-30.8zm1032.3-45.2q0-0.1 0-0.1 0 0.1 0 0.1z" />
	<path fill-rule="evenodd" fill="#ffffff"
		d="m536.8 276.2c0.5 2.1 0.5 4.3 1.1 6.4v76.6c0 6.4 5.8 11.7 12.2 11.7 6.4 0.5 12.7-5.3 12.7-11.7v-68.6c0-5.9 0.6-11.7-2.1-16.5-2.6-5.9-10.1-10.1-18-10.1-7.5 0-11.7 5.8-11.7 5.8 0 0 3.7 1.1 5.8 6.4zm794.1 82.5c-0.5-2.2-1-4.3-1-6.4v-76.6c0-6.4-5.9-11.7-12.3-11.7-6.4-0.6-12.7 5.3-12.7 11.7v68.6c0 5.8-0.6 11.7 2.1 16.5 2.7 5.8 10.1 10.1 18.1 10.1 7.4 0 11.7-5.9 11.7-5.9 0 0-3.8-1.6-5.9-6.3z" />
	<path fill-rule="evenodd" fill="#ffffff"
		d="m894 341.6v17.6c0 6.4-6.4 12.2-12.8 11.7-6.3 0-12.2-5.3-12.2-11.7v-33c0 0 0-6.4-5.8-6.4-4.8 0-7.5 4.8-8.5 10.1v29.3c0 6.4-6.4 12.2-12.8 11.7-6.4 0-12.2-5.3-12.2-11.7v-48.4c0-6.4 6.4-11.7 12.7-11.2 6.4 0 12.3 4.8 12.3 11.2v6.4c2.1-3.2 9.5-14.4 22.8-14.4 18.1-0.5 16.5 21.3 16.5 38.8zm320.5 0v17.6c0 6.4-6.4 12.2-12.7 11.7-6.4 0-12.3-5.3-12.3-11.7v-33c0 0 0-6.4-5.8-6.4-4.8 0-7.5 4.8-8.5 10.1v29.3c0 6.4-6.4 12.2-12.8 11.7-6.4 0-12.2-5.3-12.2-11.7v-48.4c0-6.4 6.4-11.7 12.7-11.2 6.4 0 12.3 4.8 12.3 11.2v6.4c2.1-3.2 9.5-14.4 22.8-14.4 18.1-0.5 16 21.3 16.5 38.8zm-574.6 0v17.6c0 6.4-6.4 12.2-12.7 11.7-6.4 0-12.3-5.3-12.3-11.7v-33c0 0 0-6.4-5.8-6.4-4.8 0-7.4 4.8-8.5 10.1v29.3c0 6.4-6.4 12.2-12.8 11.7-6.3 0-12.2-5.3-12.2-11.7v-48.4c0-6.4 6.4-11.7 12.8-11.2 6.3 0 12.2 4.8 12.2 11.2v6.4c2.1-3.2 9.6-14.4 22.8-14.4 18.1-0.5 16 21.3 16.5 38.8z" />
	<path fill-rule="evenodd" fill="#ffffff"
		d="m1107.1 370.9c-19.6 0-35.6-15.9-35.6-35.6 0-19.8 16-35.7 35.6-35.7 19.7 0 35.7 15.9 35.7 35.7 0 19.7-16 35.6-35.7 35.6zm10.1-36.2c0-11.5-4.5-20.7-10.1-20.7-5.5 0-10.1 9.2-10.1 20.7 0 11.5 4.6 20.8 10.1 20.8 5.6 0 10.1-9.3 10.1-20.8zm-156.2-37.2c6.4 0 12.7 5.8 12.7 12.2v49c-0.5 6.9-6.9 12.7-13.8 12.2-5.3-0.5-10.6-4.3-12.2-9.6-2.7 4.3-8 7.5-11.7 8.5-6.4 1.6-15.4 0.6-21.3-3.2-20.7-13.3-19.1-67 11.2-67 11.2 0 18.1 7.5 21.3 11.7v-1.6c0.5-6.9 6.9-12.8 13.8-12.2zm-15.4 37.2c0-10-4.6-18.1-10.1-18.1-5.6 0-10.1 8.1-10.1 18.1 0 10 4.5 18.1 10.1 18.1 5.5 0 10.1-8.1 10.1-18.1zm335.4-37.2c6.3 0 12.7 5.8 12.7 12.2v49c-0.5 6.9-6.9 12.7-13.8 12.2-5.3-0.5-10.6-4.3-12.2-9.6-2.2 4.3-8 7.5-11.7 8.5-6.4 1.6-15.4 0.6-21.3-3.2-20.7-13.3-19.1-67 11.2-67 11.1 0 18 7.5 21.2 11.7v-1.6c0.6-6.9 6.9-12.8 13.9-12.2zm-15.5 37.2c0-10-4.5-18.1-10.1-18.1-5.5 0-10.1 8.1-10.1 18.1 0 10 4.6 18.1 10.1 18.1 5.6 0 10.1-8.1 10.1-18.1z" />
	<path fill-rule="evenodd" fill="#ffffff"
		d="m1063.6 359.7c0 6.4-7.5 11.2-12.8 11.2h-1.1c-5.8-0.5-10.6-5.3-11.1-11.7v-43.1c0-6.4 7.4-11.2 12.7-11.2h1.1c5.8 0.6 10.6 5.3 11.2 11.7zm-12.3-62.2c-6.7 0-12.2-5.5-12.2-12.3 0-6.7 5.5-12.2 12.2-12.2 6.8 0 12.3 5.5 12.3 12.2 0 6.8-5.5 12.3-12.3 12.3zm-240.8 34c-11.6 0-6.3-12.2-11.6-12.2-3.8 0-5.4 5.9-5.9 10.1v30.3c0 6.4-6.4 12.3-12.8 11.7-6.3 0-12.2-5.3-12.2-11.7v-48.4c0.6-6.4 6.9-12.2 13.3-11.7 6.4 0 12.2 5.3 12.2 11.7v3.2c4.8-6.9 8.5-12.2 16-12.8 20.2-1 18.1 29.8 1 29.8zm-80.7-31.9c11.6 0 31.8 5.9 31.8 23.4 0 17.6-18 19.2-39.8 19.2 0 0 3.2 11.7 18 11.7 14.9 0 18.7-5.3 18.7-5.3 0 0-1.1 22.3-28.7 22.3-15.5 0-34.1-11.7-34.1-35.1 0-20.7 14.4-36.2 34.1-36.2zm1.2 14.5c-1.1 0-2.3 0.3-3.4 1-5.3 3.1-6.9 10.1-7.4 15.9 0 0.5 8.5 0 9 0.5 4.8-1 8.5-5.3 8.5-10.6 0-4-3.3-6.8-6.7-6.8zm-36.3 43.5c0 0-6.4 13.3-18.6 13.3-10.1 0-22.4-8.5-22.9-21.3v-33.5h-3.2c-1.6 0-4.8-1.1-4.8-5.8 0-4.8 3.8-5.4 5.4-5.4h3.1v-9c0.6-6.4 6.4-12.2 12.8-11.7 5.9 0.5 12.2 5.3 12.2 11.7v9h10.7c1.5 0 4.7 1.1 4.7 5.9 0 4.8-3.2 5.3-5.3 5.3h-10.1v28.2c-0.5 8.5 7.5 13.3 16 13.3z" />
	<path fill-rule="evenodd" fill="#ffffff"
		d="m1013.6 344.3v-28.2h10.1c2.1 0 5.3-0.5 5.3-5.3 0-4.8-3.2-5.9-4.8-5.9h-10.6v-9c0-6.4-6.4-11.2-12.2-11.7-6.4-0.6-12.3 5.3-12.8 11.7v9h-3.2c-1.6 0-5.3 0.6-5.3 5.3 0 4.8 3.2 5.9 4.8 5.9h3.2v33.5c0.5 12.8 12.7 21.3 22.8 21.3 12.3 0 18.6-13.3 18.6-13.3-7.9 0-15.9-4.8-15.9-13.3zm-944.5 204.3c0-1.6 0.5-2.7 0.5-4.3 0-0.5 0-1.6-0.5-2.1-1.1-1.6-1.1-3.7-2.2-5.9-0.5-2.1-1-4.8-2.1-6.4-1.6-2.1-3.2-3.7-4.8-5.3-0.5-1-1-2.1-1.6-2.6-0.5-0.6-1-0.6-1.6-1.1-1.6-1.6-2.1-3.7-3.7-5.3-2.7-3.2-6.4-6.4-9.6-9.6-1.6-1.6-3.1-2.7-3.7-3.7-2.1-2.1-4.2-4.3-5.8-6.4-1.1-1.6-1.6-3.7-3.2-5.3-1.6-1.6-3.7-2.7-4.3-4.8 0-1.1 0.6-2.7 0-4.3-0.5-1-1-2.1-1-3.2 0-2.1 0.5-3.7 1-5.8 0.6-2.7 1.6-4.3 2.7-6.4 0.5-1.6 1.1-3.7 2.7-4.8 1.5-1.6 4.2-2.1 6.9-2.1 2.1 0 4.7 0.5 6.3 1.1 2.2 0.5 3.8 1.6 5.3 3.1 1.6 1.6 2.7 3.8 3.2 5.9 0 1.6 0.6 3.2 0.6 4.8v6.4c0 2.6-0.6 3.7-0.6 5.3 0 0.5 0 1.6 0.6 3.2 0 1 0.5 2.6 1.6 3.2 1 0.5 1.6 1 3.2 1 3.1 0 3.1-5.8 3.1-7.9 0-4.3-0.5-6.4-0.5-11.2v-9.1c0-3.7-0.5-10.1-0.5-11.7 0-1-1.1-2.6-1.6-3.7 0-0.5-1.1-1-1.6-1-0.5 0-1.6 0.5-2.1 1-0.6 1.1-0.6 1.6-1.1 2.1-1.1 1.1-1.1 3.2-1.1 5.9-1.6-1.6-3.7-2.7-6.3-3.7-2.2-0.6-4.3-1.6-6.4-2.2-2.1-0.5-3.7-1-5.9-1-3.1 0-4.2 1.6-6.9 1.6-4.8 0.5-7.4 1-11.7 3.7-4.2 2.7-7.9 6.4-10.6 10.6-2.7 4.8-4.8 8.6-4.8 14.4 0 4.3 1.1 8.5 1.6 11.7 1.1 4.8 2.1 10.1 5.3 14.4 3.2 4.2 6.4 8.5 10.1 12.2 3.7 3.7 6.9 7.5 10.1 11.2 3.2 4.2 6.9 7.4 9.6 11.7 1.6 2.1 2.1 4.8 3.2 6.9 1 2.1 2.6 3.7 3.2 5.8 0.5 1.1 0.5 1.6 0.5 2.7 0 1.1 0 2.7-1.1 4.3-0.5 1.6-2.6 3.2-4.2 4.2-1.6 1.1-4.3 0.6-6.4 1.6-2.1 1.1-2.6 2.1-4.8 2.1-2.6 0-6.9-1.6-8.5-1.6-2.6-0.5-3.2-1.5-4.8-3.7-1-1.6-2.6-2.6-3.7-4.8-1-1.6-1.6-3.7-1.6-5.8v-8c0-3.7-0.5-6.9-0.5-8.5 0-1.1-1.1-2.7-1.6-3.7 0-0.6-1.1-1.1-1.6-1.1-0.5 0-1.1 0.5-1.6 1.1-0.5 1-0.5 1.6-1.1 2.1-1 1.1-1 3.2-1 4.8-0.5 2.6-0.5 9-0.5 15.4v11.2c0 2.6-0.6 3.7-0.6 5.3 0 1.1 0 2.1 0.6 3.7 0 1.1 0.5 2.7 1.5 3.2 1.1 0.5 1.6 1.1 3.2 1.1 2.2 0 3.2-2.1 3.2-4.3 0.6-1.6 0.6-3.2 0.6-4.2v-2.7c2.6 3.2 5.8 6.4 9.5 7.5 3.7 1.6 3.7 1.6 7.5 1.6h5.8c1.6 0 3.7 0.5 5.9 0.5 2.6 0 5.8-1.1 7.9-2.1 2.2-1.1 4.8-2.7 6.9-4.3 2.2-1.1 3.8-1.6 5.4-3.2 2.6-2.6 5.3-5.8 6.9-9.6 0.5-1 1.6-2.1 2.1-3.2 0.5-1 1.1-1.6 1.1-2.6 0-1.1-0.6-1.6-0.6-2.7 0-1 0.6-1.6 0.6-2.6z" />
	<path fill-rule="evenodd" fill="#ffffff"
		d="m163.1 455.5c1.6 0 5.4 0 5.4 3.2 0 1.6 0 2.1-1.1 3.2-0.5 1-1.6 1.5-2.1 1.5-1.6 0.6-2.2 0.6-3.2 0.6h-5.9c0 1.6 0.6 2.6 0.6 4.2 0 2.2-0.6 4.3-0.6 7 0 3.1 0.6 6.9 1.1 10.1 0.5 3.2 0.5 6.9 0.5 10.1v8.5c0 3.2 0.5 5.8 0.5 9 0 3.2-0.5 5.9-0.5 9.1v8.5c0 3.2 0 6.9-0.5 10.1v8.5c0 2.7-0.5 5.8-0.5 8.5 0 2.7 1 5.9 1 9 0 2.2-0.5 4.3-2.1 5.4-2.7 2.1-5.9 3.2-9 3.2q-4 0-8-1.6c-2.7-1.1-5.3-2.2-6.9-3.8-4.3-3.7-6.9-8.5-9.1-13.3-2.6-5.3-4.7-11.1-6.9-17-1-3.2-2.6-6.4-3.7-9.6-2.1-5.3-3.7-10.1-5.3-15.4-1.1-3.2-2.1-6.9-3.2-10.1-1.1-2.6-2.1-5.8-3.2-8.5q-0.8-1.6-1.6-1.6c-0.5 0-0.5 1.6-0.5 2.7v2.6c0 3.2 0.5 6.4 0.5 9.6 0 6.4 0.6 12.2 1.1 18.6v5.9 12.2c0 4.8-0.5 9.6-0.5 14.4v4.2c0 1.6-0.6 3.7-0.6 5.3h8.5c1.6 0 5.3 0 5.3 3.2 0 1.6 0 2.2-1 3.2-0.6 1.1-1.6 1.6-2.7 1.6-1.6 0.6-2.1 0.6-3.2 0.6h-6.9-6.4-8.5-3.7c-1 0-2.6 0-3.7-1.1-1.1-0.5-2.1-2.1-2.1-3.2 0-0.5 0-1.1 0.5-1.6 0.5-0.5 2.1-1.1 3.2-1.6 2.6-0.5 7.4-1.1 8.5-1.1h2.1c0-7.9 0.6-15.9 0.6-24.4v-6.9c-0.6-8.6-0.6-17.1-0.6-25v-14.4c0-5.3 0-10.6 0.6-16 0-6.4 0.5-12.7 0.5-19.1h-5.9-3.7c-1 0-2.6-0.6-3.7-1.1-1.1-0.5-2.1-2.1-2.1-3.2 0-0.5 0-1 0.5-1.6 0.5-0.5 2.1-1 3.2-1.6 2.6-0.5 9.6-1 10.6-1h5.9c1-1.1 2.1-1.6 3.2-2.7q2.3-1.6 4.7-1.6c2.7 0 4.8 1.1 6.4 3.7 1.1 2.2 2.7 3.8 3.2 5.9 1.1 2.6 1.6 5.3 3.2 8 1.1 2.1 1.6 4.8 2.7 6.9q1.5 4 3.1 8c0.6 2.6 1.6 5.3 2.2 7.9 0.5 2.7 0.5 4.8 2.1 7 2.7 4.8 5.3 10.1 6.4 15.4 0.5 2.6 1.6 4.8 2.6 7.4 1.6 2.7 1.6 5.4 2.7 8 0.5 2.7 1.6 4.8 3.2 7.5 0.5 1 1.6 2.1 2.1 3.2 0.5 1 0.5 2.6 1.1 3.7 0.5 1.6 1 3.7 1.6 5.3 0.5 0.5 0.5 1.1 1 1.1 0.6 0 0.6-0.6 1.1-1.1v-1.6-9.6c0-6.4 0.5-12.7 0-19.1 0-5.9-1.1-11.7-1.1-17.6v-12.7-7.5c0-3.7-0.5-7.4-0.5-11.2 0-2.1 0-3.7 0.5-5.8h-5.3-3.7c-1.1 0-2.7-0.6-3.7-1.1-1.1-0.5-2.2-2.1-2.2-3.2 0-0.5 0-1 0.6-1.6 0.5-0.5 2.1-1 3.2-1.6 2.6-0.5 9.5-1 10.6-1h4.2c1.1-1.1 2.2-1.6 3.8-1.6 1.6 0 2.6 0.5 2.6 1.6 2.7 0.5 5.3 0 6.9 0z" />
	<path fill-rule="evenodd" fill="#ffffff"
		d="m220.5 449.6c2.7 0 3.8 0.5 5.9 1.1 2.1 1 2.1 2.1 3.2 3.7 1 1.1 2.1 2.1 2.6 3.7 0.6 1.6 0.6 2.7 1.1 4.3 1.1 2.6 0.5 6.4 1.6 9.6 0.5 3.2 2.1 6.3 2.7 9.5 0.5 3.8 0.5 7.5 1.5 11.2 1.1 3.7 1.6 6.9 1.6 10.7 0 1.5 0.6 3.7 1.1 5.3 0.5 2.1 1.1 4.8 1.6 6.9 0 1 0.5 3.2 1.1 5.3 0.5 1.6 1 3.2 1.6 3.7 0.5 0.6 1.5 0.6 2.1 0.6h2.1c2.1 0 4.3 0.5 5.3 2.1 0.6 0.5 0.6 1.1 0.6 1.6 0 0.5-0.6 1-1.1 2.1-1.1 1.1-2.1 2.1-3.7 2.7-0.6 0-1.1 0.5-2.2 0.5-0.5 0-1 0-1.6 0.5v1.1c0 0.5 0 1.6 0.6 2.1 0 1.1 0.5 2.2 0.5 2.7v4.2c0.5 2.2 1.1 3.8 1.6 5.9 0 1.6 0.5 3.7 1.1 5.3 0.5 2.1 1 3.7 1 5.9 0 2.6 0.6 4.2 1.1 6.3 0 0.6 0.5 1.6 0.5 2.2h4.8c1.6 1.6 4.3 2.6 4.8 4.8 0 1-1.1 1.6-1.6 2.6-0.5 1.1-2.1 1.6-3.2 1.6-2.1 0.5-3.2 0.5-4.8 0.5h-5.8c-1.1 0.6-1.6 0.6-2.7 1.1-1 0-2.1 0.5-3.2 0.5-2.1 0-4.7-0.5-6.9-1h-13.8c-1.6 0-3.7 0-4.8-1.1-1-0.5-3.2-1.6-3.2-3.2 0-2.1 3.2-2.6 4.8-3.2 1.1 0 2.7 0 5.3-0.5 0-1.6 0-2.7-0.5-3.7 0-1.6-0.5-3.7-0.5-5.3 0-1.1-0.6-1.6-0.6-2.7 0-1.1 0.6-2.1 0.6-2.7 0-1-0.6-1.6-1.1-3.2 0-2.1-1.1-4.2-1.1-6.3 0-2.2 0-3.8-0.5-5.4-0.5-2.1-0.5-4.2-0.5-6.3 0-1.1-0.6-1.6-1.1-1.6h-2.1c-2.1 0-4.3 0-5.9 0.5-2.1 0-3.7 0.5-5.8 0.5h-4.8c-0.5 0-2.6-0.5-4.2-0.5-1.6 0-1.6 1.6-1.6 2.7 0 2.1-0.6 4.2-1.1 6.3-0.5 3.8-1.6 7-2.1 10.7-0.6 3.7-2.1 10.6-3.2 14.3h5.8c2.7 0 6.9 0 6.9 3.2 0 1.6-0.5 1.6-1 3.2-0.5 1.1-2.1 1.6-3.2 1.6-1.6 0.6-2.7 0.6-4.3 0.6h-17c-1.6 0-3.7 0-4.8-1.1-1.5-0.5-3.1-2.1-3.1-3.2 0-0.5 0-1.1 0.5-1.6 1.1-0.5 2.6-1.1 4.2-1.6 2.7-0.5 4.8-0.5 7.5-0.5v-0.6c0-2.1 0.5-4.7 0.5-5.3 0.5-4.2 1.6-8.5 2.1-12.7 0.6-3.2 1.1-7 2.2-10.2 0-1 1-3.7 1-4.7 0-1.6-3.7-1.6-5.3-2.7-1.1-0.5-2.1-1.1-2.1-2.1 0-1.6 1.6-2.2 3.7-2.7 1.1 0 3.7-0.5 5.3-1.6 1.1-1 1.1-4.2 1.6-5.8 1.1-4.3 2.1-8.5 3.2-12.3q1.6-6.4 3.2-12.7c1.1-4.3 2.1-8.5 2.7-12.3 0.5-3.7 1.6-8 2.6-11.7 1.6-3.7 2.7-8.5 4.8-12.2l1.6-3.7c1.1-1.6 1.6-3.8 3.2-4.8 2.6-2.2 7.4-2.7 11.1-2.7zm-9 19.2c-1.6 0-3.2 3.2-3.2 4.2-0.5 2.2-1 4.8-1.6 6.4-0.5 1.1-0.5 2.1-0.5 3.2 0 1.1-0.5 2.1-0.5 3.2-0.6 2.1-1.1 4.8-1.6 6.9-0.6 4.8-2.2 9.6-3.8 13.8q-0.8 3.2-1.5 6.4c-0.6 2.7-1.1 4.8-2.2 7.5-0.5 1-1 4.2-1 5.3 0 0.5 0.5 0.5 1 0.5h4.3c1.6 0 3.2 0 4.2-0.5h8.5c1.1 0 2.2 0 2.7-0.5 1.1 1 1.6 0.5 1.6 0 0-1.1-0.5-2.7-0.5-3.8-0.6-2.6-1.1-4.8-1.1-6.9 0-5.8 0-11.1-0.5-17 0-2.7-0.6-5.3-1.1-8-0.5-3.2-1.1-5.8-1.1-9 0-1.1 0-4.8-0.5-7.5 0-2.6-0.5-4.2-1.6-4.2zm122.8 102.6c0 2.2 0 8-3.2 8-1.6 0-2.1-0.5-3.2-1.1-1-0.5-1.6-2.1-1.6-3.1-0.5-3.2-0.5-6.4 0-9.1-1 1.6-3.7 5.3-5.3 6.9-4.3 4.3-9.6 6.9-15.9 6.9-1.6 0-2.7 0-4.3-0.5-4.2-0.5-9-2.1-13.8-4.8-3.2-1.6-6.4-4.2-9.1-6.9-2.6-3.2-4.7-6.4-6.3-10.1-1.6-4.3-2.7-8-3.2-12.8-0.5-4.7-1.1-9.5-1.1-13.8 0-4.8 0-9 0.6-13.8 0.5-4.3 0-8.5 1-12.8 0.5-4.2 2.1-9 3.7-13.3 1.6-4.8 2.7-9 4.8-13.3 1.6-4.2 4.3-7.4 6.9-10.6 2.7-3.2 5.3-6.9 8.5-9.6 3.2-2.7 6.9-3.7 10.7-4.8 2.6-0.5 5.8-1.6 8.5-1.6 1 0 2.1 0 3.7 0.6 1.6 0.5 2.6 1.5 3.7 2.6 1.6 1.1 1.6 2.7 3.2 4.3 1.1 1 1.6 3.2 2.7 4.2v-4.8c0-1.6 0-3.7 1-4.8 0.6-0.5 0.6-1 1.1-2.1 0.5-0.5 1-1 1.6-1 0.5 0 1 0.5 1.6 1 0.5 1.1 1 2.7 1.6 3.7 0 1.6 0.5 4.8 0.5 8.6 0 4.7 0 10.1 0.5 11.7 0.6 3.7 0.6 5.8 0.6 10.1v1c0 1.1 0 1.6-0.6 2.7-0.5 2.1-1 4.2-3.2 4.2-1.6 0-2.1-0.5-3.1-1-1.1-0.6-1.6-2.1-1.6-3.2-1.1-3.7 0-4.8 0-8.5v-1.6c-1.1-3.7-2.2-6.9-3.2-11.2-1.1-3.2-5.4-8-9.1-8-2.1 0-4.2 1.6-5.8 2.7-0.5 0.5-1.1 1.1-2.1 2.1-0.6 0.6-1.6 1.1-2.2 1.6-0.5 1.1 0 3.2-0.5 4.8-1.1 2.1-1.6 4.3-2.1 6.4-1.1 4.2-1.6 8-2.7 12.2-0.5 4.3-1 8.5-1 12.8v2.1c0 1.1-0.6 1.6-0.6 2.7 0 1 0.6 2.6 0.6 3.7v1.6c-0.6 1.1-0.6 1.6-0.6 2.1v7.5c0 4.8 1.6 9 1.6 13.3 0 4.8 0.5 9 1.6 13.3 0.5 2.1 0.5 3.7 1.1 5.8 0.5 1.6 2.1 3.2 2.6 5.3 1.6 3.8 4.3 6.4 8.5 6.4 3.8 0 9.1-4.2 10.7-7.4 1.6-2.7 2.6-4.3 3.2-6.9 0-5.4 0-11.7 0.5-13.3 0-1.6 0-3.8 1.1-4.8 0.5-0.6 0.5-1.1 1-2.2 0.5-0.5 1.1-1 1.6-1 0.5 0 1.1 0.5 1.6 1 0.5 1.1 1.1 2.7 1.6 3.8 0 1.6 0.5 9 0.5 12.7 0 4.8 0 10.1 0.6 11.7 0 5.9 0.5 8 0.5 11.7zm67.5-64.9c-1.6 2.2-3.7 4.8-3.7 7.5 0 1.6 3.2 2.1 6.9 3.7 3.7 1.6 8 5.3 9.6 8.5 1 2.1 2.1 3.7 2.6 5.9 1.1 2.1 1.6 4.8 2.1 6.9 0.6 2.7 0.6 3.7 1.6 5.8 1.1 2.2 1.1 4.8 1.6 7 0.6 1.6 0.6 4.2 1.1 5.8 0.5 1.1 1 1.6 1.6 2.7 0.5 1 1.6 2.1 1.6 3.2 0.5 2.1 1.6 3.7 2.6 5.3 1.1 2.1 2.2 2.6 4.3 3.7 1.1 0.5 2.1 2.1 2.1 3.2 0 0.5 0 1.1-0.5 1.6-1.1 1.6-3.7 2.7-6.4 2.7-2.7 0-6.4-0.6-9.6-1.6-3.7-1.1-7.9-4.8-9.5-6.4-1.6-1.6-2.7-3.2-3.8-4.8-1-2.1-2.1-3.7-2.6-6.4-1.6-4.3-2.1-6.9-3.7-11.7-1.1-3.2-1.6-5.9-2.2-9-0.5-2.2-1-3.8-1.6-5.4-0.5-1-1-2.6-1.5-4.2-1.1-2.2-2.2-3.7-3.2-3.7-0.6 0-1.1 0.5-2.2 1-1 1.1-2.1 2.7-3.2 4.3-1.5 2.1-2.1 4.2-2.6 6.4 0 1.6-0.5 3.2-0.5 4.2v6.9c0 5.9 0.5 9.1 0 14.9 0 2.2 0 3.7-0.6 5.9h4.8c2.7 0 7.5 0 7.5 3.2 0 1.6-0.6 2.1-1.1 3.2q-1.6 1.6-3.2 1.6c-1.6 0.5-3.2 0.5-4.3 0.5h-6.9c-1 1.1-2.6 1.6-4.2 1.6-1.6 0-3.7-0.5-5.3-1.6h-18.1c-1.6 0-3.7 0-5.3-1.1-1.6-0.5-3.2-2.1-3.2-3.2 0-0.5 0-1 1.1-1.6 1-0.5 3.1-1 4.2-1.6 3.7-0.5 7.4-1 8.5-1h3.7c0-0.6-0.5-1.1-0.5-1.1-2.7-4.2-2.7-8.5-2.7-13.3 0-5.8 0-11.2 0.6-17 0-5.9 0.5-12.2 0.5-18.1 0-5.3-0.5-10.1-0.5-15.4 0-4.8 0.5-9.6 0.5-14.4 0-3.2 0.5-5.8 0.5-9 0-2.2-0.5-4.8-0.5-6.9v-11.7h-6.9c-1.6 0-3.7-0.6-5.3-1.1-1.6-0.5-3.2-2.1-3.2-3.2 0-0.5 0-1.1 1.1-1.6 1-0.5 3.1-1.1 4.2-1.6 3.7-0.5 8.5-1.1 10.1-1.1h1.6c1.1-1.6 2.7-2.1 4.8-2.1h1.6c1.6 0 3.7 1.1 5.3 1.6 6.4 0 13.3-0.5 15.9-0.5 2.7 0 7.5 0 7.5 3.2 0 1.6-0.5 2.1-1.1 3.2q-1.6 1.6-3.2 1.6c-2.6 1.6-3.7 1.6-4.8 1.6h-9q1.6 2.3 1.6 4.7v2.7c0 0.5 0 1.1 0.5 1.6 0.6 2.1 0.6 4.2 1.1 5.8v6.4c0 2.7 0.5 5.3 1.1 8.5q0.8 3.2 1.6 6.4c0.5 1.6 0.5 3.2 0.5 5.3v5.4c0 1-0.5 2.6-0.5 3.7 0 1 0.5 2.6 1 2.6 1.1 0 1.6-1.6 2.1-2.6 1.1-2.1 2.2-4.8 3.8-7.5 1-1.6 1.6-3.7 2.6-5.3 1.6-3.2 3.2-5.8 4.8-9 1.1-2.2 2.7-4.8 3.7-6.9 1.6-3.2 3.2-6.4 5.3-10.1 1.6-3.8 3.8-7.5 5.4-10.7 0-0.5 0-0.5 0.5-0.5h-2.7c-1 0-2.6 0-3.7-1.1-1-0.5-2.1-2.1-2.1-3.2 0-0.5 0-1 0.5-1.6 0.6-0.5 2.1-1 3.2-1.6 2.7-0.5 5.3-1 6.9-1h2.7l0.5-0.6c1.1-0.5 1.6-0.5 2.7-0.5 1 0 1.6 0 2.6 0.5 0.6 0 1.1 0.6 1.1 0.6h8.5c1.6 0 5.3 0 5.3 3.2 0 1.6 0 2.1-1.1 3.2-0.5 1-1.5 1.6-2.1 1.6-1 0.5-2.1 0.5-3.2 0.5h-7.9c-0.6 1.6-1.6 2.6-2.2 4.2-2.1 3.8-3.7 7.5-5.3 11.2-2.1 4.3-3.7 9.1-5.8 13.3-2.7 5.3-5.3 9.6-8 13.8zm84 63.9c2.6 0 7.4 0 7.4 3.2 0 1.6-0.5 1.6-1 3.2q-1.6 1.5-3.2 1.5c-1.6 0.6-3.2 0.6-4.3 0.6h-8c-4.7 0-10.1 0.5-11.1 0.5h-15.4c-1.6 0-3.8 0-5.3-1.1-1.6-0.5-3.2-2.1-3.2-3.1 0-0.6 0-1.1 1-1.6 1.1-0.6 3.2-1.1 4.3-1.6 3.7-0.6 7.4-1.1 9-1.1h2.1c-1.6-1.1-2.1-2.7-2.1-4.3 0-1 0-2.1-0.5-2.6v-11.2c0-9.6 0.5-19.1 0-28.7v-15.4c0-4.3 0.5-8.5 0.5-13.3v-31.4h-5.8c-1.6 0-3.8 0-5.3-1.1-1.6-0.5-3.2-2.1-3.2-3.2 0-0.5 0-1 0.5-1.6 0.5-0.5 3.2-1 4.2-1 3.2-0.6 8-1.1 9.6-1.1v-1.1c0-1 0-1.6 0.5-2.1 0.6-0.5 2.2-1.1 2.7-1.6 1.1-0.5 2.1-1 3.2-1h2.6c1.1 0 2.7 0 3.8 0.5 3.2 0.5 5.3 2.6 6.9 5.3h9c2.7 0 7.5 0 7.5 3.2 0 1.6-0.6 1.6-1.1 3.2q-1.6 1.6-3.2 1.6c-1.6 0.5-3.2 0.5-4.2 0.5h-5.9v0.6c0.5 2.1 0.5 4.7 1.1 6.9 0.5 2.1 0.5 4.8 0.5 6.9v10.1c0 1.1 0 2.1 0.5 2.6 0.6 4.8 0.6 9.6 1.1 14.4 0 5.3 0.5 10.6 0.5 16 0 4.2 0 8.5 0.6 12.7 0 4.8 1 9.6 1 14.4v14.4c0 2.1 0 4.7-1 6.3 1.6 0.6 2.6 0.6 3.7 0.6zm101-114.4c1.6 0 5.3 0 5.3 3.2 0 1.6 0 2.1-1.1 3.2-0.5 1-1.6 1.6-2.6 1.6-1.6 0.5-2.2 0.5-3.2 0.5h-5.9c0 1.6 0.6 2.7 0.6 4.3 0 2.1-0.6 4.2-0.6 6.9 0 3.2 0.6 6.9 1.1 10.1 0.5 3.2 0.5 6.9 0.5 10.1v8.5c0 3.2 0.6 5.9 0.6 9.1 0 3.1-0.6 5.8-0.6 9v8.5c0 3.2 0 6.9-0.5 10.1v8.5c0 2.7-0.5 5.9-0.5 8.5 0 2.7 1 5.9 1 9.1 0 2.1-0.5 4.2-2.1 5.3-2.7 2.1-5.9 3.2-9 3.2q-4 0-8-1.6c-2.7-1.1-5.3-2.1-6.9-3.7-4.3-3.8-6.9-8.5-9.1-13.3-2.6-5.3-4.7-11.2-6.9-17-1-3.2-2.6-6.4-3.7-9.6-2.1-5.3-3.7-10.1-5.3-15.4-1.1-3.2-2.1-7-3.2-10.2-1.1-2.6-2.1-5.8-3.2-8.5q-0.8-1.6-1.6-1.6c-0.5 0-0.5 1.6-0.5 2.7v2.7c0 3.2 0.5 6.3 0.5 9.5 0 6.4 0.6 12.3 1.1 18.7v18c0 4.8-0.5 9.6-0.5 14.4v4.3c0 1.5-0.6 3.7-0.6 5.3h8.5c1.6 0 5.3 0 5.3 3.2 0 1.6 0 2.1-1 3.2-0.6 1-1.6 1.6-2.7 1.6-1.6 0.5-2.1 0.5-3.2 0.5h-25.5c-1 0-2.6 0-3.7-1.1-1.1-0.5-2.1-2.1-2.1-3.2 0-0.5 0-1 0.5-1.6 0.5-0.5 2.1-1 3.2-1.6 2.7-0.5 7.4-1 8.5-1h2.1c0-8 0.6-16 0.6-24.5v-6.9c-0.6-8.5-0.6-17-0.6-25v-14.4c0-5.3 0-10.6 0.6-15.9 0-6.4 0.5-12.8 0.5-19.2h-9.6c-1 0-2.6-0.5-3.7-1.1-1.1-0.5-2.1-2.1-2.1-3.1 0-0.6 0-1.1 0.5-1.6 0.5-0.6 2.1-1.1 3.2-1.6 2.7-0.6 9.6-1.1 10.6-1.1h5.9c1-1.1 2.1-1.6 3.2-2.7q2.4-1.6 4.7-1.6c2.7 0 4.8 1.1 6.4 3.8 1.1 2.1 2.7 3.7 3.2 5.8 1.1 2.7 1.6 5.3 3.2 8 1.1 2.1 1.6 4.8 2.7 6.9q1.6 4 3.1 8c0.6 2.7 1.6 5.3 2.2 8 0.5 2.6 0.5 4.8 2.1 6.9 2.7 4.8 5.3 10.1 6.4 15.4 0.5 2.7 1.6 4.8 2.6 7.5 1.6 2.6 1.6 5.3 2.7 7.9 0.5 2.7 1.6 4.8 3.2 7.5 0.5 1.1 1.6 2.1 2.1 3.2 0.5 1 0.5 2.6 1.1 3.7 0.5 1.6 1 3.7 1.6 5.3 0.5 0.6 0.5 1.1 1 1.1 0.6 0 0.6-0.5 1.1-1.1v-11.1c0-6.4 0.5-12.8 0-19.2 0-5.8-1.1-11.7-1.1-17.5v-20.3c0-3.7-0.5-7.4-0.5-11.1 0-2.2 0-3.8 0.5-5.9h-9c-1.1 0-2.7-0.5-3.7-1.1-1.1-0.5-2.2-2.1-2.2-3.1 0-0.6 0-1.1 0.6-1.6 0.5-0.6 2.1-1.1 3.2-1.6 2.6-0.6 9.5-1.1 10.6-1.1h4.2c1.1-1.1 2.2-1.6 3.8-1.6 1.6 0 2.6 0.5 2.6 1.6zm91.5 69.2c0 2.1-2.2 3.2-3.8 3.7-2.1 1-5.8 1.6-7.9 2.1-2.2 0-3.8 0.5-3.8 2.7 0 1.6 0.6 5.3 0.6 6.4v10.6c0 4.8 0 10.6 0.5 12.8 0.5 4.2 0.5 5.8 0.5 10.1 0 2.1 0 7.9-3.2 7.9-1.6 0-2.1-0.5-3.1-1-1.1-0.6-1.6-2.1-1.6-3.2-0.6-1.6-0.6-2.7-0.6-3.2 0-1.6 0.6-2.7 0.6-5.3v-0.6c-1.1 3.8-3.8 7.5-6.9 10.2-4.8 3.7-8.5 5.3-14.9 5.3-3.8 0-7.5-0.6-10.7-1.6-4.2-1.6-7.4-3.7-10.1-6.4-4.2-4.3-6.9-9.1-9.5-14.4-2.2-4.2-3.2-7.9-3.7-12.7-0.6-3.2-1.1-5.9-1.6-9.1-0.6-3.2 0-4.8 0-8 0-10.6 2.6-20.7 5.3-32.4 1-5.3 2.6-10.6 4.2-15.4 1.6-5.4 4.3-10.7 7.5-15.5 2.6-4.2 5.8-8.5 10.1-11.7 1.6-1.6 3.7-2.6 5.8-3.2 2.7-1 5.3-2.1 8-2.1h1.1c1 0 2.1 0 4.2 0.5 2.7 0.6 4.8 1.1 6.9 2.2 1.6 1 3.2 2.6 3.7 4.2 0-1 0.6-2.6 0.6-3.7 0.5-0.5 0.5-1.1 1-2.1 0.6-0.6 1.1-1.1 1.6-1.1 0.5 0 1.1 0.5 1.6 1.1 0.5 1 1.1 2.6 1.6 3.7 0 1.6 0.5 4.8 0.5 8.5 0 4.8 0 10.1 0.6 11.7 0.5 4.3 0.5 5.9 0.5 10.1 0 2.2 0 8-3.2 8-1.6 0-2.1-0.5-3.2-1.1-1-0.5-1.6-2.1-1.6-3.2 0-1-0.5-2.1-0.5-3.1v-5.4c0-1 0-2.6-0.5-3.7-0.6-2.6-0.6-5.8-1.1-8.5-0.5-2.7-1.6-5.3-3.2-7.4-1-1.6-3.7-2.2-5.8-2.2-2.7 0-4.3 1.6-5.9 3.7-1 2.2-3.2 3.8-4.2 6.4q-1.6 4-1.6 8c0 2.7-0.6 4.8-1.6 7.5-1.1 2.6-1.1 5.8-1.6 8.5-0.5 2.6-0.5 5.3-1.1 8 0 2.6-1 4.7-1 7.4-0.6 2.7-0.6 5.3-1.1 8.5-0.5 2.7-0.5 5.3-1.1 8 0 2.1-0.5 4.8-0.5 6.9 0 3.2 0.5 6.9 0.5 10.1 0 4.8 1.6 9.1 2.7 13.8 0.5 1.6 0.5 3.8 1.1 5.4 0.5 2.1 1.5 4.2 2.6 6.3 1.6 2.7 4.8 6.4 8.5 6.4 3.2 0 5.3-2.6 6.9-4.8 2.7-3.7 3.7-7.9 4.8-12.2 0.5-3.7 1.1-7.4 1.1-11.2v-10.6c0-2.1 0-2.7-3.2-2.7-2.1 0-4.8 0.6-7.5 0.6-2.1 0-4.2 0-5.8-1.1-0.5-0.5-1.1-1.1-1.1-1.6 0-0.5 0-1.1 0.6-1.6 1-1 2.1-1.6 3.7-2.1 2.6-1.1 5.3-1.6 8.5-2.1 2.6-0.6 5.3-0.6 8-1.1h6.3c3.2 0 8-0.5 10.1-0.5 2.7-1.6 5.4-0.6 5.4 1.6zm137.1 45.2c2.7 0 7.4 0 7.4 3.2 0 1.6-0.5 2.1-1 3.2-0.6 1-2.2 1.5-3.2 1.5-1.6 0.6-3.2 0.6-4.3 0.6h-5.8c-2.7 1.6-5.9 2.6-9.1 2.6-1.6 0-3.7-0.5-5.3-1-1-0.6-1.6-1.1-2.1-1.6h-12.2c-1.6 0-3.7 0-5.3-1.1-1.6-0.5-3.2-2.1-3.2-3.2 0-0.5 0-1 1-1.6 1.1-0.5 3.2-1 4.3-1.6 3.7-0.5 8.5-1 10.1-1h0.5c0-1.1-0.5-1.6-0.5-2.7-1.1-4.8-1.1-10.1-1.6-16.5-0.5-6.4 0-13.3-0.5-19.7-0.6-5.8-0.6-11.7-0.6-17.5 0-5.9-0.5-11.2-0.5-17-0.5-5.4-0.5-12.3-0.5-14.4 0-1.1 0-1.6-0.6-1.6 0 0-0.5 0.5-0.5 1.1-0.5 2.1-0.5 4.8-1.1 6.9-1 5.3-2.1 10.6-3.1 15.4-1.1 4.8-2.7 10.1-3.2 14.9-0.6 2.7-1.1 4.8-1.6 7.5-0.6 2.6-1.6 4.7-2.2 7.4-0.5 2.7-1 5.3-2.6 7.4-1.1 1.6-3.2 3.2-6.9 3.2-3.7 0-8-1.6-11.2-4.2-3.7-3.7-4.8-9.1-5.8-13.8q-1.6-8-3.2-16c0-1.1-1.1-5.3-2.2-11.2-1-4.8-2.1-10.6-3.1-15.4-1.1-3.7-1.6-6.4-2.2-8l-0.5-1c-0.5 0-0.5 1-1.1 3.2v4.7c0 2.2-0.5 4.8-0.5 7 0 2.1 0 5.3-0.5 8.5 0 3.2-0.6 6.3-0.6 9.5 0 2.7-0.5 4.8-0.5 7.5 0 2.1-0.5 4.2-0.5 6.4v9c-0.5 2.7-1.1 5.9-1.1 8.5-1 5.9-1.6 11.7-2.1 17.6 0 2.6 0 5.8-0.5 8.5 0 1 0 1.6-0.6 2.6h10.1c2.2 0 5.9 0.6 5.9 3.2 0 1.6-1.1 1.6-2.2 2.7-0.5 1.1-1.5 1.6-2.6 1.6-1.6 0.5-2.7 0.5-3.2 0.5h-27.6c-1.1 0-2.7-0.5-4.3-1-1.1-0.6-2.1-2.2-2.1-3.2 0-0.6 0-1.1 0.5-1.6 0.5-0.6 2.1-1.1 3.2-1.6 2.7-0.6 8.5-1.1 9.6-1.1h3.2c0-4.8 1-10.1 1-14.9 0.6-6.4 1.1-12.7 1.1-18.6 0-5.3 0.5-10.6 0.5-16 0.6-7.4 0.6-14.9 1.1-22.3 0-3.7 0.5-7.4 1-11.2 0.6-5.8 1.1-9.5 2.2-15.4 0.5-2.7 0.5-5.8 1-8.5v-0.5h-9c-1.6 0-3.7 0-5.3-1.1-1.6-0.5-3.2-2.1-3.2-3.2 0-0.5 0-1.1 1.1-1.6 1-0.5 3.2-1.1 4.2-1.6 3.7-0.5 8.5-1.1 10.1-1.1 4.3 0 7.5-0.5 12.2-0.5h1.6c1.6 0 3.7 0 5.3 1.1 2.7 1.6 5.9 4.2 7.5 9.6 1.6 4.7 3.7 10.1 4.8 15.4 0.5 2.1 0.5 4.8 1 6.9 1.1 2.7 1.6 5.3 2.2 8.5 0.5 2.1 0.5 4.8 1.6 6.9 1 2.2 1 4.3 1.5 6.9 0 1.1 1.6 4.3 2.2 7.5 1 2.6 1.6 4.8 2.1 4.8 1.1 0 1.6-6.4 2.1-7.5 0.6-2.6 1.1-5.8 1.6-8.5 1.1-5.8 2.1-11.7 3.7-17.5 1.1-5.9 2.2-12.3 3.8-18.1 1-4.8 3.2-10.1 6.3-13.9 2.2-2.6 5.9-4.2 9.1-4.2 1 0 3.2 0 4.2 1.1h13.3c2.7 0 7.5 0 7.5 3.1 0 1.6-0.6 1.6-1.1 3.2q-1.6 1.6-3.2 1.6c-1.6 0.6-3.2 0.6-4.2 0.6h-5.4c0 0.5 0.6 1 0.6 1.6 0.5 2.6 0.5 5.3 1 7.9 0.6 2.7 0.6 5.4 1.1 8 0 2.2 1.1 3.7 1.1 5.9v2.6c0 2.2 0 3.8 0.5 5.9 0.5 2.6 1.1 4.8 1.1 7.4v2.2c0 1 0.5 2.1 1 3.1v11.8c0 1.5 0.6 3.7 0.6 5.3 0.5 1.6 0.5 2.6 0.5 3.7v2.7c0 1 0 1 0.5 1.5 0.5 1.6 0.5 2.7 1.1 3.8 0.5 2.1 0.5 4.8 0.5 6.9 0.5 3.2 0.5 5.8 1.1 8.5v4.3c0 2.6 0.5 3.7 0.5 4.7 0 0.6 0.5 1.6 0.5 2.2v4.2c0 1.1 0.6 2.7 0.6 3.7v1.1c0.5 2.7 1.6 2.7 2.1 2.7zm64.8-120.8c2.7 0 3.8 0.5 5.9 1.1 2.1 1 2.1 2.1 3.2 3.7 1 1.1 2.1 2.1 2.6 3.7 0.6 1.6 0.6 2.7 1.1 4.3 1.1 2.6 0.5 6.4 1.6 9.6 0.5 3.2 2.1 6.3 2.6 9.5 0.6 3.8 0.6 7.5 1.6 11.2 1.1 3.7 1.6 6.9 1.6 10.7 0 1.5 0.6 3.7 1.1 5.3 0.5 2.1 1.1 4.8 1.6 6.9 0 1 0.5 3.2 1.1 5.3 0.5 1.6 1 3.2 1.5 3.7 0.6 0.6 1.6 0.6 2.2 0.6h2.1c2.1 0 4.3 0.5 5.3 2.1 0.6 0.5 0.6 1.1 0.6 1.6 0 0.5-0.6 1-1.1 2.1-1.1 1.1-2.1 2.1-3.7 2.7-0.6 0-1.1 0.5-2.2 0.5-0.5 0-1 0-1.6 0.5v1.1c0 0.5 0 1.6 0.6 2.1 0 1.1 0.5 2.2 0.5 2.7v4.2c0.5 2.2 1.1 3.8 1.6 5.9 0 1.6 0.5 3.7 1.1 5.3 0.5 2.1 1 3.7 1 5.9 0 2.6 0.6 4.2 1.1 6.3 0 0.6 0.5 1.6 0.5 2.2h4.8c1.1 1.6 4.3 2.6 4.3 4.8 0 1-1.1 1.6-1.6 2.6-0.6 1.1-2.2 1.6-3.2 1.6-2.1 0.5-3.2 0.5-4.8 0.5h-5.9c-1 0.6-1.6 0.6-2.6 1.1-1.1 0-2.1 0.5-3.2 0.5-2.1 0-4.8-0.5-6.9-1h-13.8c-1.6 0-3.7 0-4.8-1.1-1.1-0.5-3.2-1.6-3.2-3.2 0-2.1 3.2-2.6 4.8-3.2 1 0 2.6 0 5.3-0.5 0-1.6 0-2.7-0.5-3.7 0-1.6-0.6-3.7-0.6-5.3 0-1.1-0.5-1.6-0.5-2.7 0-1.1 0.5-2.1 0.5-2.7 0-1-0.5-1.6-1-3.2 0-2.1-1.1-4.2-1.1-6.3 0-2.2 0-3.8-0.5-5.4-0.6-2.1-0.6-4.2-0.6-6.3 0-1.1-0.5-1.6-1-1.6h-2.1c-2.2 0-4.3 0-5.9 0.5-2.1 0-3.7 0.5-5.8 0.5h-4.8c-0.6 0-2.7-0.5-4.3-0.5-1.6 0-1.6 1.6-1.6 2.7 0 2.1-0.5 4.2-1 6.3-0.6 3.8-1.6 7-2.2 10.7-0.5 3.7-2.1 10.6-3.1 14.3h5.8c2.7 0 6.9 0 6.9 3.2 0 1.6-0.5 1.6-1.1 3.2-0.5 1.1-2.1 1.6-3.1 1.6-1.6 0.6-2.7 0.6-3.8 0.6h-17c-1.6 0-3.7 0-4.8-1.1-1.6-0.5-3.1-2.1-3.1-3.2 0-0.5 0-1.1 0.5-1.6 1-0.5 2.6-1.1 4.2-1.6 2.7-0.5 4.8-0.5 7.5-0.5v-0.6c0-2.1 0.5-4.7 0.5-5.3 0.5-4.2 1.6-8.5 2.1-12.7 0.6-3.2 1.1-7 2.2-10.2 0-1 1-3.7 1-4.7 0-1.6-3.7-1.6-5.3-2.7-1.1-0.5-2.1-1.1-2.1-2.1 0-1.6 1.6-2.2 3.7-2.7 1.1 0 3.7-0.5 5.3-1.6 1.1-1 1.1-4.2 1.6-5.8 1.1-4.3 2.1-8.5 3.2-12.3q1.6-6.4 3.2-12.7c1.1-4.3 2.1-8.5 2.7-12.3 0.5-3.7 1.5-8 2.6-11.7 1.6-3.7 2.7-8.5 4.8-12.2l1.6-3.7c1-1.6 1.6-3.8 3.2-4.8 2.6-2.2 7.4-2.7 11.1-2.7zm-9.5 19.2c-1.6 0-3.2 3.2-3.2 4.2-0.6 2.2-1.1 4.8-1.6 6.4-0.5 1.1-0.5 2.1-0.5 3.2 0 1.1-0.6 2.1-0.6 3.2-0.5 2.1-1 4.8-1.6 6.9-0.5 4.8-2.1 9.6-3.7 13.8q-0.8 3.2-1.6 6.4c-0.5 2.7-1 4.8-2.1 7.5-0.5 1-1.1 4.2-1.1 5.3 0 0.5 0.6 0.5 1.1 0.5h4.2c1.6 0 3.2 0 4.3-0.5h8.5c1.1 0 2.1 0 2.7-0.5 1 1 1.6 0.5 1.6 0 0-1.1-0.6-2.7-0.6-3.8-0.5-2.6-1-4.8-1-6.9 0-5.8 0-11.1-0.6-17 0-2.7-0.5-5.3-1-8-0.6-3.2-1.1-5.8-1.1-9 0-1.1 0-4.8-0.5-7.5 0-2.6-0.6-4.2-1.6-4.2zm78.6-18.6h2.7c1.1 0 2.7 0 3.7 0.5 2.1 0.5 3.7 2.1 5.3 3.7h3.8c3.7 0 6.9 1.1 13.2 1.1 3.2 0 6.4 1.6 9.6 1.6 1.6 0 3.7 0 4.8 1 1.6 1.1 2.6 2.7 4.2 3.8 1.1 1 2.7 1.6 3.2 3.1 0.6 1.1 1.1 2.7 1.6 3.8 1.1 1.6 2.2 2.1 4.8 3.7 1.6 1.1 1.1 3.7 2.1 5.3 2.2 3.7 5.9 8 7 11.7 1 3.7 1 6.9 1 10.1v7.5c0 1.6 0 3.2 0.5 5.3v1.6c0.6 1 0 2.1 0 4.2 0 0.6 0.6 2.7 0.6 3.8 0 1.6-1.1 3.2-1.1 4.8v5.3c0 0.5-0.5 2.1-1 3.7-0.6 1.1-0.6 2.7-1.1 3.2-0.5 1.6-1.1 3.7-1.1 5.3-0.5 1.6-0.5 3.7-1.6 5.3-0.5 1.6-1.6 2.7-2.6 4.3-0.6 1-1.1 2.6-1.6 3.7-1.1 1.6-2.7 4.8-3.7 5.9-4.3 5.8-8 7.9-10.7 10.1-2.1 1.6-4.2 2.1-6.9 3.2-2.1 0.5-4.8 1-7.4 1-2.2 0-3.7-0.5-5.9-0.5-5.3 0-3.2 0.5-9 0.5q-0.8 2.4-3.2 3.2c-1.1 0.5-2.1 0.5-3.2 0.5-1.1 0-2.1 0.6-3.2 0.6-0.5 0-2.1 0.5-2.6 0.5-1.6 0-3.2-1.1-3.8-1.1-1-0.5-2.1-1.5-3.7-2.6-0.5-0.5-1-0.5-1-1.1h-7.5c-1.6 0-3.7 0-5.3-1-1.6-0.6-3.2-2.2-3.2-3.2 0-1.1 0-1.6 1.1-2.2 1-0.5 3.2-1 4.2-1.6 2.2-0.5 5.3-0.5 7.5-0.5v-4.8c0-8.5-0.6-16.5-0.6-25 0-3.2 0.6-11.7 0.6-23.4 0-8.5 0.5-17.5 0.5-26.1 0-4.7 0-10.6 0.5-16.4 0-3.2 0.6-7 0.6-10.1h-5.9c-1.6 0-3.7 0-5.3-1.1-1.6-0.5-3.2-2.1-3.2-3.2 0-0.5 0-1.6 1.1-2.1 1-0.6 3.2-1.1 4.2-1.6 3.7-0.6 7.5-1.1 9.6-1.1 0-0.5 0.5-1.1 1.1-1.6 0.5-0.5 2.1-1.6 3.2-1.6 1-0.5 2.1-1 3.1-1zm19.7 12.7c-2.1 0-3.7 0.6-3.7 1.6-0.5 1.1-0.5 5.3-0.5 10.1 0 11.2 0 27.7-0.6 30.3v4.3c0 2.7 0 5.3 0.6 8 0 3.7 0 6.9 0.5 10.6v9.1c0 4.2 0.5 12.7 0 17 0 1.6-0.5 3.2-0.5 4.8 0 1-0.6 6.9-0.6 9.6 0 1 0 1.5 1.6 1.5h7.5c1 0 4.2-2.1 5.3-2.6 0.5 0 2.1-1.1 2.6-1.1 1.6-1 2.2-2.6 2.7-3.7 1.1-2.1 2.1-3.7 3.2-5.9 1.6-3.7 2.6-3.7 3.7-12.2 0.5-4.8 1.6-9 2.1-13.3v-12.2c0-2.2 0-5.9-0.5-10.7-0.5-5.3-1.1-9-1.1-10.1-1-7.4-2.1-13.8-4.2-21.2-0.6-2.2-0.6-5.4-6.9-11.2-1.6-1.1-7.5-2.7-11.2-2.7zm127.6 105.3c0.5 0.6 1 1.1 1 2.2 0 1.6-1 3.2-2.6 4.2-1.6 1.1-3.2 1.1-4.8 1.6-3.7 0.6-7.4 0.6-11.2 1.6-1.6 0.6-3.7 0.6-5.3 1.1h-8c-1 0-1.6 0.5-2.1 0.5h-2.1c-0.5 1.1-1.6 1.6-2.7 2.1-1 0.6-2.1 0.6-3.2 0.6-1 0-2.1 0.5-3.7 0.5-0.5 0-2.1 0.5-2.6 0.5-1.6 0-3.7-1-4.3-1-1-0.6-2.6-1.6-3.7-2.7h-10.1c-1.6 0-3.7 0-4.8-1-1.6-0.6-3.2-2.7-3.2-3.8 0-0.5 0-1 1.1-1.6 1-0.5 2.6-1 4.2-1.6 2.7-0.5 5.9-0.5 8.5-1v-11.7c0-6.9 0-13.9-0.5-15.5v-10.6c0-3.7-0.5-7.4-0.5-11.7v-4.8c0-2.1 0.5-4.8 0.5-6.9v-4.8c0-2.1 0-4.2 0.5-6.4 0.6-3.7 1.1-7.4 1.1-11.1v-12.3c0-3.2 0-6.4 0.5-9.6h-6.9c-1.6 0-3.7 0-4.8-1-1.6-0.6-3.1-3.2-3.1-3.7 0-0.6 0-1.1 1-1.6 1.1-0.6 2.7-1.1 4.3-1.6 3.2-0.6 8.5-1.1 11.1-1.1 0-0.5 1.1-1.1 1.6-1.6 1.6-1.1 3.2-1.1 4.8-1.6 1.1-0.5 2.7-0.5 3.7-0.5h1.6c0.6 0 1.6 0.5 2.2 1 1 0.6 1.5 0.6 2.6 1.1 1.6 0.5 3.2 1.6 5.3 1.6h14.4c1.6 0 3.7 0 5.3 0.5 2.1 0 4.2 0.6 5.8 0.6 1.1 0 2.7 0.5 3.8 0.5 0.5-0.5 1.6-1.1 2.1-1.1 0.5 0 1 0 1.6 1.1 0.5 1.1 1.6 2.7 1.6 3.7 0.5 5.3 0.5 3.2 0.5 6.4 0.5 4.3 0.5 4.3 0.5 9.1 0 2.1 0 6.9-3.2 6.9-1.5 0-2.1-0.6-3.1-1.1-1.1-0.5-1.6-2.1-1.6-3.2-0.6-1.6-0.6-2.6-0.6-4.2v-9.6c-1.6 0.5-3.2 0.5-4.7 0.5-2.2 0-4.3 0-6.4 0.5-2.2 0-3.7 0.6-10.1 0.6-1.1 0-1.6 0-2.7 0.5-0.5 0-1.6 0-2.1 1.1-0.5 0.5-0.5 1.6-0.5 2.1 0 1.1 0 2.1 0.5 2.7v16.5c0 1.5-0.5 3.7-0.5 5.3v10.6c0.5 0.5 1 0.5 1.5 0.5h2.7c5.9 0 7.5 0 9 0.6 1.6 0.5 3.2 0.5 4.8 0.5v-5.3c0-1.6 0-3.7 1.1-4.8 0.5-1.6 2.1-3.2 3.2-3.2 0.5 0 1 0 1.6 1.1 0.5 1 1 2.6 1.6 4.2 0.5 3.2 0.5 6.9 1 10.1 0.6 4.3 0.6 6.4 0.6 11.2 0 2.7 0 6.9-3.2 6.9-1.6 0-2.1-0.5-3.2-1-1.1-0.6-1.6-2.2-1.6-3.2-0.5-1.6-0.5-2.7-0.5-4.3v-3.7c-3.8 0-9.1 0.5-16.5 0-1.6 0-2.7 1-2.7 2.6 0 1.6 0 3.8-0.5 5.4v5.3c0 1.6 0.5 3.2 0.5 4.8v4.2c0 2.7 0.6 4.8 0.6 7.5v11.1c0 2.2 0.5 3.8 0.5 5.4 0.5 1.6 0 4.7 1 5.8 0.6 0.5 1.6 0.5 4.8 0.5h6.9c2.2 0 4.8 0.6 7 0.6 2.6 0 4.2-0.6 6.3-1.1v-10.1c0-1.1 0-2.1 0.6-4.2 0.5-1.1 0.5-2.2 1.6-3.2 1-1.1 1.6-1.1 3.1-1.1 2.7 0 3.2 4.8 3.2 6.9 0 4.8 0 6.9-0.5 11.2-0.5 0.5-0.5 0.5-0.5 1zm54.7-117h3.2c1.6 0 3.7 0.6 5.9 1.1 2.1 0.5 3.7 1 4.2 2.1h17c2.1 0 4.8 1.1 9.1 2.1 1.5 0.6 3.1 1.6 4.7 2.2 1.1 0.5 3.2 2.1 5.4 3.2 2.1 1.6 4.2 2.6 4.2 3.7 1.1 2.1 3.2 3.7 4.3 5.8 1 2.7 1.6 5.3 1.6 7.5 0 2.1 0.5 3.2 0.5 4.2v1.6c0 0.6 0.5 2.2 0.5 3.2 0 1.1-0.5 2.7-0.5 3.7 0 2.2 0 3.2-0.5 5.4-0.6 2.1-1.1 4.2-2.2 5.8-0.5 1.1-1.6 1.1-2.1 2.1-0.5 0.6-0.5 1.6-1.1 2.2-1 1-2.6 3.2-3.7 3.7-0.5 0.5-1.6 0.5-2.1 1.1-0.5 0.5-1.6 1.6-2.1 2.1-1.6 1-2.7 2.6-4.3 3.7-1.1 0.5-2.6 0.5-2.6 2.7 0 1.6 4.2 3.7 4.7 5.3 1.6 2.6 3.2 5.3 4.3 8 1.1 2.6 1.6 4.8 2.7 7.4 1 3.7 2.1 6.9 2.6 10.7 1.1 3.7 3.2 6.9 4.3 10.6 0.5 2.1 1.6 4.3 2.6 5.8 2.7 3.2 4.3 4.8 5.9 5.9 1 0.5 2.6 1.6 2.6 3.2 0 0.5 0 0.5-0.5 1.1-1.1 1-3.2 1.6-4.8 1.6-4.8 0-11.7-3.2-14.9-7-3.2-3.2-5.3-7.4-8-11.1-1-2.2-2.1-4.3-3.1-7-1.1-2.1-1.6-4.2-2.2-6.3-0.5-2.2-1-4.8-2.1-7-0.5-2.6-1.6-4.7-2.6-7.4-0.6-1.6-1.6-4.3-2.7-6.4-1.1-2.1-2.1-3.2-3.7-4.8-1.1-1-2.7-1-3.7-1h-3.2c-0.6 0-0.6 0.5-0.6 1 0 1.6 0.6 3.7 0.6 4.3 0 2.6-0.6 4.8-0.6 7.4 0 3.8 1.1 5.9 1.1 10.1 0 4.8-0.5 9.6-1.1 14.4 0 1.6-0.5 3.2-0.5 4.8 0 1.1 0 2.1 0.5 3.2h6.9c2.7 0 7.5 0 7.5 3.7 0 1.6-0.5 2.1-1.1 3.2q-1.6 1.6-3.2 1.6c-2.1 0.5-3.2 0.5-4.2 0.5h-8c-2.1 1.6-4.8 2.2-6.9 2.7-1.1 0-2.7 0.5-3.7 0.5-0.6 0-1.6 0-2.2-0.5-1.5-0.5-3.7-1.6-4.7-2.7h-10.1c-1.6 0-3.8-1-5.4-1.6-1.5-0.5-3.1-2.1-3.1-3.2 0-0.5 0-1 1-1.6 1.1-0.5 3.2-1 4.3-1.6 2.6-0.5 6.4-0.5 9-1 0-1.1-0.5-2.1-0.5-3.7 0-1.6-0.5-11.2-0.5-14.4 0-3.7 0.5-8.5 0.5-12.2 0-4.3-0.5-9.1-0.5-13.3v-14.9c0-5.4 0.5-10.7 0.5-16 0-4.8 0.5-6.4 0.5-11.2v-6.9c0-2.6 0.5-4.8 0.5-6.9 0-1.1 0-2.7-0.5-4.2h-6.4c-1.6 0-3.7-0.6-5.3-1.1-1.6-0.5-3.2-2.7-3.2-3.2 0-0.5 0-1.1 1.1-1.6 1.1-0.5 3.2-1.1 4.2-1.6 3.8-0.5 7-1.1 9.6-1.1 0-0.5 0.5-0.5 0.5-1q1.6-0.8 3.2-1.6c1.1-0.5 2.2-1.1 3.2-1.1zm16 11.7v10.7c0 5.8 0.5 12.2 1 18.6 0 7.4 0.6 13.3 0.6 14.3 0 2.2 0.5 4.3 0.5 6.4v1.1q0 1.6 1.6 1.6h5.3c2.7 0 6.4-1.1 8-3.2 1.6-1.6 2.1-2.7 3.2-4.8 0.5-2.1 1-3.7 1.6-5.9 0.5-2.6 1-3.7 1.6-6.3 0.5-2.7 0.5-3.2 0.5-5.9 0-3.2 0-2.1 0.5-5.3-1-3.2-1-3.7-1-6.4v-2.6c0-2.2-2.2-5.4-3.8-7.5-1-1.1-1.6-1.6-2.6-2.1-1.6-1.1-2.7-1.6-4.3-2.1-2.6-0.6-5.8-0.6-7.9-0.6zm102.5 107.5c2.7 0 7.5 0 7.5 3.2 0 1.6-0.5 1.6-1.1 3.2q-1.6 1.5-3.2 1.5c-1.6 0.6-3.2 0.6-4.2 0.6h-8c-4.8 0-10.1 0.5-11.2 0.5h-15.4c-1.6 0-3.7 0-5.3-1.1-1.6-0.5-3.2-2.1-3.2-3.1 0-0.6 0-1.1 1.1-1.6 1.1-0.6 3.2-1.1 4.2-1.6 3.8-0.6 7.5-1.1 9.1-1.1h2.1c-1.6-1.1-2.1-2.7-2.1-4.3 0-1 0-2.1-0.6-2.6v-11.2c0-9.6 0.6-19.1 0-28.7v-15.4c0-4.3 0.6-8.5 0.6-13.3v-31.4h-5.9c-1.6 0-3.7 0-5.3-1.1-1.6-0.5-3.2-2.1-3.2-3.2 0-0.5 0-1 0.6-1.6 0.5-0.5 3.1-1 4.2-1 3.2-0.6 8-1.1 9.6-1.1v-1.1c0-1 0-1.6 0.5-2.1 0.5-0.5 2.1-1.1 2.7-1.6 1-0.5 2.1-1 3.2-1h2.6c1.1 0 2.7 0 3.7 0.5 3.2 0.5 5.4 2.6 6.9 5.3h9.1c2.6 0 7.4 0 7.4 3.2 0 1.6-0.5 1.6-1 3.2q-1.6 1.6-3.2 1.6c-1.6 0.5-3.2 0.5-4.3 0.5h-5.8v0.6c0.5 2.1 0.5 4.7 1 6.9 0.6 2.1 0.6 4.8 0.6 6.9v10.1c0 1.1 0 2.1 0.5 2.6 0.5 4.8 0.5 9.6 1.1 14.4 0 5.3 0.5 10.6 0.5 16 0 4.2 0 8.5 0.5 12.7 0 4.8 1.1 9.6 1.1 14.4v14.4c0 2.1 0 4.7-1.1 6.3 1.6 0.6 2.7 0.6 3.7 0.6zm95.2-45.2c0 2.1-2.1 3.2-3.7 3.7-2.2 1-5.9 1.6-8 2.1-2.1 0-3.7 0.5-3.7 2.7 0 1.6 0.5 5.3 0.5 6.4v10.6c0 4.8 0 10.6 0.5 12.8 0.6 4.2 0.6 5.8 0.6 10.1 0 2.1 0 7.9-3.2 7.9-1.6 0-2.2-0.5-3.2-1-1.1-0.6-1.6-2.1-1.6-3.2-0.5-1.6-0.5-2.7-0.5-3.2 0-1.6 0.5-2.7 0.5-5.3v-0.6c-1.1 3.8-3.7 7.5-6.9 10.2-4.8 3.7-8.5 5.3-14.9 5.3-3.7 0-7.4-0.6-10.6-1.6-4.3-1.6-7.5-3.7-10.1-6.4-4.3-4.3-6.9-9.1-9.6-14.4-2.1-4.2-3.2-7.9-3.7-12.7-0.5-3.2-1.1-5.9-1.6-9.1-0.5-3.2 0-4.8 0-8 0-10.6 2.6-20.7 5.3-32.4 1.1-5.3 2.7-10.6 4.3-15.4 1.6-5.4 4.2-10.7 7.4-15.5 2.7-4.2 5.8-8.5 10.1-11.7 1.6-1.6 3.7-2.6 5.8-3.2 2.7-1 5.4-2.1 8-2.1h1.1c1 0 2.1 0 4.2 0.5 2.7 0.6 4.8 1.1 6.9 2.2 1.6 1 3.2 2.6 3.8 4.2 0-1 0.5-2.6 0.5-3.7 0.5-0.5 0.5-1.1 1.1-2.1 0.5-0.6 1-1.1 1.5-1.1 0.6 0 1.1 0.5 1.6 1.1 0.6 1 1.1 2.6 1.6 3.7 0 1.6 0.6 4.8 0.6 8.5 0 4.8 0 10.1 0.5 11.7 0.5 4.3 0.5 5.9 0.5 10.1 0 2.2 0 8-3.2 8-1.6 0-2.1-0.5-3.1-1.1-1.1-0.5-1.6-2.1-1.6-3.2 0-1-0.6-2.1-0.6-3.1v-5.4c0-1 0-2.6-0.5-3.7-0.5-2.6-0.5-5.8-1.1-8.5-0.5-2.7-1.6-5.3-3.2-7.4-1-1.6-3.7-2.2-5.8-2.2-2.7 0-4.2 1.6-5.8 3.7-1.1 2.2-3.2 3.8-4.3 6.4q-1.6 4-1.6 8c0 2.7-0.5 4.8-1.6 7.5-1.1 2.6-1.1 5.8-1.6 8.5-0.5 2.6-0.5 5.3-1 8 0 2.6-1.1 4.7-1.1 7.4-0.5 2.7-0.5 5.3-1.1 8.5-0.5 2.7-0.5 5.3-1 8 0 2.1-0.6 4.8-0.6 6.9 0 3.2 0.6 6.9 0.6 10.1 0 4.8 1.6 9.1 2.6 13.8 0.6 1.6 0.6 3.8 1.1 5.4 0.5 2.1 1.6 4.2 2.6 6.3 1.6 2.7 4.8 6.4 8.6 6.4 3.1 0 5.3-2.6 6.9-4.8 2.6-3.7 3.7-7.9 4.7-12.2 0.6-3.7 1.1-7.4 1.1-11.2v-10.6c0-2.1 0-2.7-3.2-2.7-2.1 0-4.8 0.6-7.4 0.6-2.1 0-4.3 0-5.9-1.1-0.5-0.5-1-1.1-1-1.6 0-0.5 0-1.1 0.5-1.6 1.1-1 2.1-1.6 3.7-2.1 2.7-1.1 5.3-1.6 8.5-2.1 2.7-0.6 5.3-0.6 8-1.1h6.4c3.2 0 7.9-0.5 10.1-0.5 2.6-1.1 5.3-0.6 5.3 1.6z" />
	<path fill-rule="evenodd" fill="#ffffff"
		d="m1457.4 570.4c2.7 0 7.5 0 7.5 3.2 0 1.6-0.6 2.1-1.6 3.2q-1.6 1.5-3.2 1.5c-2.1 0.6-3.2 0.6-4.3 0.6h-30.3c-1.6 0-3.7-0.6-5.3-1.1-1.6-0.5-3.2-2.1-3.2-3.2 0-0.5 0-1 1.1-1.6 1.1-0.5 3.2-1 4.2-1.6 3.2-0.5 5.9-1 7.5-1-1.6-1.1-2.1-2.2-2.7-4.8-0.5-4.8-0.5-9.1-0.5-13.8v-21.9c0-3.1-0.5-5.8 0-8.5 0-1 0.5-2.6 0.5-3.7 0-1.1 0-1.6-0.5-2.1-0.5 0-1.1-0.5-1.6-0.5-2.1 0-5.3 0.5-6.4 0.5-1.6 0-3.7 0.5-9.5 0.5-2.7 0-4.3-0.5-4.8-0.5-0.6 0-1.1 0-1.1 1v20.3c0 2.1-0.5 4.2-0.5 6.3v13.9c0 3.2-0.6 5.8-0.6 8.5 0 1.6 0.6 3.2 0.6 4.2 2.6 0 5.8 0.6 5.8 3.2 0 1.6-0.5 2.2-1 3.2q-1.6 1.6-3.2 1.6c-1.6 0.5-3.2 0.5-4.3 0.5-1 0.6-1 0.6-2.1 1.1-0.5 0.5-0.5 1.1-1.6 1.6-0.5 0.5-1.6 0.5-2.1 0.5-2.7 0-4.8-0.5-5.9-2.1q-0.8-0.8-1.6-1.6h-14.3c-1.6 0-3.7 0-5.3-1-1.6-0.6-3.2-2.2-3.2-3.2 0-0.6 0-1.1 1-1.6 1.1-0.6 3.2-1.1 4.3-1.6 2.6-0.6 6.4-0.6 9-1.1v-54.2c0-1.1 0-1.1-1-1.6-0.6 0-3.2-0.6-4.8-0.6-2.1-0.5-4.8-1-4.8-2.1 0-0.5 0.5-1.1 1.1-1.6q1.6-0.8 3.1-1.6c1.1 0 2.7-0.5 3.8-0.5 1.6-0.6 2.1 0 2.6-1.1v-15.9c0-8.6 0-16.5 1.1-24.5 0-1.1 0-2.7 0.5-4.3h-7.4c-1.6 0-3.7-0.5-5.3-1-1.6-0.6-3.2-2.2-3.2-3.2 0-0.6 0-1.1 1-1.6 0.6-0.6 2.7-1.1 4.3-1.6 3.7-0.6 8.5-0.6 10.1-0.6h2.1c1.1-2.6 3.2-4.7 7.5-4.7 3.1 0 5.8 1.6 7.9 4.2h5.3c2.7 0 8 0 8 3.2 0 1.6-1 2.1-2.1 3.2q-1.6 1.6-3.2 1.6c-1.6 0.5-3.2 0.5-4.2 0.5h-1.6c0 0.6 0 0.6 0.5 1.1 1.1 3.2 1.6 6.4 2.1 9.6 0.5 3.2 0.5 6.4 1.1 9.5 0.5 3.2 1 5.9 1 9.1v4.8c0 1.6 0 3.2 0.6 4.8 0 1 1 1.6 1 2.6v2.1q0 1.6 1.6 1.6c2.2 0 11.2-0.5 11.7-1h8.5c1.1 0 2.2-0.6 2.2-2.2 0-1.5-0.6-4.2-0.6-4.7 0-3.8 0-7 0.6-10.1 0-0.6 0.5-3.8 0.5-7.5 0-3.2 0.5-6.9 0.5-9 0-1.6-0.5-3.8-0.5-4.8v-3.2h-3.2c-1.6 0-3.7-0.5-5.3-1.1-1.6-0.5-2.7-2.1-2.7-3.2 0-0.5 0-1 1.1-1.6 1.1-0.5 2.6-1 3.7-1.6 2.1-0.5 4.8-0.5 6.4-0.5 0.5-0.5 1-1.1 1.6-1.1 1.6 0 3.2-0.5 3.7-0.5h1.1c1 0 2.6 0 3.7 0.5 0.5 0 1 0.6 1.6 1.1 5.3 0 10.6-0.5 13.8-0.5 2.7 0 6.9 0 6.9 3.2 0 1.6 0 2.1-1.1 3.2q-1.5 1.6-3.1 1.6c-1.6 0.5-3.2 0.5-4.3 0.5h-8c0.6 1.6 1.6 3.2 1.6 4.8 0.6 3.2 1.6 6.4 2.2 9.6 0.5 2.6 0.5 5.3 1 7.9 0.5 2.7 1.1 4.8 1.1 8v5.9c0 1 0.5 2.6 0.5 3.7v0.5c0 1.1 1.1 1.1 1.6 1.1h2.1c1.6 0 3.8 0 4.3 1.6v1c0 1.6-2.1 3.8-3.2 4.3-0.5 0.5-2.1 0.5-2.7 1.1-1 0-1.6 0.5-1.6 1v8.5c0 4.3 0 8.5 0.6 12.8 0.5 4.3 1 9 1 13.3 0 2.1 0 4.2-0.5 6.4-0.5 3.7-0.5 7.4-1.1 11.1 0 0.6-0.5 1.1-0.5 1.6 0 0.6 0.5 1.6 0.5 2.2v1c1.1-1 3.2-1 4.8-1zm90.9-92.6c0 2.1 0 6.4-3.2 6.4-1.6 0-2.1 0-3.2-1.1-1-0.5-1.6-2.1-1.6-2.6-0.5-1.6-0.5-2.7-0.5-3.8v-13.2h-9.6c-1.6 0-3.1 0.5-4.7 0.5h-2.2c-1.6 0-2.1 0.5-2.1 1 0 0.6 0 1.6 0.5 2.2 0.6 1.6 0.6 5.3 0.6 6.9v4.8c0 1.6-0.6 3.2-0.6 4.8 0 1.6 0.6 3.7 0.6 5.3 0 1.6 0 3.2-0.6 5.3v10.6c0 1.6 0 3.2 0.6 4.8v2.2c0 1 0.5 3.1 0.5 3.7v9c0 3.7 0.5 6.9 0 10.7 0 1.6-0.5 3.2-0.5 4.8v5.3c0 3.7 0 6.9 0.5 10.6v12.2h4.8c2.6 0 7.4 0.6 7.4 3.8 0 1.6-0.5 2.1-1 3.2q-1.6 1.6-3.2 1.6c-1.6 0.5-3.2 0.5-4.3 0.5h-6.4c-0.5 0.5-1 0.5-1.5 1.1-1.6 1-2.7 1-4.3 1h-3.7c-2.1 0-3.7-0.5-5.3-1.6-0.6 0-1.1-0.5-1.1-0.5h-12.2c-1.6 0-3.7 0-5.3-1.1-1.6-0.5-3.2-3.2-3.2-3.7 0-0.5 0-1.1 1-1.6 1.1-0.5 3.2-1.1 4.3-1.6 3.2-0.5 6.4-0.5 8-0.5 0-2.1-0.6-3.7-0.6-5.9 0-3.2 0-7.4 0.6-10.6 0-3.2 0-6.9 0.5-10.1 0-4.3 0.5-8 0.5-12.3v-8.5c0-1.6 0.6-3.2 0.6-4.8 0-1.6 0.5-3.1 0.5-4.7v-43.7c0-1 0.5-2.1 0.5-2.6 0-1.1-1-1.6-1.6-1.6h-8.5c-3.2 0-6.4 0-9.5-0.5-0.6 0-1.1 0-1.6-0.6 0.5 3.7 0.5 10.7 0.5 14.4 0 2.1 0 6.4-3.2 6.4-1.6 0-2.1-0.6-3.2-1.1-1.1-0.5-1.6-1.6-1.6-2.7-0.5-1.6-0.5-2.6-0.5-3.7v-14.9c-0.5-1-1.1-1.6-1.1-2.6 0-0.6 0.6-1.6 1.6-2.2 1.6-1 2.1-1.6 5.3-1.6h4.3c3.7 0 6.9 0 10.6-0.5 1.6 0 3.2-0.5 4.8-0.5h4.8c1-0.6 2.1-1.6 3.7-2.1 1.1-0.6 2.1-0.6 3.2-0.6 2.1 0 3.7 0 5.8 0.6 0.6 0 1.6 0.5 2.2 1 0.5 0.5 1.6 1.1 2.1 1.6h22.8c2.2 0 4.8 0 6.4 1.1 1.1 0.5 2.1 2.1 2.1 3.7 0 0.5 0 1.6-0.5 2.1z" />
</svg>