<svg version="1.2" xmlns="http://www.w3.org/2000/svg" viewBox="0 0 1511 1375" width="1511" height="1375">
	<title>edison-bg-white-svg</title>
	<defs>
		<clipPath clipPathUnits="userSpaceOnUse" id="cp1">
			<path d="m0 0.95h1510.52v1373.1h-1510.52z"/>
		</clipPath>
	</defs>
	<style>
		.s0 { fill: #e74e0f } 
	</style>
	<g id="Layer">
		<g id="Clip-Path" clip-path="url(#cp1)">
			<path id="Layer" fill-rule="evenodd" class="s0" d="m852.3 261.2c-31.9 43.3-19.8 248.7-120.2 239.7-10.5 9-72.6 9-93.6-4.5-5.6-8.3-10.8-16.3-16.3-24.3-25.7-17.2-28.9-30.3-53-47.7l-69.9-102.5c1.8-10.6 3.4-21.4 4.9-31.6-30.7-48.3 7.8-128.7 36-161.5 33.9-39.4 68.9-88.9 130.1-97.7 16 4.5 31.5 9.1 47.6 13.7 37.5-4.6 134.8-36 144.7-38.7 13.5-3.6 47.3-12.1 53.9 6.1 11.1 28.9-59.5 18.6-69.3 64.2-33.6 29.9-26.8 92.3-31.5 135.4 15.7 9.7 32.4 29.7 36.6 49.4zm-852.3 360.4c27.3-34.8 22.6-95.9 82.2-99 6.8 13.5-1.6 5.8 14.6 11.1 1.9-3.2 3.8-6.5 5.6-9.6 9-10.3 10.9-21.2 12.8-41.1 8.5 0.6 16.7 1.3 25.4 1.8 2.9-54.5-0.8-74.2 18.1-96.6 0 1.7 6.9-5.8 6.9-4.2 10.2 16.5 7 9.5 14.6 30.5 19.7 53.1 92.9 177.1 157.8 185.4 63.8 44.1 214.3-63.3 224.9 63.3 33.2 59.6-70.3 134.1-100.7 149.3-18.6 9.4-54.9 12.9-76.2 18.4-162.7 43.2-384.6-96.3-386-209.3zm1510.5 65c-25.9 29.5 3.2 55.7-51.6 65.2-8.3 6.4-28.8 5-28.8 5-0.5 5.1 1.5 15 1.5 15 0 0-5.7 9.1-15.6 11.3-21.5 5.2-54.1 13.1-67.3 10.9-58-9.1-29.4-12.8-68.3-2.5-0.7-3.2-3.5-11.8-5.9-25.7-40.4-100.9-246.7-93-365.3-83.7-15.1-10-22.2-28.7-25.1-46.4-2.8-17.4 0.9-34.5 6.4-42 5.5-7.9 12.7-19.9 38-37.9 36.6-25.7 95.7-57.1 192.3-72.9 182.2-28.5 373.4 14.7 389.7 203.7zm-145.6 592.7c-9.5 10.5-10 30.9-20.1 41.4-9.8 10.3-21.1 4.5-35.6 10.6-53.8 23.2-48.1 47.6-126.2 42-8.5-16.8-117.6-102.4-144.2-103.2-8.7 1.8-28.2-12.4-30.5-14.6 0-3.6-4.7-12.3-4.7-15.9 8.1-9.5 15.2-13 14.3-62.2-8.4-11 1.2-38.4-7.6-50.1-8.1 0-16.7-41.8-29.1-56.4-10.9-3.6-34.5-44.2-42.9-51.6-28-23.3-65.6-36.7-82.4-69.9 1.7 0-2.3-5-0.7-5 16.1-32.8 28.1-27.5 55.3-49.1 193.3 6 455.2 189.1 454.4 384zm-704.9-327c33.9 39.8 46.6 201.5 10.2 269.8-14.8 27.4-46.4 67.5-70.3 88.4-15.8 13.8-36 12.1-54.3 24.8-32.5 22-66.6 38.8-105.2 28.4-16.9 1.1-33.7 2.6-51 3.8-7.4-1.8-33.4-15.6-42.1-17.2-15 0.9-30.5 2.3-45.7 3.1-2.3-6.6-4.4-13.3-6.6-20.2-12 1.1-23.7 1.8-35.4 2.8-10.6-6.3-14.7-30.6-23.5-39.6-13.3-13.3-20.3-4.6-27.9-29.2 10.7-22.1-18.8-108.3-24.4-145.2-6.2-19.4-9.2-22.5-4.2-22.8 78 67.7 236.1 31.4 310.1-40 22.6-22.1 51.9-68.5 64.5-88.9 8.3-13.1 38.1-17.5 48.9-29.5 28.5-3.4 44-3 56.9 11.5z"/>
		</g>
	</g>
</svg>