<svg version="1.2" xmlns="http://www.w3.org/2000/svg" viewBox="0 0 1550 467" width="1550" height="467">
	<title>edison-bg-white-svg</title>
	<defs>
		<clipPath clipPathUnits="userSpaceOnUse" id="cp1">
			<path d="m0 1h511.5v465h-511.5z"/>
		</clipPath>
	</defs>
	<style>
		.s0 { fill: #ffffff } 
	</style>
	<g id="Layer">
		<g id="Clip-Path" clip-path="url(#cp1)">
			<path id="Layer" fill-rule="evenodd" class="s0" d="m288.6 89.1c-10.8 14.7-6.7 84.2-40.7 81.2-3.6 3-24.6 3-31.7-1.5-1.9-2.8-3.6-5.5-5.5-8.2-8.7-5.9-9.8-10.3-18-16.2l-23.6-34.7c0.6-3.6 1.1-7.3 1.6-10.7-10.4-16.4 2.7-43.6 12.2-54.7 11.5-13.4 23.4-30.1 44.1-33.1 5.4 1.5 10.7 3.1 16.1 4.6 12.7-1.5 45.6-12.1 49-13 4.6-1.3 16-4.2 18.3 2 3.7 9.8-20.2 6.3-23.5 21.8-11.4 10.1-9.1 31.2-10.7 45.8 5.3 3.3 11 10.1 12.4 16.7zm-288.6 122.1c9.2-11.8 7.7-32.5 27.8-33.5 2.3 4.5-0.5 1.9 5 3.7 0.6-1.1 1.3-2.2 1.9-3.2 3-3.5 3.7-7.2 4.3-13.9 2.9 0.2 5.7 0.4 8.6 0.6 1-18.5-0.3-25.2 6.2-32.8 0 0.6 2.3-1.9 2.3-1.4 3.4 5.6 2.3 3.2 4.9 10.4 6.7 17.9 31.5 59.9 53.5 62.7 21.6 15 72.5-21.4 76.1 21.5 11.3 20.2-23.8 45.4-34.1 50.5-6.3 3.2-18.6 4.4-25.8 6.2-55.1 14.7-130.2-32.5-130.7-70.8zm511.5 22c-8.8 10 1.1 18.9-17.5 22.1-2.8 2.1-9.7 1.7-9.7 1.7-0.2 1.7 0.5 5.1 0.5 5.1 0 0-1.9 3-5.3 3.8-7.3 1.7-18.3 4.4-22.8 3.7-19.6-3.1-9.9-4.4-23.1-0.9-0.3-1.1-1.2-4-2-8.7-13.7-34.2-83.6-31.5-123.7-28.3-5.1-3.4-7.5-9.8-8.5-15.7-1-5.9 0.3-11.7 2.1-14.3 1.9-2.6 4.3-6.7 12.9-12.8 12.4-8.7 32.4-19.4 65.1-24.7 61.7-9.6 126.5 5 132 69zm-49.3 200.7c-3.2 3.6-3.4 10.5-6.8 14-3.3 3.5-7.2 1.5-12.1 3.6-18.2 7.9-16.2 16.2-42.7 14.2-2.9-5.7-39.8-34.6-48.8-34.9-3 0.6-9.6-4.2-10.4-4.9 0-1.3-1.6-4.2-1.6-5.4 2.8-3.3 5.2-4.4 4.9-21.1-2.9-3.7 0.4-13-2.6-17-2.7 0-5.6-14.1-9.8-19.1-3.7-1.2-11.7-14.9-14.6-17.4-9.5-7.9-22.2-12.5-27.9-23.7 0.6 0-0.7-1.7-0.2-1.7 5.5-11.1 9.5-9.3 18.7-16.6 65.5 2 154.2 64 153.9 130zm-238.7-110.7c11.5 13.4 15.8 68.2 3.5 91.4-5.1 9.2-15.8 22.8-23.9 29.9-5.3 4.7-12.2 4.1-18.4 8.4-10.9 7.4-22.5 13.1-35.6 9.6-5.7 0.4-11.4 0.9-17.2 1.3-2.6-0.6-11.4-5.3-14.3-5.8-5.1 0.3-10.3 0.7-15.5 1-0.8-2.2-1.5-4.5-2.2-6.8-4.1 0.3-8 0.6-12 0.9-3.6-2.1-5-10.3-8-13.4-4.4-4.5-6.8-1.6-9.4-9.9 3.6-7.5-6.4-36.6-8.3-49.2-2.1-6.5-3.1-7.6-1.4-7.7 26.4 22.9 80 10.6 105-13.5 7.7-7.5 17.6-23.2 21.9-30.1 2.8-4.5 12.9-5.9 16.5-10 9.7-1.2 14.9-1 19.3 3.9z"/>
		</g>
		<path id="Layer" fill-rule="evenodd" class="s0" d="m1162.5 311.8c0 38.3-29.9 61.2-79.9 61.2-20.6 0-30.8-2.4-47.7-6.3l-9.3-2.1 5.1-46.3 7.8 4c13.8 7 28.3 10.7 41.8 10.7 11.3 0 29.2-5 29.2-18.3 0-10.8-11.7-15.6-30.7-22.6-24.9-9.1-55.8-20.5-55.8-58.9 0-20.9 8-37 23.8-48 16.5-11.3 36.9-13.7 51-13.7 17.9 0 34.4 2.3 49.1 6.9l4.5 1.4-5.1 42.2-7.3-3q-4.5-1.8-9.1-3.2-4.7-1.4-9.4-2.3-4.8-1-9.6-1.4-4.8-0.5-9.7-0.5c-7.5 0-25.1 1.9-25.1 20 0 9.1 10.9 13.5 28.9 19.9 24.3 8.7 57.5 20.6 57.5 60.3zm100.8 61.2c-55.8 0-100.8-45-100.8-100.8 0-55.7 45-100.7 100.8-100.7 55.7 0 100.7 45 100.7 100.7 0 55.8-45 100.8-100.7 100.8zm48.6-101.3c0-27.7-12.8-60.2-48.6-60.2-35.9 0-48.7 32.5-48.7 60.2 0 29.6 12.8 61.3 48.7 61.3 35.8-0.1 48.6-31.7 48.6-61.3zm238.1-100.2v201.5h-56.7l-65.1-125.3v125.3h-48.7v-201.5h57l1.6 3.1 63.2 122.1v-125.2zm-806 98v15.8c-21.9 0.4-126.4 0-126.4 0v3.2c0.1 25.8 20.2 42.2 46.3 42.1 26-0.1 46.1-8.9 58.3-17.7 2.2 3.2 19.4 31.8 21.6 35-20.2 13.9-48.2 25-93.9 25.1-58.2 0.2-91.7-36.6-91.9-98.4-0.3-92.8 65.7-103.1 94.1-103.1 61.6-0.3 91.6 31.8 91.9 98zm-58.4-20.5c-0.2-12.9-1.9-37.5-32.9-37.4-30.4 0.1-34.6 26.3-35.2 37.5l-0.3 2.9 68.4-0.3c0 0 0-2.7 0-2.7zm259.9-77.5h62v201.5h-62zm-15.5 100.7c0 65.6-38.2 100.8-113.6 100.8h-56.9v-201.5h56.9c75.4 0 113.6 35.2 113.6 100.7zm-50.3 0c0-28.2-19.7-60.2-56.1-60.2h-15.3v120.5h15.3c36.4 0 56.1-32 56.1-60.3z"/>
	</g>
</svg>