<svg xmlns="http://www.w3.org/2000/svg" viewBox="0 0 512 512"><title>Zoom</title><defs><linearGradient id="zoom-2025-gradient" x1="0" x2="1" y1="0" y2="0" gradientTransform="rotate(-60 88.792 30.85)scale(109.282)" gradientUnits="userSpaceOnUse"><stop offset="0" stop-color="#0845bf"/><stop offset=".6" stop-color="#0b5cff"/><stop offset="1" stop-color="#4f90ee"/></linearGradient></defs><path fill="url(#zoom-2025-gradient)" d="M84.06 37.19V52.8c0 17.25-14 31.25-31.25 31.25H37.2c-17.25 0-31.25-14-31.25-31.25V37.2c0-17.25 14-31.25 31.25-31.25h15.6c17.25 0 31.25 14 31.25 31.25" transform="matrix(6.4 0 0 6.4 -32 -32)"/><path fill="#fff" d="M152.08 295.51H88.07c-4.49 0-8.5-2.67-10.22-6.82a11.05 11.05 0 0 1 2.4-12.07l44.33-44.33H92.81a15.8 15.8 0 0 1-15.8-15.8h59.02c4.5 0 8.5 2.68 10.22 6.83a11 11 0 0 1-2.4 12.05l-44.33 44.34h36.75a15.8 15.8 0 0 1 15.81 15.8M435 246.11a30.86 30.86 0 0 0-30.82-30.81 30.8 30.8 0 0 0-22.92 10.24 30.8 30.8 0 0 0-22.92-10.24 30.86 30.86 0 0 0-30.82 30.82v49.4a15.8 15.8 0 0 0 15.8-15.81v-33.6a15.03 15.03 0 0 1 30.03 0v33.6a15.8 15.8 0 0 0 15.81 15.8v-49.4a15.03 15.03 0 0 1 30.04 0v33.6a15.8 15.8 0 0 0 15.8 15.8zm-115.38 9.9a40.7 40.7 0 1 1-81.4-.01 40.7 40.7 0 0 1 81.4 0m-15.8 0a24.9 24.9 0 1 0-49.8-.01 24.9 24.9 0 0 0 49.8 0m-71.92 0a40.7 40.7 0 1 1-81.4 0 40.7 40.7 0 0 1 81.4 0m-15.8 0a24.9 24.9 0 1 0-49.8-.01 24.9 24.9 0 0 0 49.8 0"/></svg>