<svg xmlns="http://www.w3.org/2000/svg" viewBox="0 0 512 512"><title>Zoom</title><path fill="#fff" d="M506 206v100c0 110.38-89.62 200-200 200H206C95.62 506 6 416.38 6 306V206C6 95.62 95.62 6 206 6h100c110.38 0 200 89.62 200 200"/><path fill="#0b5cff" d="M152.08 295.51H88.07c-4.49 0-8.5-2.67-10.22-6.82a11.05 11.05 0 0 1 2.4-12.07l44.33-44.33H92.81a15.8 15.8 0 0 1-15.8-15.8h59.02c4.5 0 8.5 2.68 10.22 6.83a11 11 0 0 1-2.4 12.05l-44.33 44.34h36.75a15.8 15.8 0 0 1 15.81 15.8M435 246.11a30.86 30.86 0 0 0-30.82-30.81 30.8 30.8 0 0 0-22.92 10.24 30.8 30.8 0 0 0-22.92-10.24 30.86 30.86 0 0 0-30.82 30.82v49.4a15.8 15.8 0 0 0 15.8-15.81v-33.6a15.03 15.03 0 0 1 30.03 0v33.6a15.8 15.8 0 0 0 15.81 15.8v-49.4a15.03 15.03 0 0 1 30.04 0v33.6a15.8 15.8 0 0 0 15.8 15.8zm-115.38 9.9a40.7 40.7 0 1 1-81.4-.01 40.7 40.7 0 0 1 81.4 0m-15.8 0a24.9 24.9 0 1 0-49.8-.01 24.9 24.9 0 0 0 49.8 0m-71.92 0a40.7 40.7 0 1 1-81.4 0 40.7 40.7 0 0 1 81.4 0m-15.8 0a24.9 24.9 0 1 0-49.8-.01 24.9 24.9 0 0 0 49.8 0"/></svg>