<svg xmlns="http://www.w3.org/2000/svg" viewBox="0 0 1426 321" width="1426" height="321" fill="currentColor">
  <g transform="translate(0,0) scale(0.333333) translate(0,963) scale(0.1,-0.1)"><path d="M0 9376 c0 -63 4 -117 9 -121 6 -3 12 -27 16 -53 14 -124 78 -347
130 -453 14 -29 25 -56 25 -59 0 -4 22 -45 48 -91 130 -228 254 -381 427 -527
276 -233 604 -382 960 -437 89 -13 342 -15 2072 -15 1085 0 1974 -4 1977 -8 6
-11 -1716 -1728 -3084 -3075 -283 -278 -918 -908 -1411 -1399 -769 -767 -904
-905 -951 -978 -98 -150 -164 -314 -187 -461 -5 -32 -14 -66 -20 -77 -18 -33
-14 -333 4 -368 8 -16 15 -43 15 -59 0 -30 58 -224 78 -261 6 -10 20 -39 32
-64 62 -131 153 -253 275 -368 221 -210 513 -334 848 -362 195 -16 7679 -14
7695 2 7 7 12 35 12 63 0 59 -33 288 -51 360 -15 59 -76 250 -88 273 -5 10
-28 59 -52 111 -90 192 -260 419 -428 569 -81 72 -195 162 -206 162 -4 0 -24
12 -44 28 -20 15 -54 37 -76 49 -84 45 -196 101 -212 106 -10 3 -43 15 -73 27
-61 24 -117 40 -235 69 -197 47 -87 45 -2505 48 -1256 2 -2288 7 -2293 12 -4
4 171 183 390 396 402 393 958 943 2333 2310 415 413 852 845 970 960 118 116
541 535 940 930 784 778 795 790 900 995 48 93 89 221 115 354 20 102 17 375
-4 461 -68 275 -172 475 -335 644 -73 75 -207 186 -246 204 -8 4 -28 16 -45
26 -90 58 -248 119 -420 163 l-90 22 -3607 3 -3608 3 0 -114z M9134 6599 c-6 -8 -14 -23 -17 -34 -3 -11 -15 -45 -26 -75 -31 -79
-115 -335 -134 -405 -80 -303 -119 -515 -152 -837 -20 -197 -20 -682 0 -867
19 -173 44 -356 55 -401 5 -19 11 -55 15 -80 22 -157 121 -507 225 -789 32
-88 37 -98 45 -89 3 2 4 812 3 1798 -2 1312 -6 1789 -14 1779z"/></g>
  <g transform="translate(992,0) scale(0.333333) translate(0,963) scale(0.1,-0.1)"><path d="M3525 9621 c-3 -5 -36 -12 -73 -15 -150 -14 -378 -58 -567 -112 -115
-32 -314 -101 -352 -122 -12 -7 -26 -12 -32 -12 -19 0 -231 -101 -366 -175
-122 -67 -271 -161 -423 -270 -230 -165 -651 -585 -792 -792 -8 -11 -36 -51
-62 -88 -27 -36 -48 -68 -48 -72 0 -3 -13 -22 -28 -42 -16 -20 -32 -43 -35
-51 -4 -8 -16 -28 -27 -45 -11 -16 -24 -39 -30 -50 -6 -11 -20 -36 -31 -55
-29 -47 -149 -283 -149 -292 0 -3 -13 -35 -28 -70 -25 -56 -36 -81 -74 -178
-66 -167 -145 -476 -182 -710 -46 -286 -44 -183 -45 -3338 -1 -2787 0 -2983
16 -2989 21 -8 289 12 363 28 122 25 339 102 464 164 138 69 145 73 215 120
24 17 55 37 69 47 58 39 211 180 292 269 195 217 351 512 420 794 45 184 43
59 49 2370 5 1668 10 2196 19 2250 35 198 58 283 119 438 99 255 280 508 495
696 55 47 130 106 166 131 83 56 231 140 246 140 7 0 16 4 21 9 14 12 189 77
255 95 30 8 73 19 96 25 68 18 313 42 409 40 185 -4 371 -36 555 -96 65 -22
73 -25 205 -89 297 -143 532 -348 710 -618 51 -78 71 -113 112 -191 86 -164
149 -377 172 -580 9 -72 13 -702 15 -2250 2 -1607 6 -2161 14 -2195 7 -25 15
-61 18 -80 16 -104 81 -312 130 -415 13 -29 24 -55 24 -58 0 -10 120 -210 153
-255 112 -152 195 -242 317 -346 82 -69 199 -155 230 -169 8 -4 29 -16 45 -27
17 -10 62 -35 100 -54 218 -108 427 -170 667 -196 142 -15 179 -14 184 8 2 9
5 1358 7 2997 l2 2980 22 105 c20 96 48 209 72 285 28 92 122 287 181 380 11
17 23 37 27 45 12 27 96 133 176 223 215 240 486 411 807 509 187 57 287 71
515 71 201 0 287 -10 440 -50 427 -111 808 -382 1052 -748 155 -232 260 -518
284 -775 4 -47 8 -1014 8 -2150 1 -2326 -1 -2262 75 -2530 132 -470 462 -891
881 -1122 260 -144 589 -239 850 -247 l75 -2 -3 3118 c-2 2295 -6 3131 -15
3168 -6 28 -18 93 -27 145 -25 145 -73 330 -126 490 -54 165 -75 223 -88 248
-5 9 -26 55 -46 102 -65 146 -100 214 -212 410 -49 85 -118 185 -238 345 -144
193 -462 519 -650 668 -110 86 -338 247 -351 247 -3 0 -20 11 -37 24 -49 36
-390 216 -410 216 -4 0 -30 11 -59 24 -105 49 -351 135 -483 169 -265 69 -362
84 -755 119 -176 16 -479 15 -575 -1 -38 -6 -119 -18 -180 -27 -240 -34 -529
-113 -811 -222 -146 -56 -434 -201 -542 -273 -24 -16 -45 -29 -47 -29 -3 0
-105 -69 -209 -140 -86 -59 -285 -230 -406 -348 -80 -78 -147 -142 -149 -142
-2 0 -70 65 -152 144 -226 220 -427 376 -679 527 -125 75 -386 208 -490 248
-30 12 -64 26 -75 30 -27 11 -102 40 -145 56 -44 16 -204 64 -250 75 -237 55
-353 77 -484 90 -55 5 -104 14 -110 20 -13 13 -683 14 -691 1z"/></g>
  <circle cx="455" cy="160.5" r="130.5" fill="none" stroke="currentColor" stroke-width="63"/>
  <circle cx="804" cy="160.5" r="130.5" fill="none" stroke="currentColor" stroke-width="63"/>
</svg>
