<svg xmlns="http://www.w3.org/2000/svg" width="1426" height="321" fill="#0b5cff" viewBox="0 0 1426 321"><title>Zoom</title><path d="M0 8.5c0 2 .1 3.9.3 4q.3.3.5 1.8a60 60 0 0 0 6.8 20 65 65 0 0 0 46.2 32.1c3 .5 11.4.6 69.1.6 36.2 0 65.8.1 65.9.3.2.3-57.2 57.6-102.8 102.5l-47 46.6C13.3 242 8.8 246.6 7.3 249 4 254 1.8 259.5 1 264.4c-.1 1-.4 2.2-.6 2.5A42 42 0 0 0 4.7 292a41 41 0 0 0 9.1 12.3q11.3 10.6 28.3 12c6.5.6 256 .5 256.5 0q.3-.6.4-2.1c0-2-1.1-9.6-1.7-12-.5-2-2.5-8.4-3-9.1l-1.7-3.7A65 65 0 0 0 258 258a62 62 0 0 0-7.8-2.3c-6.6-1.6-3-1.5-83.5-1.6-41.9 0-76.3-.2-76.5-.4a233 233 0 0 1 13-13.2c13.4-13.1 32-31.4 77.8-77l32.3-32 31.4-31c26.1-26 26.5-26.3 30-33.2a42 42 0 0 0 3.7-27.1A45 45 0 0 0 259 11.9l-1.5-.9c-3-1.9-8.3-4-14-5.4l-3-.7-120.2-.1L0 4.7zM304.5 101l-.6 1.2-.9 2.5a162 162 0 0 0-7.2 86.3c.8 5.2 4 16.9 7.5 26.3 1.1 3 1.3 3.3 1.5 3 .1-.1.2-27.1.1-60 0-43.7-.2-59.6-.4-59.3M1109.5.3c-.1.2-1.2.4-2.4.5a117 117 0 0 0-44 14c-4 2.3-9 5.4-14 9a151 151 0 0 0-26.4 26.4l-2.1 3q-1.5 2-1.6 2.4l-1 1.4-1.1 1.7-.9 1.5-1 1.6-1 1.9a138 138 0 0 0-8.4 18c-2.2 5.5-4.8 15.8-6 23.6-1.6 9.6-1.5 6.1-1.6 111.3 0 92.9 0 99.4.6 99.6.7.3 9.6-.4 12-.9a80 80 0 0 0 22.7-9.5l2.3-1.5a64 64 0 0 0 23.7-35.4c1.5-6.2 1.5-2 1.7-79 .1-55.7.3-73.3.6-75a63 63 0 0 1 26-42.2 56 56 0 0 1 17.4-8.2l3.2-.8a64 64 0 0 1 39 4.8 58 58 0 0 1 27.4 27c2.8 5.5 5 12.6 5.7 19.3.3 2.4.4 23.4.5 75 0 53.6.2 72 .5 73.2l.6 2.7a66 66 0 0 0 10.2 24.2 62 62 0 0 0 23 19.9 64 64 0 0 0 22.3 6.5c4.7.5 6 .5 6.1-.2l.3-100v-99.3l.8-3.5c.6-3.2 1.6-7 2.4-9.5a72 72 0 0 1 6.9-14.1 58 58 0 0 1 50-26.8c6.6 0 9.5.3 14.6 1.7a61 61 0 0 1 35 24.9 58 58 0 0 1 9.5 25.8c.2 1.6.3 33.8.3 71.7 0 77.5 0 75.4 2.5 84.3a63 63 0 0 0 57.7 45.7h2.5l-.1-103.9c0-76.5-.2-104.4-.5-105.6l-.9-4.8a122 122 0 0 0-15.7-41.7c-1.7-2.8-4-6.2-8-11.5a156 156 0 0 0-21.6-22.3 134 134 0 0 0-28.6-17 120 120 0 0 0-41.3-9.6 113 113 0 0 0-25.1 1A128 128 0 0 0 1239 18l-1.6 1-7 4.7A143 143 0 0 0 1212 40l-5-4.8a117 117 0 0 0-39-25.8l-2.5-1-4.8-1.9-8.4-2.5c-7.9-1.8-11.7-2.6-16.1-3-1.8-.2-3.5-.5-3.7-.7-.4-.4-22.7-.4-23 0"/><circle cx="455" cy="160.5" r="130.5" fill="none" stroke="#0b5cff" stroke-width="63"/><circle cx="804" cy="160.5" r="130.5" fill="none" stroke="#0b5cff" stroke-width="63"/></svg>