<svg xmlns="http://www.w3.org/2000/svg" viewBox="0 0 238.52 238.52"><title>SmartBill</title><style>.st1{fill:#39b54a}.st2{fill:#fff}.st3{fill:#8cc63f}.st4{fill:#d9e021}.st5{fill:#fcee21}.st6{fill:#009245}.st7{fill:#006837}.st8{fill:#22b573}.st9{fill:#00a99d}.st10{fill:#29abe2}.st11{fill:#82d6f4}</style><path d="m211.89 183.54-28.35 28.35c-35.5 35.5-93.06 35.5-128.56 0l-28.35-28.35c-35.5-35.5-35.5-93.06 0-128.56l28.35-28.35c35.5-35.5 93.06-35.5 128.56 0l28.35 28.35c35.5 35.5 35.5 93.06 0 128.56" style="fill:#020044"/><path d="m104.63 197.322 5.983-26.585 7.835 1.764-5.985 26.585z" class="st1"/><path d="m123.382 132.983 11.38-24.76 7.296 3.354-11.38 24.76z" class="st2"/><path d="m87.605 187.665 16.28-21.852 6.439 4.797-16.28 21.852z" class="st3"/><path d="m76.013 171.93 23.762-13.342 3.932 7.002-23.762 13.341z" class="st4"/><path d="m71.795 152.82 27.133-2.524.744 7.995-27.133 2.524z" class="st5"/><path d="m118.758 172.52 7.874-1.576 5.347 26.722-7.874 1.575z" class="st6"/><path d="m126.913 170.816 6.553-4.642 15.753 22.236-6.553 4.642z" class="st7"/><path d="m133.658 165.943 4.098-6.906 23.435 13.906-4.098 6.906z" class="st8"/><path d="m137.856 158.752.935-7.975 27.065 3.172-.935 7.975z" class="st9"/><path d="m136.376 142.802 26.016-8.11 2.39 7.667-26.016 8.11z" class="st10"/><path d="m130.923 136.52 20.467-17.991 5.302 6.031-20.468 17.99z" class="st11"/><path d="m120.065 65.967 5.985-26.586 7.834 1.764L127.9 67.73z" class="st1"/><path d="m96.458 126.888 11.377-24.762 7.297 3.353-11.377 24.762z" class="st2"/><path d="m128.169 67.86 16.28-21.852 6.438 4.797-16.279 21.851z" class="st3"/><path d="m134.827 72.884 23.762-13.341 3.932 7.002-23.762 13.341z" class="st4"/><path d="m138.836 80.169 27.133-2.523.743 7.995-27.132 2.523z" class="st5"/><path d="m106.55 40.826 7.873-1.576 5.347 26.722-7.874 1.575z" class="st6"/><path d="m89.308 50.069 6.552-4.642 15.754 22.236-6.553 4.642z" class="st7"/><path d="m77.321 65.524 4.098-6.906 23.435 13.906-4.098 6.906z" class="st8"/><path d="m72.664 84.523.935-7.975 27.064 3.172-.934 7.975z" class="st9"/><path d="m73.747 96.101 26.015-8.11 2.39 7.667-26.016 8.11z" class="st10"/><path d="m81.822 113.912 20.465-17.993 5.302 6.03-20.464 17.994z" class="st11"/><path d="M123.09 132.9h.04l.33-27.24-8.03-.1v.01h-.05l-.32 27.24 8.03.1z" class="st2"/></svg>