<svg xmlns="http://www.w3.org/2000/svg" viewBox="0 0 196 56" fill="none">
  <svg x="6" y="6" width="44" height="44" viewBox="0 0 24 24" fill="none" stroke="#0a0a0a" stroke-width="1.75" stroke-linecap="round" stroke-linejoin="round">
    <path d="M7 7 L17 7 L17 17 L7 17 Z" fill="#f97316" stroke="none"/>
    <path d="M3 5 A2 2 0 0 1 5 3 L15 3 A2 2 0 0 1 17 5 L17 7 L19 7 A2 2 0 0 1 21 9 L21 19 A2 2 0 0 1 19 21 L9 21 A2 2 0 0 1 7 19 L7 17 L5 17 A2 2 0 0 1 3 15 Z"/>
  </svg>
  <text x="62" y="38" font-family="-apple-system,BlinkMacSystemFont,'Inter',sans-serif" font-size="28" font-weight="700" letter-spacing="-0.5" fill="#0a0a0a">the<tspan fill="#f97316">SVG</tspan></text>
</svg>
