<svg xmlns="http://www.w3.org/2000/svg" viewBox="0 0 222 217"><path fill="#03008F" d="M114.875 9.188C122.207 14.596 128.64 20.93 133 29v2l1.5-.5c13.365-2.673 27.274 2.563 38.5 9.5 12.583 9.433 21.562 22.298 24.754 37.836C198 80 198 80 197.84 82.352c-.132 3.606-.004 6.286 2.428 9.13 3.969 3.832 8.355 7.17 12.732 10.518 8.745 6.845 8.745 6.845 9.813 11.688-1.435 5.846-5.47 9.053-10.063 12.687A673.982 673.982 0 0 0 207 131l-2.116 1.337c-3.653 2.565-5.605 4.345-6.551 8.81-.204 3.825-.192 7.586-.083 11.416.32 18.735-3.77 34.227-16.733 48.15-11.48 11.636-25.32 16.611-41.392 16.85-16.536-.147-29.93-5.621-41.828-17.192C89 190.31 89 190.31 89 186l-1.563.512c-13.348 2.674-27.354-2.598-38.546-9.469C40.605 171.187 34.587 164.002 30 155l-1.18-2.313c-3.539-7.439-4.996-14.187-4.707-22.453 1.09-14.22 1.09-14.22-4.23-26.773-3.08-2.861-6.45-5.192-10.048-7.356-2.418-1.456-4.597-3.123-6.773-4.918l-1.84-1.332C-.441 87.33-.557 84.988-.433 82.01c.75-3.467 3.102-5.33 5.747-7.447l1.626-1.42a85.93 85.93 0 0 1 8.237-6.283c5.926-4.101 5.926-4.101 8.777-10.52.348-2.751.515-5.505.684-8.273.846-12.705 8.885-25.588 18.015-34.156C63.51-3.06 92.16-6.065 114.875 9.187ZM101.25 45.75c-10.168 9.57-18.001 23.34-18.524 37.528-.02 1.551-.031 3.103-.032 4.654l-.026 2.59c-.024 2.807-.032 5.613-.04 8.42l-.026 5.91c-.017 4.127-.025 8.253-.028 12.38-.005 5.25-.043 10.498-.088 15.747-.03 4.07-.037 8.142-.038 12.213a663.447 663.447 0 0 1-.038 5.799c-.114 11.38-.078 22.773 5.59 33.009 4.551 2.117 9.055-.232 13.55-1.707 15.517-5.816 26.184-15.997 33.263-30.918 3.326-7.379 4.487-14.308 4.493-22.307l.026-2.59c.024-2.807.032-5.613.04-8.42l.026-5.91c.017-4.127.025-8.253.028-12.38.005-5.25.043-10.498.088-15.747.03-4.07.037-8.142.038-12.213.004-1.933.017-3.866.038-5.799.114-11.38.078-22.773-5.59-33.009-9.512-4.425-25.682 6.828-32.75 12.75Z"/><path fill="#004CE5" d="M173 40c12.583 9.433 21.562 22.298 24.754 37.836C198 80 198 80 197.84 82.352c-.132 3.606-.004 6.286 2.428 9.13 3.969 3.832 8.355 7.17 12.732 10.518 8.745 6.845 8.745 6.845 9.813 11.688-1.435 5.846-5.47 9.053-10.063 12.687A673.982 673.982 0 0 0 207 131l-2.116 1.337c-3.653 2.565-5.605 4.345-6.551 8.81-.204 3.825-.192 7.586-.083 11.416.32 18.735-3.77 34.227-16.733 48.15-11.48 11.636-25.32 16.611-41.392 16.85-16.536-.147-29.93-5.621-41.828-17.192C89 190.31 89 190.31 89 185l3.113-.883c16.75-4.893 29.693-11.734 38.887-27.117 4.815-9.146 7.298-17.632 7.306-27.932l.026-2.59c.024-2.807.032-5.613.04-8.42l.026-5.91c.017-4.127.025-8.253.028-12.38.005-5.25.043-10.498.088-15.747.03-4.07.037-8.142.038-12.213.004-1.933.017-3.866.038-5.799.122-12.15-1.15-21.67-5.59-33.009v-2c13.16-4.386 28.95 2.171 40 9Z"/></svg>
