<svg version="1.2" xmlns="http://www.w3.org/2000/svg" viewBox="0 0 1219 1000" width="1219" height="1000">
	<defs>
		<clipPath clipPathUnits="userSpaceOnUse" id="cp1">
			<path d="m1218.96 222.72c-76.74-18.72-248.06-3.54-378.01 81.98-153.67 101.16-187.13 284.1-187.13 284.1 198.12-258.23 485.75-185.93 485.75-185.93 0 0 29.48-22.18 57.35-83.46 23.42-51.56 22.04-96.69 22.04-96.69z"/>
		</clipPath>
		<linearGradient id="g1" x2="1" gradientUnits="userSpaceOnUse" gradientTransform="matrix(309.155,-200.296,107.084,165.283,734.731,523.533)">
			<stop offset="0" stop-color="#fecb03"/>
			<stop offset=".53" stop-color="#fdbd0f"/>
			<stop offset="1" stop-color="#fbaf16"/>
		</linearGradient>
		<clipPath clipPathUnits="userSpaceOnUse" id="cp2">
			<path d="m806.34 0.34c-71.88 32.73-197.18 150.67-246.5 298.22-58.36 174.64 28.31 339.14 28.31 339.14-3.74-325.59 267.04-446.6 267.04-446.6 0 0 9.52-35.72-6.45-101.06-13.38-55.07-42.37-89.7-42.4-89.7z"/>
		</clipPath>
		<linearGradient id="g2" x2="1" gradientUnits="userSpaceOnUse" gradientTransform="matrix(-113.292,287.591,-176.782,-69.641,726.063,236.017)">
			<stop offset="0" stop-color="#fbaf16"/>
			<stop offset=".447" stop-color="#fec608"/>
			<stop offset="1" stop-color="#fecb03"/>
		</linearGradient>
		<clipPath clipPathUnits="userSpaceOnUse" id="cp3">
			<path d="m344.54 80.78c-36.27 70.18-61.85 240.4-9.46 386.96 62.02 173.27 231.83 248.95 231.83 248.95-204.12-253.63-66.1-516.23-66.1-516.23 0 0-14.61-33.95-67.57-75.53-44.51-34.89-88.7-44.15-88.7-44.15z"/>
		</clipPath>
		<linearGradient id="g3" x2="1" gradientUnits="userSpaceOnUse" gradientTransform="matrix(74.077,305.019,-161.221,39.154,442.966,297.021)">
			<stop offset="0" stop-color="#fbaf16"/>
			<stop offset=".481" stop-color="#fec706"/>
			<stop offset="1" stop-color="#fecb03"/>
		</linearGradient>
		<clipPath clipPathUnits="userSpaceOnUse" id="cp4">
			<path d="m32.97 427.16c14.51 77.63 98.87 227.7 230.23 311.03 155.4 98.54 335.74 53.8 335.74 53.8-316.77-74.49-369.25-366.52-369.25-366.52 0 0-32.34-17.79-99.62-18.05-56.62-0.15-97.1 19.74-97.1 19.74z"/>
		</clipPath>
		<linearGradient id="g4" x2="1" gradientUnits="userSpaceOnUse" gradientTransform="matrix(244.015,196.084,-120.683,150.183,203.419,562.824)">
			<stop offset="0" stop-color="#fbaf16"/>
			<stop offset=".598" stop-color="#fec607"/>
			<stop offset="1" stop-color="#fecb03"/>
		</linearGradient>
		<clipPath clipPathUnits="userSpaceOnUse" id="cp5">
			<path d="m0.53 896.51c59.53 51.92 218.71 117.26 373.33 101.09 183.05-19.09 296.76-166.17 296.76-166.17-294.65 138.19-516.79-58.37-516.79-58.37 0 0-36.45 6.08-89.3 47.74-44.56 34.94-64 75.71-64 75.71z"/>
		</clipPath>
		<linearGradient id="g5" x2="1" gradientUnits="userSpaceOnUse" gradientTransform="matrix(579.12,-52.251,32.843,364.012,77.234,889.612)">
			<stop offset="0" stop-color="#fbaf16"/>
			<stop offset=".601" stop-color="#fec706"/>
			<stop offset="1" stop-color="#fecb03"/>
		</linearGradient>
	</defs>
	<style>
		.s0 { fill: url(#g1) } 
		.s1 { fill: url(#g2) } 
		.s2 { fill: url(#g3) } 
		.s3 { fill: url(#g4) } 
		.s4 { fill: url(#g5) } 
	</style>
	<g id="Clip-Path: Clip-Path" clip-path="url(#cp1)">
		<g id="Clip-Path">
			<g>
				<path class="s0" d="m651.61 202.78v85.51l0.63 0.08c0.8 14.17 2.34 25.19 4.31 31.56-5.98 4.19-5.64 5.83 1.67 5.9 6.03 0.08 10.97 5.62 10.97 12.35 0 6.79 38.44 4.84 28.57 17.68-143.77 187.07-795.58 809.25 221.96 169.29 23.57-14.82 33.09 48.33 43.2 53.4 5.49 2.76 26.73 5.36 55.4 7.26l1.66 4.11h203.14v-193.57l129.31-193.57c71.62-106.99-183.72-87.47-281.83-55.46l-133.23 55.46z"/>
			</g>
		</g>
	</g>
	<g id="Clip-Path: Clip-Path" clip-path="url(#cp2)">
		<g id="Clip-Path">
			<g>
				<path class="s1" d="m493.34-8.4v101.2c0 21.84-0.2 39.13 0 52.85v17.53l-161.1 18.22v150.36l1.98-0.41c0.86 13 2.08 23.4 3.82 31.56-1.64 1.12-3.3 2.24-4.65 3.41-1.8 1.56 2.47 8.52 9.46 15.52 5.95 5.95 11.13 8.6 20.93 8.16 9.8-0.08 186.19 394.32 178.8 410.15-132.63 284.29 345.11-181.17 262.88-361.42-15.39-33.78 44.92 29.69 46.85 21.86q0.59-2.42 1.74-4.16 0.57-0.83 1.25-1.48c2.21-2.21 5.2-2.7 7.98-0.99h0.02c10.9 6.74 10.51-2.05 3.3-14.53 2.99-30.79 118.03-125.79 118.03-231.56v-123.71l-113.22-92.56c-21.29-158.6-112.98-49.55-189.04 0z"/>
			</g>
		</g>
	</g>
	<g id="Clip-Path: Clip-Path" clip-path="url(#cp3)">
		<g id="Clip-Path">
			<g>
				<path class="s2" d="m238.79-51.14l-100.14 253.86v17.92c0 39.54-0.65 68.46 0 88.63v217.65l348.33 385.08 2.26-3.32c0.54 48.51-203.45-246.82-202.72-223.6-2.19 13.02-3.44 23.14-3.18 26.91 0.89 12.58 1.49 12.5 4.94-0.6 2.16-8.19 9-12.98 15.21-10.58 7.49 2.88 17.76-15.53 30.7-54.99 10.71-32.63 228.18 233.01 248.56 242.97 140.79 68.77 221.05 14.76 130.92-108.03-0.89-1.17 2.91-1.02 4.55-1.69 4.08-1.72 8.55-4.16 13.12-7 8.48-5.09 17.34-11.44 24.08-17.7 3.17-2.92 5.79-5.46 8.11-8.14 8.73-8.97-190.71-352.46-193.68-355.42-0.41-0.42-1.01-0.73-1.56-1.07 1.46-7.3 2.39-16.95 3.02-30.31l1.17-0.24v-222.74l-43.55-163.23 0.16-8.11 0.44-16.25h-145.68z"/>
			</g>
		</g>
	</g>
	<g id="Clip-Path: Clip-Path" clip-path="url(#cp4)">
		<g id="Clip-Path">
			<g>
				<path class="s3" d="m-55.39 313.64c-324.65 121.11 57.32 241.9 82.72 311.48v220.45l25.06-0.49h256.51l-0.29-2.05c10.84-0.76 19.71-1.82 26.96-3.25 4.24 7.69 9.49 5.35 21.21-6.37q3.05-3.02 4.87-7.18c5.45-8.92-13.34 81.07 4.41 89.39 918.62 430.95 71.86-399.18 180.19-450.63 21.91-10.4 44.11-26.71 49.7-38.61l10.04-21.22h-242.91l-115.33-126.39-158.37-13.05z"/>
			</g>
		</g>
	</g>
	<g id="Clip-Path: Clip-Path" clip-path="url(#cp5)">
		<g id="Clip-Path">
			<g>
				<path class="s4" d="m154.22 604.55c-13.91 0.03-29.95 0.13-48.51 0.13h-35.67l-77.86 161.2-100.16 140.66 100.16 114.53 75.16 108.94h123.59c117.99 276.67 464.11-91.26 685.03-113.3l-1.97-2.73c16.74-0.71 29.74-1.51 38.21-2.45 11.99 7.7 19.29 8.17 12.4-2.96-2.75-4.47 0.91-9.41 8.14-11 9.75-2.13 4.21-14.2-21.5-46.67-21.32-26.99-42.37-68.35-54.8-107.64-11.07-35.1-495.03-220.74-500.67-220.82-3.41-0.05-7.2-2.03-10.37-4.81q-0.31-0.44-0.57-0.93-0.24-0.5-0.42-1.04-0.18-0.52-0.26-1.07-0.1-0.55-0.1-1.12c0-0.75-1.3-1.45-3.7-2.1q-0.02-0.06-0.05-0.11c-0.67-1.4-1.19-1.4-1.58-0.28-5.75-1.3-16.77-2.4-31.72-3.31l-0.39-2.99h-131.44q-2.62-0.05-5.25-0.07-2.6-0.03-5.23-0.03-2.62-0.03-5.25-0.03-2.62 0-5.22 0z"/>
			</g>
		</g>
	</g>
	<g>
	</g>
</svg>