<svg version="1.2" xmlns="http://www.w3.org/2000/svg" viewBox="0 0 1479 503" width="1479" height="503">
	<defs>
		<clipPath clipPathUnits="userSpaceOnUse" id="cp1">
			<path d="m469.44 85.43c-29.52-7.2-95.42-1.36-145.41 31.53-59.11 38.91-71.98 109.27-71.98 109.27 76.21-99.32 186.85-71.51 186.85-71.51 0 0 11.34-8.53 22.06-32.1 9.01-19.83 8.48-37.19 8.48-37.19z"/>
		</clipPath>
		<linearGradient id="g1" x2="1" gradientUnits="userSpaceOnUse" gradientTransform="matrix(118.921,-77.047,41.19,63.577,283.173,201.133)">
			<stop offset="0" stop-color="#fecb03"/>
			<stop offset=".53" stop-color="#fdbd0f"/>
			<stop offset="1" stop-color="#fbaf16"/>
		</linearGradient>
		<clipPath clipPathUnits="userSpaceOnUse" id="cp2">
			<path d="m310.72-0.1c-27.65 12.59-75.85 57.95-94.82 114.7-22.45 67.17 10.89 130.44 10.89 130.44-1.44-125.23 102.72-171.77 102.72-171.77 0 0 3.66-13.74-2.48-38.87-5.15-21.18-16.3-34.5-16.31-34.5z"/>
		</clipPath>
		<linearGradient id="g2" x2="1" gradientUnits="userSpaceOnUse" gradientTransform="matrix(-43.574,110.612,-68,-26.788,279.836,90.545)">
			<stop offset="0" stop-color="#fbaf16"/>
			<stop offset=".447" stop-color="#fec608"/>
			<stop offset="1" stop-color="#fecb03"/>
		</linearGradient>
		<clipPath clipPathUnits="userSpaceOnUse" id="cp3">
			<path d="m133.08 30.84c-13.95 26.99-23.79 92.46-3.64 148.83 23.86 66.64 89.18 95.75 89.18 95.75-78.52-97.55-25.43-198.55-25.43-198.55 0 0-5.62-13.06-25.99-29.05-17.12-13.42-34.12-16.98-34.12-16.98z"/>
		</clipPath>
		<linearGradient id="g3" x2="1" gradientUnits="userSpaceOnUse" gradientTransform="matrix(28.491,117.315,-62.018,15.061,170.943,114.008)">
			<stop offset="0" stop-color="#fbaf16"/>
			<stop offset=".481" stop-color="#fec706"/>
			<stop offset="1" stop-color="#fecb03"/>
		</linearGradient>
		<clipPath clipPathUnits="userSpaceOnUse" id="cp4">
			<path d="m13.23 164.06c5.58 29.86 38.03 87.58 88.56 119.63 59.78 37.9 129.15 20.69 129.15 20.69-121.85-28.65-142.04-140.97-142.04-140.97 0 0-12.44-6.84-38.32-6.94-21.78-0.06-37.35 7.59-37.35 7.59z"/>
		</clipPath>
		<linearGradient id="g4" x2="1" gradientUnits="userSpaceOnUse" gradientTransform="matrix(93.852,75.417,-46.416,57.762,78.802,216.24)">
			<stop offset="0" stop-color="#fbaf16"/>
			<stop offset=".598" stop-color="#fec607"/>
			<stop offset="1" stop-color="#fecb03"/>
		</linearGradient>
		<clipPath clipPathUnits="userSpaceOnUse" id="cp5">
			<path d="m0.75 344.58c22.9 19.97 84.13 45.1 143.61 38.88 70.41-7.34 114.15-63.91 114.15-63.91-113.34 53.15-198.79-22.45-198.79-22.45 0 0-14.02 2.34-34.35 18.36-17.14 13.44-24.62 29.12-24.62 29.12z"/>
		</clipPath>
		<linearGradient id="g5" x2="1" gradientUnits="userSpaceOnUse" gradientTransform="matrix(222.767,-20.099,12.632,140.008,30.257,341.929)">
			<stop offset="0" stop-color="#fbaf16"/>
			<stop offset=".601" stop-color="#fec706"/>
			<stop offset="1" stop-color="#fecb03"/>
		</linearGradient>
	</defs>
	<style>
		.s0 { fill: url(#g1) } 
		.s1 { fill: url(#g2) } 
		.s2 { fill: url(#g3) } 
		.s3 { fill: url(#g4) } 
		.s4 { fill: url(#g5) } 
		.s5 { fill: #00854a } 
	</style>
	<g id="Clip-Path" clip-path="url(#cp1)">
		<g>
			<path class="s0" d="m251.2 77.76v32.89l0.24 0.03c0.31 5.45 0.9 9.69 1.66 12.14-2.3 1.61-2.17 2.24 0.64 2.27 2.32 0.03 4.22 2.16 4.22 4.75 0 2.61 14.79 1.86 10.99 6.8-55.3 71.95-306.03 311.25 85.38 65.11 9.07-5.7 12.73 18.59 16.62 20.54 2.11 1.06 10.28 2.06 21.31 2.79l0.64 1.58h78.14v-74.45l49.74-74.45c27.55-41.15-70.67-33.64-108.41-21.33l-51.25 21.33z"/>
		</g>
	</g>
	<g id="Clip-Path" clip-path="url(#cp2)">
		<g>
			<path class="s1" d="m190.32-3.46v38.92c0 8.4-0.08 15.05 0 20.33v6.74l-61.97 7.01v57.83l0.76-0.16c0.33 5 0.8 9 1.47 12.14-0.63 0.43-1.27 0.86-1.79 1.31-0.69 0.6 0.95 3.28 3.64 5.97 2.29 2.29 4.28 3.31 8.05 3.14 3.77-0.03 71.62 151.66 68.78 157.75-51.02 109.34 132.75-69.68 101.12-139.01-5.92-12.99 17.28 11.42 18.02 8.41q0.23-0.93 0.67-1.6 0.22-0.32 0.48-0.57c0.85-0.85 2-1.04 3.07-0.38h0.01c4.19 2.59 4.04-0.79 1.27-5.59 1.15-11.84 45.4-48.38 45.4-89.06v-47.58l-43.55-35.6c-8.19-61-43.46-19.06-72.72 0z"/>
		</g>
	</g>
	<g id="Clip-Path" clip-path="url(#cp3)">
		<g>
			<path class="s2" d="m92.4-19.9l-38.52 97.64v6.89c0 15.21-0.25 26.33 0 34.09v83.71l133.99 148.11 0.87-1.28c0.21 18.66-78.26-94.93-77.98-86-0.84 5.01-1.32 8.9-1.22 10.35 0.34 4.84 0.57 4.81 1.9-0.23 0.83-3.15 3.46-4.99 5.85-4.07 2.88 1.11 6.83-5.97 11.81-21.15 4.12-12.55 87.77 89.62 95.61 93.45 54.16 26.45 85.03 5.68 50.36-41.55-0.34-0.45 1.12-0.39 1.75-0.65 1.57-0.66 3.29-1.6 5.05-2.69 3.26-1.96 6.67-4.4 9.26-6.81 1.22-1.12 2.23-2.1 3.12-3.13 3.36-3.45-73.36-135.56-74.5-136.7-0.16-0.16-0.39-0.28-0.6-0.41 0.56-2.81 0.92-6.52 1.16-11.66l0.45-0.09v-85.67l-16.75-62.78 0.06-3.12 0.17-6.25h-56.04z"/>
		</g>
	</g>
	<g id="Clip-Path" clip-path="url(#cp4)">
		<g>
			<path class="s3" d="m-20.76 120.4c-124.88 46.58 22.05 93.04 31.82 119.8v84.79l9.64-0.19h98.67l-0.11-0.79c4.17-0.29 7.58-0.7 10.37-1.25 1.63 2.96 3.65 2.06 8.16-2.45q1.17-1.16 1.87-2.76c2.1-3.43-5.13 31.18 1.7 34.38 353.36 165.75 27.64-153.53 69.31-173.32 8.43-4 16.97-10.27 19.12-14.85l3.86-8.16h-93.44l-44.36-48.61-60.92-5.02z"/>
		</g>
	</g>
	<g id="Clip-Path" clip-path="url(#cp5)">
		<g>
			<path class="s4" d="m59.87 232.29c-5.35 0.01-11.52 0.05-18.66 0.05h-13.72l-29.95 62-38.53 54.1 38.53 44.05 28.91 41.9h47.54c45.39 106.41 178.53-35.1 263.51-43.58l-0.76-1.05c6.44-0.27 11.44-0.58 14.7-0.94 4.61 2.96 7.42 3.14 4.77-1.14-1.06-1.72 0.35-3.62 3.13-4.23 3.75-0.82 1.62-5.46-8.27-17.95-8.2-10.38-16.3-26.29-21.08-41.4-4.26-13.5-190.42-84.9-192.59-84.93-1.31-0.02-2.77-0.78-3.99-1.85q-0.12-0.17-0.22-0.36-0.09-0.19-0.16-0.4-0.07-0.2-0.1-0.41-0.04-0.21-0.04-0.43c0-0.29-0.5-0.56-1.42-0.81q-0.01-0.02-0.02-0.04c-0.26-0.54-0.46-0.54-0.61-0.11-2.21-0.5-6.45-0.92-12.2-1.27l-0.15-1.15h-50.56q-1.01-0.02-2.02-0.03-1-0.01-2.01-0.01-1.01-0.01-2.02-0.01-1.01 0-2.01 0z"/>
		</g>
	</g>
	<g>
		<path class="s5" d="m1073.4 206.83v273.15h93.94v-273.15h-4.72zm241.65 211.15v-211.14h-93.97v273.15h257.4v-62.01zm-620.91-44.5h-107.17v-58.48h107.17zm187.4-177.07c-89.78 0-151.7 54.54-151.7 146.64 0 120.53 87.25 146.64 151.7 146.64 64.14 0 151.78-26.11 151.78-146.64 0-125.11-87.64-146.64-151.78-146.64zm0 231.68c-33.92 0-50.45-25.63-50.45-85.04 0-59.36 16.53-84.99 50.45-84.99 34.01 0 50.48 25.63 50.48 84.99 0 59.41-16.47 85.04-50.48 85.04zm-448.19-125.05c-31.27-10.64-63.49-18.04-61.52-32.39 1.66-12.25 16.55-19.15 47.38-19.04 35.37 0.13 70.4 10.59 96.5 20.31l33.58-59.31c-23.5-9.58-80.36-26.61-136.41-26.63-87.83-0.09-144.52 35.62-144.52 90.73 0 67.66 68.73 86.59 123.37 103.84 33.58 10.6 63.28 18.52 63.28 34.87 0 22.22-36.84 22.02-52.06 21.06-42.96-2.73-81.66-20.38-109.28-34.82l-36.42 58.56c21.46 13.3 84.31 42.74 155.63 42.77 88.44 0.08 145.61-31.33 145.61-95.9 0-66.49-69.39-85.06-125.14-104.05z"/>
	</g>
</svg>