<svg version="1.2" xmlns="http://www.w3.org/2000/svg" viewBox="0 0 1411 1557" width="1411" height="1557">
	<title>UBS Etracs</title>
	<path id="Key" fill-rule="evenodd" fill="#000000" d="m1156.2 450.2l-28 23.3 29.6 96.5-88.6-48.2-29.5 23.3 97.9 52.9-104.1 84.1-28-37.4 37.3-29.5-28-32.7-37.2 29.5-28-35.7 37.3-29.6-28-35.8-191.1 158.7 181.8 146.3 32.6-40.5c23.3 1.6 40.4 18.7 49.7 40.5l-32.6 40.5 20.2 15.5c45-40.5 104.1-66.9 164.7-66.9 127.3 0 226.8 104.3 226.8 231.9 0 42-10.9 87.1-34.2 124.5l34.2 26.4c-1.6 24.9-24.9 51.3-48.2 57.6l-32.6-26.5c-45.1 43.6-104.1 67-166.2 67-127.4 0-226.8-101.2-226.8-230.3 0-42.1 12.4-85.6 31-121.4l-18.6-17.2-32.6 43.6c-23.3-3.1-43.5-18.7-49.7-43.6l32.6-38.9-153.8-127.6v202.3l51.3 1.6c6.2 7.8 10.8 18.7 10.8 31.1 0 10.9-4.6 23.4-9.3 32.7h-52.8v24.9c111.8 18.7 205.1 113.6 205.1 228.7 0 119.9-91.7 214.8-205.1 233.5v40.5c-10.9 6.1-24.9 10.8-37.3 10.8-14 0-29.5-4.7-41.9-10.8v-40.5c-113.4-18.7-202-113.6-202-233.5 0-115.1 88.6-210 202-227.1v-26.5h-52.8c-6.3-9.3-9.4-21.8-9.4-32.7q0-18.7 9.4-32.7h52.8v-202.3l-155.4 127.6 34.2 38.9c-7.8 24.9-28 40.5-51.2 43.6l-32.7-43.6-20.2 17.2c21.8 35.8 32.6 79.3 32.6 121.4 0 129.1-99.4 230.3-226.7 230.3-60.6 0-121.2-23.4-164.7-67l-34.2 26.5c-21.7-6.3-45-32.7-48.1-57.6l32.6-26.4c-20.2-37.4-32.6-82.5-32.6-124.5 0-127.6 99.4-231.9 226.8-231.9 62.1 0 121.1 26.4 166.2 66.9l18.6-14-32.6-42c7.8-21.8 28-37.4 51.3-40.5l32.6 40.5 181.7-146.3-191-158.7-28 35.8 37.3 29.6-28 35.7-37.3-29.5-27.9 32.7 35.7 29.5-28 37.4-102.5-84.1 96.3-52.9-27.9-23.3-88.6 48.2 29.5-96.5-27.9-23.3-32.6 105.8-104.1-84 27.9-34.3 35.8 29.6 29.5-34.2-37.3-32.7 28-32.7 37.2 28.1 26.4-32.8-80.7-63.7c7.7-26.5 24.8-48.3 49.7-63.9l430.3 351.8v-235.1h-43.5v45.2h-43.5v-45.2h-45.1v45.2h-45v-132.3l102.5 43.6v-37.4l-94.7-38.9 94.7-37.3v-35.8l-102.5 40.5v-133.9h45v48.3h45.1v-48.3h43.5v48.3h43.5v-105.8c12.4-4.7 26.4-7.8 40.4-7.8 12.4 0 26.4 3.1 38.8 7.8v578.9l430.3-351.8c23.3 15.6 40.4 37.4 49.7 63.9l-82.3 63.7 27.9 32.8 37.3-28.1 28 32.7-37.3 32.7 28 34.2 37.2-29.6 28 34.3-104.1 84zm-879.2 636.5c0 37.4 28 60.7 60.6 63.8l-54.4 42c-37.3-14-71.5-59.1-71.5-98 0-12.5 3.2-20.3 6.3-29.6-4.7 0-7.8 1.6-10.9 1.6-49.7 0-91.7-46.7-101-94.9l55.9-43.6c-1.5 6.2-1.5 10.9-1.5 15.5 0 31.1 29.5 59.2 60.6 59.2 32.6 0 63.7-28.1 63.7-60.8 0-40.4-31.1-66.8-69.9-66.8-76.2 0-150.7 73.1-150.7 169.6 0 28 6.2 54.5 18.6 77.8l34.2-26.5c23.3 10.9 41.9 34.3 48.1 60.7l-34.1 26.5c32.6 28 73 40.4 114.9 40.4 87 0 156.9-70 156.9-132.2 0-35.8-24.8-66.9-62.1-66.9-34.2 0-63.7 26.4-63.7 62.2zm461.3 133.9c0 34.1 28 62.2 60.6 62.2 23.3 0 32.6-9.3 49.7-23.4v70.1c-17.1 9.3-34.1 14-52.8 14-37.2 0-68.3-10.9-88.5-43.6-21.8 32.7-52.8 43.6-90.1 43.6-17.1 0-35.7-4.7-52.8-14v-70.1c15.5 15.6 27.9 23.4 49.7 23.4 34.2 0 60.6-28.1 60.6-62.2 0-32.8-21.8-62.3-57.5-62.3-63.7 0-90.1 60.7-90.1 116.7 0 82.5 60.6 152.5 139.8 166.5v-42c12.4-6.2 26.4-7.8 38.8-7.8 14 0 28 1.6 40.4 7.8v42c73-10.9 139.8-88.7 139.8-166.5 0-57.6-23.3-116.7-90.1-116.7-34.1 0-57.5 29.5-57.5 62.3zm386.9-278.7c0 31.2 32.6 60.8 65.2 60.8 31.1 0 60.6-28.1 60.6-59.2 0-4.6-1.6-9.3-1.6-15.5l54.4 43.6c-9.3 52.9-55.9 99.5-110.3 93.3 3.1 9.3 4.7 17.1 4.7 29.6 0 38.9-34.2 84-71.5 98l-54.4-42c34.2-3.1 62.2-26.4 62.2-63.8 0-35.8-31.1-62.2-65.3-62.2-35.7 0-62.1 31.1-62.1 68.4 0 45.2 54.4 130.7 158.4 130.7 42 0 82.4-12.4 113.4-40.4l-34.1-26.5c7.7-26.4 23.3-49.8 48.1-60.7l34.2 26.5c12.4-23.3 20.2-49.8 20.2-77.8 0-74.7-57.5-169.6-149.1-169.6-38.9 0-73 26.4-73 66.8z"/>
</svg>
