<svg version="1.2" baseProfile="tiny-ps" xmlns="http://www.w3.org/2000/svg" viewBox="0 0 1515 225" width="1515" height="225">
	<title>Newmont</title>
	<defs>
		<clipPath clipPathUnits="userSpaceOnUse" id="cp1">
			<path d="M-733.63 -1364.26L4892.94 -1364.26L4892.94 1806.51L-733.63 1806.51L-733.63 -1364.26Z" />
		</clipPath>
		<clipPath clipPathUnits="userSpaceOnUse" id="cp2">
			<path d="M1518.2 2.7L1518.2 227L0.64 227L0.64 2.7" />
		</clipPath>
	</defs>
	<g id="Clip-Path: Page 1" clip-path="url(#cp1)">
		<g id="Page 1">
			<g id="Clip-Path: Mask" clip-path="url(#cp2)">
				<g id="Mask">
					<path id="Path 11" fill="#fcaf17" d="M76.72 109.3L153.09 219.81L76.72 219.81L0.64 219.81L76.72 109.3Z" />
					<path id="Path 12" fill="#ffffff" fill-rule="evenodd" d="M218.93 0.58L218.93 219.81L171.14 219.81L76.72 83.17L24.09 159.44L24.09 0.58L83.93 0.58L166.3 124.01L166.3 0.58L218.93 0.58ZM1041.32 224.62C986.29 224.62 953.49 196.38 953.49 138.13C953.49 79.56 986.29 50.44 1042.52 50.44C1097.53 50.44 1130.29 78.36 1130.29 136.93C1130.29 195.17 1097.53 224.62 1041.32 224.62ZM1068.05 137.84C1068.05 110.21 1062.98 90.07 1041.61 90.07C1020.87 90.07 1015.47 109.59 1015.47 137.22C1015.47 164.55 1020.87 184.66 1042.2 184.66C1062.98 184.66 1068.05 165.14 1068.05 137.84Z" />
					<path id="Path 13" fill="#ffffff" fill-rule="evenodd" d="M389.43 214.99C389.43 214.99 363.88 222.21 330.5 222.21C295.92 222.21 276.08 214.4 261.92 201.78C243.9 185.28 237.28 163.06 237.28 137.84C237.28 84.67 265.53 50.44 321.18 50.44C350.92 50.44 373.2 60.36 386.41 80.18C399.95 99.99 399.95 119.81 399.95 153.13L297.12 153.13C297.12 170.87 310.34 181.96 336.21 181.96C358.46 181.96 387.03 173.57 387.03 173.57L389.43 173.57L389.43 214.99ZM341.6 119.81C341.6 102.69 337.41 88.87 320.56 88.87C302.83 88.87 296.5 103.28 296.5 119.81L341.6 119.81ZM464.01 54.96L485.64 159.74L511.49 57.33L568.63 57.33L594.48 159.74L616.16 54.96L665.75 54.96L622.46 219.81L559.31 219.81L533.76 119.81L507.88 219.81L444.76 219.81L403.23 54.96L464.01 54.96ZM724.09 54.96L734.61 83.76C740.33 63.94 754.45 51.64 783.61 51.64C814.62 51.64 829.33 64.85 834.46 83.76C841.34 65.47 853.09 51.64 884.63 51.64C902.68 51.64 919.82 56.16 930.37 72.07C939.4 84.96 939.66 100.58 939.66 121.01L939.66 219.81L880.14 219.81L880.14 122.22C880.14 115.91 880.14 110.5 876.54 105.98C873.2 101.2 867.19 98.79 859.1 98.79C839.85 98.79 838.65 111.71 838.65 122.8L838.65 219.81L779.1 219.81L779.1 121.6C779.1 115.91 779.1 110.5 775.5 105.98C771.89 101.2 766.18 98.79 758.06 98.79C738.54 98.79 737.34 111.71 737.34 122.8L737.34 219.81L677.76 219.81L677.76 54.96L724.09 54.96ZM1191.36 54.96L1201.85 83.76C1207.86 63.06 1224.42 51.64 1253.61 51.64C1274.33 51.64 1290.27 57.33 1300.17 72.07C1309.52 85.58 1309.52 100.58 1309.52 123.42L1309.52 219.81L1249.68 219.81L1249.68 123.42C1249.68 117.7 1249.68 111.41 1246.4 106.6C1242.76 101.78 1237.05 98.79 1227.14 98.79C1206.07 98.79 1204.87 112.91 1204.87 122.8L1204.87 219.81L1145.06 219.81L1145.06 54.96L1191.36 54.96ZM1443.62 218.6C1443.62 218.6 1429.2 222.21 1408.13 222.21C1380.47 222.21 1363.03 216.2 1353.13 201.78C1344.39 188.86 1344.39 172.95 1344.39 157.95L1344.39 100.58L1316.11 100.58L1316.11 57.33L1344.39 57.33L1344.39 21.31L1402.71 5.99L1402.71 57.33L1443.62 57.33L1443.62 100.58L1402.71 100.58L1402.71 155.54C1402.71 161.27 1402.71 168.46 1406.31 172.95C1409.66 177.76 1415.66 178.97 1423.19 178.97C1432.48 178.97 1441.22 177.18 1441.22 177.18L1443.62 177.18L1443.62 218.6ZM1481.51 192.77L1481.51 196.38L1473.69 196.38L1473.69 219.81L1468.88 219.81L1468.88 196.38L1461.35 196.38L1461.35 192.77L1481.51 192.77ZM1491.74 192.77L1500.15 213.49L1508.85 192.77L1514.86 192.77L1514.86 219.81L1510.05 219.81L1510.05 198.79L1501.97 218.6L1497.75 218.6L1489.6 198.79L1489.6 219.81L1485.41 219.81L1485.41 192.77L1491.74 192.77Z" />
				</g>
			</g>
		</g>
	</g>
</svg>
