<svg width="290" height="79" viewBox="0 0 290 79" fill="none" xmlns="http://www.w3.org/2000/svg">
<path fill-rule="evenodd" clip-rule="evenodd" d="M9.29035 49.4465L28.7567 29.5558C32.3895 25.8438 38.3259 25.797 42.0161 29.4513C42.0212 29.4563 42.0262 29.4614 42.0313 29.4664L56.5094 43.869C56.6443 44.0032 56.8618 44.002 56.9952 43.8663C57.1226 43.7367 57.1281 43.5299 57.0077 43.3937L51.0902 36.6961C50.4099 35.9261 50.3618 34.781 50.9751 33.956L53.6623 30.3411C55.3367 28.0886 58.5094 27.628 60.7486 29.3123C61.0308 29.5246 61.2902 29.7659 61.5226 30.0323L78.5752 49.5854C79.7704 50.9558 79.6349 53.0415 78.2725 54.2438C77.6738 54.7721 76.9046 55.0634 76.1083 55.0634H11.6289C9.81652 55.0634 8.34727 53.5855 8.34727 51.7623C8.34727 50.8958 8.686 50.064 9.29035 49.4465Z" fill="white"/>
<path fill-rule="evenodd" clip-rule="evenodd" d="M96.6631 54.3223L101.635 24.6778H109.17L115.035 40.4829L120.861 24.6778H128.396L133.367 54.3223H125.793L123.269 37.259L116.355 54.3223H113.326L106.762 37.259L104.237 54.3223H96.6631ZM153.922 43.2055L150.618 33.5711L147.315 43.2055H153.922ZM156.463 49.1719H145.508L143.747 54.3223H135.57L146.799 24.6778H155.172L166.401 54.3223H158.224L156.463 49.1719ZM186.316 32.3049C185.473 31.6271 184.63 31.1253 183.786 30.7994C182.943 30.4736 182.125 30.3106 181.335 30.3106C180.333 30.3106 179.516 30.5453 178.883 31.0145C178.251 31.4838 177.934 32.0964 177.934 32.8524C177.934 33.3738 178.093 33.8039 178.409 34.1428C178.725 34.4817 179.14 34.775 179.654 35.0227C180.168 35.2703 180.748 35.4854 181.394 35.6679C182.04 35.8504 182.679 36.0459 183.312 36.2544C185.842 37.0887 187.694 38.2031 188.867 39.5978C190.04 40.9925 190.626 42.8108 190.626 45.0528C190.626 46.5648 190.369 47.9335 189.855 49.1587C189.341 50.384 188.59 51.4333 187.601 52.3066C186.613 53.1799 185.401 53.8577 183.964 54.34C182.527 54.8223 180.9 55.0634 179.081 55.0634C175.312 55.0634 171.819 53.9555 168.604 51.7396L171.925 45.5612C173.084 46.5779 174.231 47.3339 175.364 47.8292C176.498 48.3245 177.618 48.5722 178.725 48.5722C179.99 48.5722 180.933 48.2854 181.552 47.7119C182.172 47.1384 182.481 46.4866 182.481 45.7567C182.481 45.3135 182.402 44.929 182.244 44.6031C182.086 44.2773 181.822 43.9775 181.453 43.7037C181.084 43.43 180.603 43.1758 180.01 42.9412C179.417 42.7066 178.699 42.4459 177.855 42.1591C176.854 41.8463 175.872 41.5009 174.91 41.1229C173.948 40.7449 173.091 40.243 172.34 39.6174C171.589 38.9917 170.982 38.2031 170.521 37.2516C170.06 36.3001 169.829 35.0944 169.829 33.6345C169.829 32.1746 170.073 30.8516 170.561 29.6654C171.048 28.4793 171.734 27.4626 172.617 26.6153C173.5 25.7681 174.58 25.1098 175.859 24.6406C177.137 24.1713 178.567 23.9367 180.149 23.9367C181.625 23.9367 183.167 24.1387 184.775 24.5428C186.382 24.9469 187.924 25.54 189.4 26.322L186.316 32.3049ZM211.275 32.3049C210.432 31.6271 209.588 31.1253 208.745 30.7994C207.902 30.4736 207.084 30.3106 206.294 30.3106C205.292 30.3106 204.475 30.5453 203.842 31.0145C203.21 31.4838 202.893 32.0964 202.893 32.8524C202.893 33.3738 203.052 33.8039 203.368 34.1428C203.684 34.4817 204.099 34.775 204.613 35.0227C205.127 35.2703 205.707 35.4854 206.353 35.6679C206.999 35.8504 207.638 36.0459 208.271 36.2544C210.801 37.0887 212.653 38.2031 213.826 39.5978C214.999 40.9925 215.585 42.8108 215.585 45.0528C215.585 46.5648 215.328 47.9335 214.814 49.1587C214.3 50.384 213.549 51.4333 212.56 52.3066C211.572 53.1799 210.359 53.8577 208.923 54.34C207.486 54.8223 205.859 55.0634 204.04 55.0634C200.271 55.0634 196.778 53.9555 193.562 51.7396L196.884 45.5612C198.043 46.5779 199.19 47.3339 200.323 47.8292C201.457 48.3245 202.577 48.5722 203.684 48.5722C204.949 48.5722 205.892 48.2854 206.511 47.7119C207.131 47.1384 207.44 46.4866 207.44 45.7567C207.44 45.3135 207.361 44.929 207.203 44.6031C207.045 44.2773 206.781 43.9775 206.412 43.7037C206.043 43.43 205.562 43.1758 204.969 42.9412C204.376 42.7066 203.658 42.4459 202.814 42.1591C201.813 41.8463 200.831 41.5009 199.869 41.1229C198.907 40.7449 198.05 40.243 197.299 39.6174C196.548 38.9917 195.941 38.2031 195.48 37.2516C195.019 36.3001 194.788 35.0944 194.788 33.6345C194.788 32.1746 195.032 30.8516 195.52 29.6654C196.007 28.4793 196.693 27.4626 197.576 26.6153C198.459 25.7681 199.539 25.1098 200.818 24.6406C202.096 24.1713 203.526 23.9367 205.108 23.9367C206.584 23.9367 208.126 24.1387 209.733 24.5428C211.341 24.9469 212.883 25.54 214.359 26.322L211.275 32.3049ZM227.33 24.6778V54.3223H219.99V24.6778H227.33ZM239.303 24.6778L246.397 42.724L253.53 24.6778H261.832L249.437 54.3223H243.357L231.001 24.6778H239.303ZM281.653 31.2043H272.483V36.1582H281.141V42.6847H272.483V47.7958H281.653V54.3223H264.769V24.6778H281.653V31.2043Z" fill="white"/>
</svg>
