<svg xmlns="http://www.w3.org/2000/svg" viewBox="0 0 500 130"><title>Oblio</title><path fill="#fbb363" d="M92.5-.5h3q16.863 3.483 34 7v1h-70z" style="opacity:.979" transform="scale(.67708)"/><path fill="#ef5260" d="M60.5 7.5h69q1.248 1.243-1 2.5a78.7 78.7 0 0 0-12 9q.834.575 1 1.5a5.73 5.73 0 0 0-3 1q.257-1.488-1-2a622 622 0 0 1-53-12" style="opacity:1" transform="scale(.67708)"/><path fill="#f48574" d="M129.5 7.5v-1a193 193 0 0 1 32 19 744 744 0 0 1-44-5q-.166-.925-1-1.5a78.7 78.7 0 0 1 12-9q2.248-1.257 1-2.5" style="opacity:.983" transform="scale(.67708)"/><path fill="#f8bb15" d="M59.5 7.5h1a622 622 0 0 0 53 12 5295 5295 0 0 1-64 14 4.93 4.93 0 0 1-3-.5 267 267 0 0 0 11-24.5q.513-1.257 2-1" style="opacity:1" transform="scale(.67708)"/><path fill="#f79327" d="M57.5 8.5a267 267 0 0 1-11 24.5q1.422.725 3 .5v1h-4q-11.614.945-22-2a592 592 0 0 1 34-24" style="opacity:1" transform="scale(.67708)"/><path fill="#f39e52" d="M113.5 19.5q1.257.512 1 2a315 315 0 0 0-8 34h-2a2099 2099 0 0 1-55-21v-1q32.22-6.84 64-14" style="opacity:1" transform="scale(.67708)"/><path fill="#ed384f" d="M117.5 20.5a744 744 0 0 0 44 5q1.257.512 1 2a1096 1096 0 0 0-56 28 315 315 0 0 1 8-34 5.73 5.73 0 0 1 3-1" style="opacity:1" transform="scale(.67708)"/><path fill="#fbb15c" d="M23.5 32.5q10.386 2.945 22 2a906 906 0 0 0-24.5 26 182 182 0 0 1-20.5 19 1539 1539 0 0 1 23-47" style="opacity:.996" transform="scale(.67708)"/><path fill="#ef473e" d="M45.5 34.5h4a2099 2099 0 0 0 55 21A2737 2737 0 0 1 4.5 80q-.834.575-1 1.5-1.487-.257-2 1h-2v-2q1 0 1-1a182 182 0 0 0 20.5-19 906 906 0 0 1 24.5-26" style="opacity:1" transform="scale(.67708)"/><path fill="#ae2948" d="M162.5 27.5a175704 175704 0 0 0-74 59 4.93 4.93 0 0 1 .5-3 237 237 0 0 0 16.5-28h1a1096 1096 0 0 1 56-28" style="opacity:1" transform="scale(.67708)"/><path fill="#e32292" d="M188.5 67.5q0 1-1 1a1313 1313 0 0 0-66 11h-1q25.5-21.489 52-42a323 323 0 0 1 16 30" style="opacity:.999" transform="scale(.67708)"/><path fill="#f26a23" d="M104.5 55.5h1a237 237 0 0 1-16.5 28 4.93 4.93 0 0 0-.5 3q0 1-1 1-1.663-1.185-4-1.5a6435 6435 0 0 1-80-4.5q.166-.925 1-1.5a2737 2737 0 0 0 100-24.5" style="opacity:1" transform="scale(.67708)"/><path fill="#b41d8d" d="m187.5 68.5-1 2a4.93 4.93 0 0 0-3 .5 5420 5420 0 0 1-73 52.5 530 530 0 0 1 11-44 1313 1313 0 0 1 66-11" style="opacity:1" transform="scale(.67708)"/><path fill="#b84198" d="m186.5 70.5-33 50h-1a938 938 0 0 0-43 4q0-1 1-1a5420 5420 0 0 0 73-52.5 4.93 4.93 0 0 1 3-.5" style="opacity:1" transform="scale(.67708)"/><path fill="#4262ad" d="M188.5 67.5q1.473 5.193 1 11-1.203-2.177-1.5-5a824 824 0 0 0-15 79q.625-1.884 2.5-2l-4 8a1341 1341 0 0 1-18-38l33-50 1-2q1 0 1-1" style="opacity:1" transform="scale(.67708)"/><path fill="#27498d" d="M189.5 78.5a329 329 0 0 0 2 15v22a562 562 0 0 0-16 35q-1.875.116-2.5 2a824 824 0 0 1 15-79q.297 2.823 1.5 5" style="opacity:1" transform="scale(.67708)"/><path fill="#e32191" d="M120.5 79.5h1a530 530 0 0 0-11 44q-1 0-1 1-22.99.913-46 1v-1a1843 1843 0 0 1 57-45" style="opacity:.999" transform="scale(.67708)"/><path fill="#ee2e3d" d="M1.5 82.5q.513-1.257 2-1a6435 6435 0 0 0 80 4.5q2.337.315 4 1.5a280 280 0 0 1-27.5 21 4656 4656 0 0 1-58.5-26" style="opacity:.999" transform="scale(.67708)"/><path fill="#ef4f84" d="M-.5 97.5a587373 587373 0 0 1 64 27v1q-1 0-1 1l-34 15q-1.488.257-2-1-11.43-21.216-27-41z" style="opacity:.999" transform="scale(.67708)"/><path fill="#f38374" d="M-.5 99.5q15.57 19.784 27 41a232 232 0 0 1-18-9.5q-1.875-1.11-3 .5a303 303 0 0 1-6-26z" style="opacity:.983" transform="scale(.67708)"/><path fill="#8b4c9e" d="M152.5 120.5a65810 65810 0 0 0-52 39h-1a730 730 0 0 0 10-35 938 938 0 0 1 43-4" style="opacity:1" transform="scale(.67708)"/><path fill="#5e98d1" d="M152.5 120.5h1a1341 1341 0 0 0 18 38q-.5 1.5-2 2a2761 2761 0 0 0-69-1 65810 65810 0 0 1 52-39" style="opacity:1" transform="scale(.67708)"/><path fill="#cf81b6" d="M109.5 124.5a730 730 0 0 1-10 35q0 1-1 1a340 340 0 0 0-36-34q0-1 1-1a1280 1280 0 0 0 46-1" style="opacity:1" transform="scale(.67708)"/><path fill="#ab4398" d="M62.5 126.5a750 750 0 0 1-28 44 302 302 0 0 1-6-29z" style="opacity:1" transform="scale(.67708)"/><path fill="#823c94" d="M62.5 126.5a340 340 0 0 1 36 34q0 1-1 1l-61 9.5q-.834.575-1 1.5h-1v-2a750 750 0 0 0 28-44" style="opacity:1" transform="scale(.67708)"/><path fill="#a22b6d" d="M26.5 140.5q.512 1.257 2 1a302 302 0 0 0 6 29v2a905 905 0 0 1-29-41q1.125-1.61 3-.5a232 232 0 0 0 18 9.5" style="opacity:.999" transform="scale(.67708)"/><path fill="#2272b9" d="M99.5 159.5h1q34.497.069 69 1l-3 2q.045-1.496-1.5-2A3438 3438 0 0 0 76.5 190q2.337.315 4 1.5h-8l25-30q1 0 1-1 1 0 1-1" style="opacity:1" transform="scale(.67708)"/><path fill="#613089" d="m97.5 161.5-25 30h-2a882 882 0 0 1-35-19q.166-.925 1-1.5z" style="opacity:.999" transform="scale(.67708)"/><path fill="#254c8f" d="M166.5 162.5a59711 59711 0 0 1-41 26.5q-17.72 1.405-35 2.5h-10q-1.663-1.185-4-1.5a3438 3438 0 0 1 88.5-29.5q1.545.504 1.5 2" style="opacity:.994" transform="scale(.67708)"/><path d="M303.3 22.933c-2.416.434-3.85 1.75-4.566 4.184-.384 1.316-.417 1.683-.35 3.55.1 2.766.45 3.9 1.65 5.216.8.85 1.033 1.017 2.383 1.484 1.433.5 1.617.516 4.167.516 2.566.017 2.716-.016 4.116-.5 2.017-.716 2.767-1.383 3.584-3.216l.633-1.417-.017-2.5c-.016-2.383-.033-2.55-.516-3.717-.467-1.133-1.667-2.7-2.067-2.7-.1 0-.367-.15-.617-.333-1.016-.75-5.633-1.067-8.4-.567m-72.633.267c-.6.183-1.717.5-2.5.7-2 .55-3.817 1.217-4.5 1.683-1.05.717-2.284 2.134-2.9 3.3-.467.884-.634 1.434-.734 2.417-.066.717-.083 12.833-.033 26.95l.083 25.667.484 2.417c.25 1.333.616 2.866.8 3.416.183.55.433 1.417.583 1.917.133.5.433 1.167.65 1.483.217.334.4.717.4.884 0 .15.183.483.4.75.217.25.517.716.683 1.033.4.783 3.534 3.9 4.417 4.367 2.217 1.233 2.867 1.55 3.917 1.933 1.417.5 2.433.767 4.833 1.217 2.967.566 5.45.716 10.667.616 4.483-.083 5.033-.133 7.583-.616 3.767-.7 6.9-1.767 8.65-2.95.317-.217.634-.384.7-.384.2 0 2.667-2.15 3.334-2.9.533-.616.783-.966 1.566-2.25.184-.316.5-.8.7-1.116.2-.3.45-.867.55-1.234.1-.366.317-.916.5-1.216.167-.284.4-1 .5-1.567s.3-1.4.434-1.833c.55-1.784.75-4.517.85-11.634.116-9.083-.1-12.533-1.034-16.333-.483-1.984-1.4-4.6-1.766-5.017-.15-.183-.35-.567-.45-.867s-.35-.75-.534-1c-.2-.25-.75-.95-1.216-1.55-1.434-1.833-4.184-4-5.784-4.566-.4-.134-.816-.334-.95-.434-.116-.1-.833-.366-1.583-.6-2.8-.833-2.983-.866-8.133-1.4-3.184-.35-10.467.25-12.2 1-.4.167-.934.35-1.217.417-.75.183-2.85 1.25-3.183 1.617-.317.35-1.234.433-1.234.1-.016-.1 0-5.5 0-11.967s-.033-11.883-.1-12.05c-.15-.383-.95-.767-1.6-.75-.3 0-1.033.167-1.633.35M251.9 56c.767.117 1.65.367 2.084.6.416.217.833.4.9.4.316 0 1.883 1.583 2.316 2.317.65 1.1.717 1.283 1.134 2.8.6 2.2.666 3.133.766 10.216.134 8.434-.05 11.6-.8 14.234-1 3.55-2.5 5-5.966 5.783-1.584.367-2.134.4-5.834.4-3.783-.016-4.216-.05-5.916-.433-1.334-.317-2.084-.6-2.767-1.033-.917-.584-1.983-1.634-1.983-1.967 0-.083-.15-.367-.334-.617-.183-.25-.566-1.35-.866-2.45l-.534-2V74l-.016-10.25.516-1.75c.334-1.083.767-2.1 1.134-2.667.7-1.05 2.1-2.283 2.75-2.45.233-.05.7-.233 1.016-.383.517-.267 2.284-.567 4.334-.733 1.333-.117 6.716.05 8.066.233m37.767-32.8c-.6.183-1.733.5-2.533.717-3.434.933-4.8 1.633-6.167 3.166-.633.7-1.667 2.55-1.85 3.284-.067.233-.117 16.35-.117 35.8-.016 26.4.034 35.433.184 35.6.383.45 1.483.55 6.783.55 4.55 0 5.483-.033 6.05-.25.367-.15.733-.417.817-.583.183-.334.233-77.434.066-77.9-.15-.384-.95-.75-1.6-.734-.3 0-1.033.167-1.633.35M184.5 44.433c-.317.034-1.85.184-3.417.334-1.55.133-3.316.366-3.916.5-2.2.483-4.184 1.033-4.55 1.266-.2.134-.667.35-1.034.467-.366.117-.783.3-.916.417-.134.133-.567.4-.934.616-.383.217-.983.584-1.35.817-.683.467-2.916 2.783-3.35 3.483-.15.234-.433.634-.65.884-.216.266-.383.6-.383.75s-.233.616-.5 1.016c-.283.4-.5.884-.5 1.067s-.183.75-.4 1.267c-.233.516-.583 1.75-.767 2.766-.2 1-.433 2.15-.5 2.534-.3 1.366-.5 6.216-.5 11.633 0 6.35.217 10.4.667 12.417.183.783.4 1.9.5 2.483.117.6.333 1.35.483 1.667.167.333.384.95.5 1.383.1.434.367 1.067.6 1.4.234.334.417.717.417.834s.183.416.4.683c.217.25.517.717.667 1.033.383.717 3.066 3.4 3.783 3.767.317.167.717.417.9.583.183.15.583.367.883.467s.75.333 1 .5.834.417 1.284.533a9 9 0 0 1 1.333.467c.267.133 1.5.417 2.75.65 1.233.217 2.7.483 3.25.583.667.134 3.183.2 7.417.217 5.95 0 6.55-.033 8.166-.367.967-.2 2.284-.45 2.917-.55 1.317-.216 4.533-1.25 4.917-1.583.133-.117.433-.267.666-.333.6-.184 2.484-1.45 3.517-2.384 1.5-1.333 2.417-2.466 3-3.7.2-.416.483-.9.65-1.083s.4-.667.5-1.083c.117-.417.333-.984.5-1.25.167-.284.4-1.034.517-1.667.1-.65.3-1.467.433-1.833.617-1.75.783-4.717.8-13.584 0-9.217-.117-11.317-.817-14.167a58 58 0 0 1-.516-2.216c-.05-.35-.284-.984-.517-1.4-.217-.417-.4-.917-.4-1.117s-.233-.683-.5-1.083c-.283-.4-.5-.834-.5-.95 0-.1-.267-.517-.583-.9-.317-.384-.584-.75-.584-.834 0-.383-3.866-3.833-4.316-3.833-.067 0-.4-.183-.734-.4-.916-.633-2.483-1.233-4.783-1.85-2.383-.633-2.55-.667-5.833-1.017-2.334-.25-8.484-.433-9.667-.3M193.083 56c1.467.217 3.267 1.017 4.2 1.9.4.367.717.75.717.833 0 .084.183.4.417.7.383.5.65 1.284 1.25 3.567.666 2.617.666 19.95 0 22.5-.634 2.4-.867 3.084-1.2 3.5-.217.267-.6.784-.884 1.15-.466.584-1.55 1.4-2.316 1.717-.167.083-1.067.3-2 .517-1.5.333-2.134.366-5.767.35-3.817 0-4.2-.034-5.883-.434-1.134-.283-2.067-.616-2.5-.9-.867-.583-2.117-1.75-2.117-1.983 0-.1-.183-.45-.4-.767-.567-.833-1.267-4.066-1.45-6.65-.183-2.666-.183-12.6 0-15.417.15-2.316.717-5.3 1.167-6.233.7-1.45 1-1.867 1.783-2.583.483-.417.917-.767 1-.767.067 0 .5-.183.983-.4.767-.367 2.117-.633 4.417-.833 1.25-.117 7.333.05 8.583.233m149.584-11.567a276 276 0 0 1-3.25.317c-3.333.333-4.383.5-5.717.917-.583.183-1.183.333-1.333.333-.367 0-2.717 1.033-4.35 1.917-.85.45-1.483.966-2.9 2.333-1.533 1.517-1.833 1.85-2.25 2.7-.2.383-.433.733-.517.783-.083.067-.25.384-.366.734-.1.333-.334.816-.5 1.05-.167.233-.35.633-.4.916-.05.267-.284 1-.5 1.65-.217.634-.65 2.584-.95 4.334l-.534 3.166v8.75c0 7.517.05 8.95.284 10.167.15.784.4 2.2.55 3.167s.4 2.067.566 2.467c.184.4.367 1 .434 1.333.066.333.316 1.033.583 1.533.25.5.533 1.1.633 1.334.35.783 1.9 2.9 2.767 3.75 2.15 2.15 5.933 4.166 8.917 4.766 5.5 1.1 5.1 1.05 12 1.05 3.883 0 6.783-.066 7.333-.183.5-.1 1.817-.333 2.917-.533 4.433-.817 7.833-2.4 10.4-4.85.833-.784 2.516-2.834 2.516-3.067 0-.117.15-.417.35-.667s.484-.8.65-1.233.45-1.167.634-1.617c.666-1.633 1.2-4.05 1.566-7 .35-2.716.384-3.7.384-10.5 0-6.833-.034-7.783-.384-10.583-.216-1.767-.566-3.634-.8-4.384-.216-.716-.4-1.466-.4-1.666s-.233-.817-.5-1.367c-.266-.55-.5-1.117-.5-1.267s-.216-.55-.5-.9c-.266-.35-.5-.716-.5-.816 0-.35-1.6-2.334-2.65-3.267-1.783-1.617-2.316-1.967-4.183-2.833-2.367-1.1-5.117-1.884-7.5-2.15-.867-.1-2.25-.267-3.083-.367-1.55-.183-7.884-.333-8.917-.217m9 11.634c1.3.233 2.95.983 3.667 1.65.616.566 1.666 1.966 1.666 2.233 0 .117.184.65.4 1.183.717 1.7.85 3.817.85 13.117 0 8.75-.133 11.284-.7 12.584a16 16 0 0 0-.45 1.266c-.333 1.05-1.483 2.484-2.583 3.2-.767.484-1.4.734-2.8 1.05-1.65.367-2.133.4-5.967.384-3.966 0-4.25-.034-6-.467-1.083-.267-2.1-.633-2.5-.9-.816-.533-2.25-2-2.25-2.283 0-.1-.2-.567-.433-1.017-.317-.6-.55-1.533-.867-3.483-.416-2.6-.433-2.867-.433-10.334s.017-7.733.433-10.333c.35-2.2.534-2.9 1.034-3.917 1.4-2.867 3.283-3.85 8.016-4.233 1.634-.134 7.684.083 8.917.3m64.25-10.9c-2.1.166-5.883.916-7.083 1.416-.5.2-1.15.434-1.433.484-.284.066-.767.3-1.084.533-.3.217-.616.4-.716.4-.217 0-1.884 1.133-2.684 1.833-1.05.9-2.4 2.517-2.833 3.35-.217.417-.517.85-.65.967-.15.117-.35.533-.45.917-.1.366-.317.883-.5 1.116-.167.234-.384.8-.484 1.25s-.333 1.234-.5 1.734c-.183.5-.533 2.333-.783 4.083-.45 3.083-.467 3.35-.467 10.584 0 5.216.067 7.816.217 8.75.117.733.333 2.216.467 3.3.133 1.1.4 2.4.583 2.916.183.534.4 1.317.5 1.767.083.45.267.95.4 1.1s.35.6.5 1c.667 1.867 3.934 5.667 5.5 6.35.384.167.8.417.9.55.117.133.484.333.817.45.333.1.8.3 1.033.45.4.267 2.3.833 4.217 1.283.533.117 2.3.35 3.917.517 2.55.25 4.166.267 12 .183 7.783-.083 9.116-.133 9.466-.35.65-.45 1.7-4.533 1.25-4.983-.15-.15-2.933-.2-11.65-.2h-11.45l-2.233-.55c-3.033-.75-4.567-1.533-6.117-3.117a10 10 0 0 1-1.866-2.583c-.384-.75-.7-1.467-.7-1.6 0-.117-.184-.767-.4-1.433-.45-1.4-.684-3.25-.95-7.7-.167-2.984-.167-3.167.133-3.45.3-.3 1-.317 18.383-.367 13.984-.033 18.217-.083 18.7-.25.85-.3 1.967-1.667 2.167-2.667.217-1.05.183-9.667-.05-11.633a17.6 17.6 0 0 0-.583-2.934c-.217-.75-.4-1.483-.4-1.633s-.184-.633-.4-1.1c-.217-.45-.567-1.15-.75-1.567-.984-2.083-2.817-4.25-4.684-5.566-1.5-1.05-4.883-2.467-6.583-2.767-.55-.1-1.717-.333-2.583-.5-1.85-.367-7.35-.55-10.084-.333m9.834 5.716c3.433.634 5.033 1.4 6.95 3.334 1.3 1.316 1.783 2.133 2.7 4.483.533 1.417.933 4.3 1.083 8.133.117 2.967.033 3.734-.433 3.9-.15.067-7.617.117-16.617.117-15.867 0-16.333-.017-16.65-.333-.3-.3-.317-.434-.117-3.284.234-3.516.584-6.416.817-6.883.1-.183.3-.833.45-1.467.133-.616.367-1.25.483-1.383.134-.15.367-.55.517-.917.717-1.733 2.967-3.916 4.717-4.6.416-.166 1-.4 1.266-.55.284-.133 1.484-.4 2.667-.583 1.2-.183 2.35-.367 2.583-.417.234-.033 2-.05 3.917-.016 2.783.05 3.933.15 5.667.466M300.434 46.25c-.184.1-.467.4-.634.683-.283.5-.3 1.767-.3 27.3 0 29.817-.1 27.6 1.134 27.917.333.084 3.05.167 6.033.167 5.733-.017 6.267-.067 6.65-.8.25-.433.267-54.05.033-54.484-.083-.15-.3-.416-.483-.583-.3-.283-.817-.3-6.217-.333-3.666-.017-6 .033-6.216.133m150.65.85c-.25.25-.267 2-.2 20.8.083 20.634.117 21.817.7 23.517.133.417.3 1.067.35 1.467.117.783 1.417 3.616 1.817 3.95.133.116.25.3.25.4 0 .283 1.666 1.95 2.766 2.783 1.85 1.383 4.784 2.617 7.567 3.167.967.183 2.083.433 2.5.533.467.1 3.033.183 6.667.183l5.916.017 2.584-.55c3.716-.767 5.583-1.517 8.116-3.217.834-.566 2.484-2.216 3.034-3.05.866-1.3 1.716-3.033 2.033-4.183.85-3 .817-1.733.817-24.417 0-16.317-.05-21.317-.2-21.467-.234-.233-5.084-.283-5.434-.05-.183.117-.216 3.35-.216 18.117.016 18.25-.1 23.217-.567 24.9-.15.5-.367 1.317-.5 1.817-.133.483-.383 1.05-.55 1.25-.183.183-.45.583-.583.85-.3.6-1.817 2.033-2.617 2.5-1.25.7-3.583 1.417-5.4 1.667-3.05.433-7.75.5-10.883.183-1.5-.167-3.067-.383-3.5-.517-1.7-.483-2.984-.966-3.3-1.25-.184-.166-.5-.35-.7-.416-.417-.117-2.4-2.234-2.6-2.784-.067-.183-.267-.533-.434-.783-.183-.25-.516-1.3-.766-2.35-.65-2.8-.734-5.7-.734-25.55 0-13.1-.05-17.367-.2-17.55-.3-.367-5.35-.334-5.733.033m-69.017 45.8c-1.017.317-1.817 1-2.417 2.067-.5.9-.533 1.033-.533 2.733 0 1.784.017 1.8.65 2.917.567.983.783 1.2 1.65 1.667.917.5 1.133.533 2.517.55 1.4 0 1.6-.05 2.583-.567.967-.5 1.133-.667 1.683-1.7.6-1.1.617-1.217.634-2.783 0-1.467-.05-1.734-.484-2.667-.583-1.217-1.366-1.9-2.566-2.217-1.067-.283-2.8-.283-3.717 0"/></svg>